<svg width="800" height="900" viewBox="0 0 800 900" fill="none" xmlns="http://www.w3.org/2000/svg">
<g id="Frame 1">
<g id="CSS">
<path id="BG" d="M341.469 653.965C341.469 648.837 341.469 646.274 342.483 644.322C343.337 642.678 344.678 641.337 346.322 640.483C348.273 639.469 350.837 639.469 355.964 639.469H405.753C410.881 639.469 413.444 639.469 415.396 640.483C417.04 641.337 418.381 642.678 419.235 644.322C420.249 646.274 420.249 648.837 420.249 653.965V703.754C420.249 708.881 420.249 711.445 419.235 713.396C418.381 715.04 417.04 716.381 415.396 717.235C413.444 718.249 410.881 718.249 405.753 718.249H355.964C350.837 718.249 348.273 718.249 346.322 717.235C344.678 716.381 343.337 715.04 342.483 713.396C341.469 711.445 341.469 708.881 341.469 703.754V653.965Z" fill="white" fill-opacity="0.1"/>
<path id="Border" d="M405.753 639H355.964H355.942C353.397 639 351.459 639 349.913 639.129C348.358 639.258 347.16 639.519 346.106 640.067C344.376 640.966 342.965 642.376 342.066 644.106C341.519 645.16 341.257 646.359 341.128 647.914C341 649.459 341 651.398 341 653.942V653.965V703.754V703.776C341 706.321 341 708.259 341.128 709.805C341.257 711.36 341.519 712.558 342.066 713.612C342.965 715.342 344.376 716.753 346.106 717.651C347.16 718.199 348.358 718.46 349.913 718.59C351.458 718.718 353.397 718.718 355.942 718.718H355.964H405.753H405.776C408.321 718.718 410.259 718.718 411.804 718.59C413.36 718.46 414.558 718.199 415.612 717.651C417.342 716.753 418.753 715.342 419.651 713.612C420.199 712.558 420.46 711.36 420.59 709.805C420.718 708.259 420.718 706.321 420.718 703.776V703.754V653.965V653.942C420.718 651.398 420.718 649.459 420.59 647.914C420.46 646.359 420.199 645.16 419.651 644.106C418.753 642.376 417.342 640.966 415.612 640.067C414.558 639.519 413.36 639.258 411.804 639.129C410.259 639 408.321 639 405.776 639H405.753Z" stroke="white" stroke-opacity="0.2" strokeWidth="0.937853"/>
<g id="CSSGroup">
<path id="Vector" d="M360.572 701.302L356 650H406.258L401.679 701.294L381.098 707L360.572 701.302Z" fill="#1572B6"/>
<path id="Vector_2" d="M381.129 702.64L397.761 698.029L401.673 654.196H381.129V702.64Z" fill="#33A9DC"/>
<path id="Vector_3" d="M381.129 672.782H389.455L390.029 666.339H381.129V660.046H381.151H396.906L396.755 661.734L395.21 679.074H381.129V672.782Z" fill="white"/>
<path id="Vector_4" d="M381.168 689.122L381.139 689.13L374.132 687.237L373.684 682.219H370.278H367.367L368.249 692.099L381.137 695.677L381.168 695.669V689.122Z" fill="#EBEBEB"/>
<path id="Vector_5" d="M388.92 678.807L388.162 687.233L381.145 689.126V695.673L394.043 692.099L394.139 691.036L395.232 678.807H388.92Z" fill="white"/>
<path id="Vector_6" d="M381.151 660.046V663.955V666.322V666.339H365.973H365.953L365.826 664.924L365.539 661.734L365.389 660.046H381.151Z" fill="#EBEBEB"/>
<path id="Vector_7" d="M381.129 672.782V676.69V679.058V679.074H374.23H374.209L374.083 677.659L373.798 674.469L373.648 672.782H381.129Z" fill="#EBEBEB"/>
</g>
</g>
<g id="Bootstrap">
<path id="BG_2" d="M301.469 289.965C301.469 284.837 301.469 282.274 302.483 280.322C303.337 278.678 304.678 277.337 306.322 276.483C308.273 275.469 310.837 275.469 315.964 275.469H365.753C370.881 275.469 373.444 275.469 375.396 276.483C377.04 277.337 378.381 278.678 379.235 280.322C380.249 282.274 380.249 284.837 380.249 289.965V339.754C380.249 344.881 380.249 347.445 379.235 349.396C378.381 351.04 377.04 352.381 375.396 353.235C373.444 354.249 370.881 354.249 365.753 354.249H315.964C310.837 354.249 308.273 354.249 306.322 353.235C304.678 352.381 303.337 351.04 302.483 349.396C301.469 347.445 301.469 344.881 301.469 339.754V289.965Z" fill="white" fill-opacity="0.1"/>
<path id="Border_2" d="M365.753 275H315.964H315.942C313.397 275 311.459 275 309.913 275.129C308.358 275.258 307.16 275.519 306.106 276.067C304.376 276.966 302.965 278.376 302.066 280.106C301.519 281.16 301.257 282.359 301.128 283.914C301 285.459 301 287.398 301 289.942V289.965V339.754V339.776C301 342.321 301 344.259 301.128 345.805C301.257 347.36 301.519 348.558 302.066 349.612C302.965 351.342 304.376 352.753 306.106 353.651C307.16 354.199 308.358 354.46 309.913 354.59C311.458 354.718 313.397 354.718 315.942 354.718H315.964H365.753H365.776C368.321 354.718 370.259 354.718 371.804 354.59C373.36 354.46 374.558 354.199 375.612 353.651C377.342 352.753 378.753 351.342 379.651 349.612C380.199 348.558 380.46 347.36 380.59 345.805C380.718 344.259 380.718 342.321 380.718 339.776V339.754V289.965V289.942C380.718 287.398 380.718 285.459 380.59 283.914C380.46 282.359 380.199 281.16 379.651 280.106C378.753 278.376 377.342 276.966 375.612 276.067C374.558 275.519 373.36 275.258 371.804 275.129C370.259 275 368.321 275 365.776 275H365.753Z" stroke="white" stroke-opacity="0.2" strokeWidth="0.937853"/>
<g id="Group">
<path id="Vector_8" d="M312 336.393C312 340.594 315.406 344 319.607 344H363.393C367.594 344 371 340.594 371 336.393V292.607C371 288.406 367.594 285 363.393 285H319.607C315.406 285 312 288.406 312 292.607V336.393Z" fill="#563D7C"/>
<path id="Vector_9" d="M336.466 311.098V302.743H343.821C344.521 302.743 345.197 302.801 345.847 302.918C346.497 303.034 347.073 303.243 347.573 303.543C348.073 303.843 348.474 304.26 348.774 304.794C349.074 305.328 349.224 306.011 349.224 306.845C349.224 308.346 348.774 309.43 347.873 310.097C346.973 310.764 345.822 311.098 344.421 311.098H336.466ZM328.611 296.639V332.361H345.922C347.523 332.361 349.082 332.161 350.6 331.761C352.118 331.361 353.468 330.744 354.653 329.91C355.837 329.076 356.779 328 357.479 326.683C358.18 325.365 358.53 323.806 358.53 322.005C358.53 319.77 357.988 317.86 356.904 316.276C355.82 314.692 354.177 313.583 351.976 312.949C353.577 312.182 354.786 311.198 355.603 309.997C356.42 308.796 356.829 307.295 356.829 305.494C356.829 303.827 356.554 302.426 356.003 301.292C355.453 300.158 354.678 299.249 353.677 298.565C352.676 297.881 351.476 297.389 350.075 297.089C348.674 296.789 347.123 296.639 345.422 296.639H328.611ZM336.466 326.257V316.451H345.021C346.723 316.451 348.09 316.843 349.124 317.627C350.158 318.411 350.675 319.72 350.675 321.554C350.675 322.488 350.517 323.256 350.2 323.856C349.883 324.456 349.458 324.932 348.924 325.282C348.39 325.632 347.773 325.882 347.073 326.032C346.372 326.182 345.638 326.257 344.871 326.257H336.466Z" fill="white"/>
</g>
</g>
<g id="JavaScript">
<path id="BG_3" d="M219.243 805.469H169.537C161.767 805.469 155.469 811.767 155.469 819.537V869.243C155.469 877.013 161.767 883.311 169.537 883.311H219.243C227.013 883.311 233.311 877.013 233.311 869.243V819.537C233.311 811.767 227.013 805.469 219.243 805.469Z" fill="white" fill-opacity="0.1"/>
<path id="Border_3" d="M219.243 805H169.537C161.509 805 155 811.508 155 819.537V869.243C155 877.272 161.509 883.78 169.537 883.78H219.243C227.272 883.78 233.78 877.272 233.78 869.243V819.537C233.78 811.508 227.272 805 219.243 805Z" stroke="white" stroke-opacity="0.2" strokeWidth="0.937853"/>
<path id="JSName" d="M207.758 866.283C209.326 868.843 211.366 870.725 214.974 870.725C218.005 870.725 219.941 869.21 219.941 867.117C219.941 864.609 217.952 863.72 214.616 862.261L212.787 861.477C207.509 859.228 204.002 856.411 204.002 850.455C204.002 844.969 208.182 840.793 214.715 840.793C219.365 840.793 222.709 842.412 225.118 846.65L219.422 850.307C218.168 848.058 216.815 847.172 214.715 847.172C212.572 847.172 211.214 848.531 211.214 850.307C211.214 852.501 212.573 853.39 215.712 854.749L217.54 855.532C223.755 858.197 227.264 860.914 227.264 867.023C227.264 873.609 222.091 877.217 215.143 877.217C208.35 877.217 203.961 873.979 201.814 869.736L207.758 866.283ZM181.919 866.917C183.068 868.956 184.113 870.679 186.626 870.679C189.029 870.679 190.545 869.739 190.545 866.083V841.211H197.86V866.182C197.86 873.756 193.419 877.203 186.937 877.203C181.081 877.203 177.689 874.172 175.964 870.522L181.919 866.917Z" fill="#FFD83A"/>
</g>
<g id="React">
<path id="BG_4" d="M102.243 700.469H53.4746C45.1872 700.469 38.469 707.187 38.469 715.475V764.243C38.469 772.53 45.1872 779.249 53.4746 779.249H102.243C110.53 779.249 117.249 772.53 117.249 764.243V715.475C117.249 707.187 110.53 700.469 102.243 700.469Z" fill="white" fill-opacity="0.1"/>
<path id="Border_4" d="M102.243 700H53.4746C44.9282 700 38 706.928 38 715.475V764.243C38 772.789 44.9282 779.717 53.4746 779.717H102.243C110.789 779.717 117.717 772.789 117.717 764.243V715.475C117.717 706.928 110.789 700 102.243 700Z" stroke="white" stroke-opacity="0.2" strokeWidth="0.937853"/>
<g id="ReactGruop">
<path id="Vector_10" d="M68.025 734.277C59.518 747.721 57.024 761.118 62.455 764.201C67.886 767.284 79.186 758.884 87.693 745.44C96.2 731.996 98.694 718.598 93.263 715.516C87.832 712.433 76.532 720.833 68.025 734.277Z" stroke="#1399C4" strokeWidth="2.73905"/>
<path id="Vector_11" d="M67.847 745.117C75.912 758.831 86.932 767.594 92.461 764.69C97.989 761.786 95.933 748.314 87.868 734.6C79.803 720.886 68.783 712.123 63.254 715.027C57.726 717.931 59.782 731.403 67.847 745.117Z" stroke="#1399C4" strokeWidth="2.73905"/>
<path id="Vector_12" d="M77.682 750.702C94.254 750.972 107.768 746.338 107.865 740.351C107.963 734.364 94.607 729.292 78.035 729.022C61.462 728.752 47.949 733.387 47.851 739.373C47.754 745.36 61.109 750.432 77.682 750.702Z" stroke="#1399C4" strokeWidth="2.73905"/>
<path id="Vector_13" d="M77.796 745.15C80.885 745.201 83.427 742.873 83.475 739.95C83.522 737.028 81.057 734.619 77.969 734.568C74.88 734.518 72.338 736.846 72.29 739.768C72.243 742.69 74.708 745.1 77.796 745.15Z" fill="#1399C4"/>
</g>
</g>
<g id="AWS">
<path id="BG_5" d="M658.085 142.215L607.444 141.635C599.675 141.546 593.305 147.772 593.216 155.541L592.636 206.182C592.547 213.951 598.773 220.321 606.542 220.41L657.182 220.99C664.951 221.079 671.321 214.853 671.41 207.084L671.99 156.443C672.079 148.674 665.854 142.304 658.085 142.215Z" fill="white" fill-opacity="0.1"/>
<path id="Border_5" d="M658.09 141.747L607.449 141.166C599.421 141.075 592.838 147.508 592.747 155.536L592.166 206.177C592.075 214.204 598.508 220.787 606.536 220.879L657.177 221.459C665.204 221.551 671.787 215.117 671.879 207.09L672.459 156.449C672.551 148.421 666.117 141.838 658.09 141.747Z" stroke="white" stroke-opacity="0.2" strokeWidth="0.937853"/>
<path id="Vector_14" d="M656.445 192.237C649.822 197.012 640.251 199.478 632.047 199.384C620.549 199.252 610.237 194.882 602.493 187.726C601.881 187.16 602.449 186.407 603.182 186.855C611.59 191.863 621.995 194.956 632.795 195.08C640.081 195.164 648.103 193.738 655.504 190.709C656.608 190.222 657.532 191.45 656.445 192.237ZM659.215 189.154C658.389 188.066 653.672 188.571 651.533 188.806C650.893 188.879 650.8 188.319 651.384 187.906C655.167 185.314 661.326 186.144 662.034 187.03C662.743 187.937 661.754 194.094 658.207 197.008C657.663 197.461 657.146 197.216 657.393 196.62C658.214 194.653 660.041 190.221 659.215 189.154Z" fill="#FF9C08"/>
<path id="Vector_15" d="M619.273 176.379C619.264 177.117 619.337 177.717 619.472 178.158C619.627 178.599 619.821 179.08 620.094 179.602C620.192 179.763 620.23 179.923 620.229 180.063C620.227 180.263 620.104 180.461 619.843 180.658L618.575 181.482C618.394 181.599 618.214 181.657 618.054 181.655C617.855 181.653 617.656 181.551 617.459 181.369C617.183 181.066 616.947 180.744 616.751 180.423C616.555 180.081 616.36 179.699 616.146 179.238C614.568 181.056 612.601 181.952 610.245 181.925C608.569 181.906 607.237 181.412 606.269 180.442C605.302 179.473 604.818 178.19 604.836 176.593C604.856 174.896 605.47 173.526 606.7 172.501C607.929 171.477 609.552 170.977 611.608 171C612.287 171.008 612.985 171.076 613.722 171.184C614.46 171.293 615.217 171.461 616.013 171.65L616.03 170.193C616.047 168.676 615.74 167.614 615.128 166.988C614.496 166.362 613.422 166.05 611.885 166.033C611.186 166.025 610.467 166.096 609.726 166.267C608.985 166.439 608.264 166.65 607.562 166.921C607.241 167.057 607.001 167.135 606.861 167.173C606.721 167.211 606.62 167.23 606.541 167.229C606.261 167.226 606.124 167.025 606.129 166.605L606.14 165.627C606.143 165.308 606.186 165.069 606.287 164.93C606.389 164.792 606.57 164.654 606.851 164.518C607.554 164.166 608.396 163.876 609.377 163.648C610.358 163.4 611.397 163.292 612.495 163.304C614.87 163.332 616.601 163.891 617.706 164.981C618.792 166.072 619.332 167.715 619.307 169.911L619.233 176.378L619.273 176.379ZM611.134 179.32C611.792 179.328 612.472 179.216 613.194 178.984C613.915 178.753 614.559 178.321 615.105 177.729C615.429 177.353 615.673 176.936 615.798 176.459C615.923 175.981 616.01 175.403 616.018 174.724L616.027 173.886C615.45 173.74 614.833 173.613 614.195 173.526C613.557 173.438 612.938 173.391 612.32 173.384C610.982 173.369 610.001 173.617 609.336 174.149C608.671 174.68 608.343 175.435 608.332 176.433C608.321 177.371 608.553 178.073 609.046 178.558C609.52 179.062 610.215 179.31 611.134 179.32ZM627.138 181.66C626.779 181.655 626.54 181.593 626.382 181.451C626.224 181.33 626.087 181.049 625.972 180.668L621.457 165.184C621.342 164.783 621.285 164.523 621.287 164.383C621.29 164.064 621.452 163.886 621.772 163.89L623.728 163.912C624.107 163.917 624.366 163.979 624.504 164.121C624.662 164.242 624.779 164.523 624.894 164.904L628.097 178.157L631.362 164.978C631.466 164.58 631.589 164.322 631.75 164.204C631.911 164.086 632.192 164.009 632.551 164.013L634.148 164.032C634.527 164.036 634.786 164.099 634.944 164.24C635.102 164.362 635.239 164.643 635.314 165.023L638.315 178.434L641.922 165.099C642.046 164.701 642.189 164.443 642.33 164.325C642.491 164.207 642.751 164.13 643.111 164.134L644.967 164.156C645.286 164.159 645.464 164.321 645.46 164.66C645.459 164.76 645.438 164.86 645.417 164.979C645.395 165.099 645.354 165.258 645.271 165.477L640.284 180.852C640.159 181.25 640.017 181.508 639.856 181.626C639.695 181.743 639.434 181.82 639.095 181.816L637.378 181.797C636.999 181.792 636.74 181.73 636.582 181.588C636.424 181.447 636.287 181.185 636.212 180.785L633.265 167.875L630.044 180.695C629.94 181.093 629.817 181.351 629.656 181.489C629.494 181.627 629.214 181.683 628.855 181.679L627.138 181.66ZM652.783 182.492C651.745 182.48 650.708 182.349 649.713 182.098C648.717 181.847 647.942 181.578 647.426 181.273C647.109 181.09 646.892 180.888 646.814 180.707C646.736 180.526 646.698 180.326 646.7 180.147L646.712 179.129C646.717 178.71 646.879 178.512 647.178 178.515C647.298 178.517 647.418 178.538 647.537 178.579C647.656 178.62 647.835 178.702 648.034 178.784C648.709 179.092 649.445 179.34 650.221 179.508C651.018 179.677 651.796 179.766 652.594 179.775C653.852 179.789 654.832 179.581 655.516 179.15C656.2 178.718 656.566 178.084 656.576 177.265C656.582 176.706 656.408 176.245 656.053 175.862C655.698 175.478 655.023 175.131 654.049 174.801L651.164 173.869C649.712 173.393 648.642 172.702 647.994 171.797C647.345 170.911 647.017 169.929 647.029 168.891C647.039 168.052 647.227 167.316 647.593 166.681C647.96 166.046 648.445 165.493 649.049 165.061C649.653 164.609 650.336 164.277 651.137 164.047C651.938 163.816 652.778 163.726 653.656 163.736C654.095 163.741 654.554 163.766 654.993 163.831C655.451 163.896 655.869 163.981 656.288 164.066C656.686 164.17 657.064 164.274 657.422 164.398C657.78 164.522 658.058 164.645 658.256 164.767C658.534 164.93 658.732 165.092 658.849 165.273C658.967 165.434 659.025 165.654 659.021 165.934L659.011 166.872C659.006 167.291 658.844 167.509 658.544 167.505C658.384 167.503 658.126 167.421 657.788 167.257C656.657 166.725 655.382 166.451 653.965 166.435C652.827 166.422 651.927 166.591 651.303 166.963C650.68 167.335 650.354 167.911 650.345 168.729C650.338 169.288 650.533 169.769 650.927 170.153C651.322 170.537 652.057 170.925 653.111 171.276L655.935 172.207C657.367 172.683 658.398 173.333 659.007 174.159C659.616 174.984 659.905 175.926 659.893 176.964C659.883 177.822 659.695 178.599 659.348 179.273C658.981 179.948 658.495 180.541 657.87 181.013C657.246 181.505 656.503 181.856 655.642 182.106C654.74 182.375 653.801 182.504 652.783 182.492Z" fill="white"/>
</g>
<g id="MongoDB">
<path id="BG_6" d="M465.085 134.215L414.444 133.635C406.675 133.546 400.305 139.772 400.216 147.541L399.636 198.182C399.547 205.951 405.773 212.321 413.542 212.41L464.182 212.99C471.951 213.079 478.321 206.853 478.41 199.084L478.99 148.443C479.079 140.674 472.854 134.304 465.085 134.215Z" fill="white" fill-opacity="0.1"/>
<path id="Border_6" d="M465.09 133.747L414.449 133.166C406.421 133.075 399.838 139.508 399.747 147.536L399.166 198.177C399.075 206.204 405.508 212.787 413.536 212.879L464.177 213.459C472.204 213.551 478.787 207.117 478.879 199.09L479.459 148.449C479.551 140.421 473.117 133.838 465.09 133.747Z" stroke="white" stroke-opacity="0.2" strokeWidth="0.937853"/>
<path id="LogoMongoDBCirculo" d="M439 205C456.673 205 471 190.673 471 173C471 155.327 456.673 141 439 141C421.327 141 407 155.327 407 173C407 190.673 421.327 205 439 205Z" fill="#13AA52"/>
<path id="LogoMongoDB" d="M447.554 169.09C445.532 160.169 440.756 157.236 440.241 156.116C439.679 155.325 439.109 153.919 439.109 153.919C439.099 153.895 439.084 153.853 439.067 153.812C439.009 154.603 438.979 154.908 438.231 155.706C437.074 156.611 431.135 161.594 430.652 171.729C430.201 181.181 437.48 186.814 438.464 187.532L438.576 187.611V187.604C438.582 187.652 438.889 189.854 439.104 192.188H439.875C440.056 190.538 440.327 188.9 440.687 187.28L440.75 187.239C441.19 186.924 441.61 186.58 442.007 186.211L442.052 186.171C444.144 184.237 447.906 179.766 447.869 172.637C447.862 171.448 447.756 170.262 447.554 169.09ZM439.022 182.195C439.022 182.195 439.022 168.937 439.459 168.94C439.801 168.94 440.242 186.041 440.242 186.041C439.635 185.967 439.022 183.226 439.022 182.195Z" fill="white"/>
</g>
<g id="PostGreSQL">
<path id="BG_7" d="M565.085 261.215L514.444 260.635C506.675 260.546 500.305 266.772 500.216 274.541L499.636 325.182C499.547 332.951 505.773 339.321 513.542 339.41L564.182 339.99C571.951 340.079 578.321 333.853 578.41 326.084L578.99 275.443C579.079 267.674 572.854 261.304 565.085 261.215Z" fill="white" fill-opacity="0.1"/>
<path id="Border_7" d="M565.09 260.747L514.449 260.166C506.421 260.075 499.838 266.508 499.747 274.536L499.166 325.177C499.075 333.204 505.508 339.787 513.536 339.879L564.177 340.459C572.204 340.551 578.787 334.117 578.879 326.09L579.459 275.449C579.551 267.421 573.117 260.838 565.09 260.747Z" stroke="white" stroke-opacity="0.2" strokeWidth="0.937853"/>
<g id="LogoPostGreSQL">
<path id="Vector_16" d="M567.865 306.929C567.517 305.872 566.603 305.136 565.421 304.959C564.864 304.876 564.225 304.912 563.47 305.068C562.154 305.339 561.177 305.442 560.465 305.463C563.155 300.92 565.342 295.741 566.602 290.865C568.638 282.981 567.55 279.39 566.278 277.765C562.913 273.465 558.003 271.155 552.08 271.085C548.92 271.046 546.146 271.67 544.699 272.118C543.352 271.881 541.903 271.748 540.383 271.723C537.534 271.678 535.017 272.299 532.866 273.576C531.674 273.173 529.763 272.605 527.556 272.243C522.364 271.391 518.18 272.055 515.12 274.217C511.414 276.835 509.696 281.383 510.014 287.735C510.115 289.752 511.243 295.888 513.019 301.708C514.04 305.053 515.129 307.83 516.255 309.964C517.852 312.991 519.561 314.773 521.479 315.413C522.555 315.771 524.508 316.022 526.563 314.311C526.823 314.626 527.171 314.939 527.632 315.23C528.218 315.6 528.934 315.902 529.649 316.08C532.227 316.725 534.641 316.564 536.701 315.661C536.713 316.027 536.723 316.377 536.731 316.679C536.745 317.169 536.759 317.65 536.777 318.099C536.899 321.139 537.105 323.503 537.718 325.156C537.752 325.247 537.797 325.386 537.845 325.533C538.15 326.469 538.662 328.035 539.962 329.263C541.309 330.534 542.938 330.924 544.429 330.923C545.177 330.923 545.891 330.825 546.517 330.691C548.749 330.213 551.284 329.484 553.118 326.873C554.851 324.405 555.694 320.688 555.847 314.83C555.866 314.664 555.885 314.506 555.902 314.355C555.914 314.254 555.926 314.15 555.938 314.046L556.347 314.082L556.452 314.089C558.725 314.193 561.505 313.71 563.212 312.918C564.561 312.291 568.883 310.01 567.865 306.929Z" fill="black"/>
<path id="Vector_17" d="M563.979 307.528C557.22 308.922 556.755 306.634 556.755 306.634C563.891 296.044 566.875 282.603 564.3 279.313C557.277 270.339 545.119 274.583 544.916 274.693L544.85 274.705C543.515 274.428 542.021 274.263 540.341 274.235C537.283 274.185 534.963 275.037 533.202 276.372C533.202 276.372 511.514 267.437 512.522 287.609C512.737 291.901 518.673 320.08 525.754 311.569C528.342 308.456 530.842 305.825 530.842 305.825C532.084 306.65 533.571 307.071 535.13 306.92L535.251 306.817C535.213 307.203 535.23 307.581 535.299 308.029C533.475 310.067 534.011 310.424 530.365 311.175C526.675 311.935 528.843 313.289 530.258 313.643C531.974 314.072 535.943 314.68 538.625 310.925L538.518 311.354C539.232 311.926 539.734 315.077 539.65 317.934C539.566 320.79 539.51 322.751 540.073 324.283C540.636 325.815 541.197 329.262 545.991 328.235C549.996 327.376 552.072 325.152 552.361 321.441C552.566 318.804 553.029 319.194 553.059 316.835L553.43 315.719C553.859 312.143 553.499 310.99 555.966 311.526L556.566 311.579C558.382 311.661 560.759 311.287 562.154 310.638C565.159 309.244 566.94 306.916 563.978 307.528H563.979Z" fill="#336791"/>
<path id="Vector_18" d="M534.472 289.528C533.863 289.444 533.311 289.522 533.032 289.733C532.875 289.852 532.827 289.99 532.814 290.085C532.778 290.336 532.954 290.614 533.063 290.757C533.368 291.162 533.815 291.441 534.258 291.502C534.322 291.511 534.385 291.515 534.449 291.515C535.186 291.515 535.857 290.941 535.916 290.517C535.99 289.986 535.219 289.632 534.472 289.528Z" fill="white"/>
<path id="Vector_19" d="M554.65 289.545C554.592 289.129 553.851 289.01 553.149 289.108C552.447 289.206 551.766 289.523 551.823 289.94C551.869 290.264 552.454 290.818 553.148 290.818C553.206 290.818 553.265 290.814 553.325 290.805C553.787 290.741 554.127 290.448 554.288 290.278C554.534 290.02 554.676 289.732 554.65 289.545Z" fill="white"/>
<path id="Vector_20" d="M566.228 307.369C565.97 306.59 565.141 306.339 563.762 306.624C559.67 307.468 558.205 306.883 557.724 306.529C560.904 301.683 563.521 295.826 564.932 290.362C565.601 287.773 565.971 285.369 566.001 283.41C566.034 281.259 565.668 279.678 564.912 278.713C561.866 274.821 557.396 272.733 551.985 272.676C548.264 272.634 545.121 273.586 544.512 273.854C543.229 273.534 541.83 273.339 540.307 273.314C537.514 273.268 535.1 273.937 533.101 275.3C532.233 274.977 529.989 274.207 527.246 273.765C522.502 273.001 518.733 273.579 516.043 275.485C512.833 277.759 511.351 281.824 511.638 287.567C511.735 289.499 512.835 295.443 514.573 301.135C516.86 308.627 519.345 312.868 521.961 313.74C522.267 313.842 522.62 313.914 523.009 313.914C523.963 313.914 525.133 313.484 526.35 312.02C528.372 309.588 530.259 307.55 530.955 306.81C531.983 307.362 533.113 307.67 534.268 307.701C534.27 307.731 534.273 307.761 534.276 307.791C534.044 308.066 533.854 308.307 533.692 308.513C532.891 309.529 532.725 309.741 530.148 310.271C529.415 310.422 527.468 310.824 527.44 312.188C527.409 313.679 529.741 314.305 530.007 314.372C530.933 314.603 531.825 314.718 532.675 314.718C534.744 314.718 536.565 314.038 538.02 312.722C537.975 318.037 538.197 323.274 538.835 324.87C539.358 326.176 540.634 329.369 544.668 329.369C545.259 329.369 545.911 329.3 546.628 329.146C550.837 328.244 552.665 326.383 553.372 322.282C553.75 320.09 554.4 314.855 554.705 312.048C555.35 312.249 556.179 312.341 557.076 312.341C558.947 312.341 561.106 311.943 562.46 311.315C563.981 310.609 566.725 308.875 566.228 307.369ZM556.204 288.396C556.19 289.225 556.076 289.978 555.955 290.763C555.825 291.608 555.69 292.482 555.656 293.542C555.623 294.574 555.752 295.647 555.876 296.684C556.128 298.779 556.386 300.936 555.386 303.065C555.231 302.789 555.081 302.488 554.943 302.154C554.819 301.853 554.549 301.369 554.175 300.699C552.721 298.09 549.315 291.983 551.058 289.491C551.578 288.749 552.895 287.986 556.204 288.396ZM552.194 274.354C557.042 274.461 560.878 276.275 563.593 279.745C565.676 282.407 563.382 294.517 556.743 304.965C556.678 304.882 556.611 304.798 556.542 304.711C556.514 304.677 556.486 304.642 556.458 304.606C558.173 301.773 557.838 298.97 557.539 296.484C557.417 295.464 557.301 294.501 557.33 293.596C557.361 292.636 557.488 291.814 557.61 291.018C557.761 290.038 557.914 289.024 557.872 287.828C557.904 287.703 557.916 287.555 557.9 287.379C557.792 286.232 556.483 282.801 553.814 279.694C552.355 277.996 550.227 276.094 547.32 274.812C548.57 274.553 550.28 274.312 552.194 274.354ZM525.062 310.95C523.721 312.562 522.795 312.253 522.491 312.151C520.507 311.489 518.205 307.296 516.175 300.646C514.418 294.892 513.392 289.106 513.311 287.483C513.054 282.352 514.298 278.776 517.008 276.854C521.418 273.726 528.669 275.598 531.582 276.548C531.54 276.589 531.496 276.628 531.455 276.67C526.674 281.498 526.788 289.747 526.799 290.251C526.799 290.446 526.815 290.721 526.838 291.1C526.92 292.488 527.073 295.07 526.664 297.994C526.284 300.712 527.122 303.372 528.962 305.292C529.152 305.491 529.351 305.677 529.557 305.853C528.737 306.73 526.957 308.67 525.062 310.95ZM530.171 304.133C528.688 302.585 528.014 300.433 528.323 298.226C528.755 295.137 528.595 292.447 528.51 291.001C528.498 290.799 528.487 290.622 528.481 290.482C529.179 289.863 532.416 288.128 534.724 288.657C535.777 288.898 536.419 289.616 536.686 290.849C538.067 297.236 536.869 299.898 535.906 302.038C535.707 302.478 535.52 302.895 535.36 303.326L535.236 303.659C534.922 304.501 534.629 305.285 534.448 306.028C532.871 306.023 531.337 305.35 530.171 304.133ZM530.413 312.747C529.953 312.632 529.539 312.432 529.296 312.266C529.499 312.171 529.86 312.041 530.486 311.912C533.517 311.288 533.985 310.847 535.008 309.549C535.242 309.252 535.508 308.914 535.876 308.503L535.876 308.503C536.424 307.889 536.675 307.993 537.129 308.182C537.498 308.334 537.857 308.796 538.002 309.304C538.071 309.544 538.148 310 537.895 310.354C535.76 313.344 532.648 313.306 530.413 312.747ZM546.277 327.509C542.568 328.303 541.255 326.411 540.39 324.248C539.832 322.852 539.557 316.555 539.752 309.601C539.755 309.508 539.741 309.419 539.716 309.335C539.694 309.173 539.66 309.009 539.612 308.844C539.323 307.832 538.617 306.985 537.771 306.635C537.434 306.495 536.817 306.239 536.075 306.429C536.233 305.777 536.508 305.041 536.805 304.244L536.93 303.909C537.07 303.531 537.247 303.139 537.433 302.725C538.441 300.487 539.82 297.421 538.323 290.495C537.762 287.901 535.889 286.635 533.049 286.929C531.347 287.105 529.789 287.792 529.012 288.186C528.845 288.27 528.693 288.352 528.55 288.432C528.767 285.818 529.586 280.933 532.65 277.843C534.579 275.897 537.149 274.937 540.279 274.988C546.447 275.089 550.403 278.255 552.635 280.893C554.559 283.166 555.6 285.455 556.016 286.69C552.89 286.372 550.764 286.99 549.686 288.53C547.341 291.882 550.969 298.388 552.712 301.514C553.032 302.087 553.308 302.583 553.395 302.793C553.962 304.169 554.697 305.087 555.234 305.758C555.398 305.964 555.558 306.163 555.679 306.337C554.733 306.61 553.032 307.24 553.187 310.393C553.062 311.975 552.173 319.381 551.721 321.997C551.125 325.454 549.853 326.742 546.277 327.509ZM561.755 309.796C560.787 310.245 559.166 310.582 557.627 310.654C555.927 310.734 555.062 310.464 554.858 310.298C554.763 308.334 555.494 308.128 556.268 307.911C556.389 307.877 556.508 307.843 556.623 307.803C556.694 307.861 556.772 307.919 556.857 307.975C558.223 308.877 560.661 308.974 564.101 308.264C564.114 308.261 564.126 308.259 564.139 308.257C563.675 308.69 562.881 309.273 561.755 309.796Z" fill="white"/>
</g>
</g>
<g id="FireBase">
<path id="BG_8" d="M742.181 14.469H691.537C683.767 14.469 677.469 20.7674 677.469 28.5368V79.1809C677.469 86.9503 683.767 93.2487 691.537 93.2487H742.181C749.95 93.2487 756.249 86.9503 756.249 79.1809V28.5368C756.249 20.7674 749.95 14.469 742.181 14.469Z" fill="white" fill-opacity="0.1"/>
<path id="Border_8" d="M742.181 14H691.537C683.508 14 677 20.5083 677 28.5367V79.1808C677 87.2092 683.508 93.7175 691.537 93.7175H742.181C750.209 93.7175 756.717 87.2092 756.717 79.1808V28.5367C756.717 20.5083 750.209 14 742.181 14Z" stroke="white" stroke-opacity="0.2" strokeWidth="0.937853"/>
<path id="FireBaseLogo" d="M696.727 63.044L702.641 24.999C702.684 24.717 702.815 24.456 703.015 24.252C703.215 24.049 703.474 23.914 703.755 23.866C704.036 23.818 704.325 23.861 704.581 23.987C704.837 24.113 705.047 24.317 705.18 24.569L711.54 36.501L696.727 63.044ZM738.731 72.276L733.099 37.264C733.057 37.019 732.949 36.789 732.786 36.601C732.624 36.413 732.412 36.273 732.175 36.197C731.938 36.121 731.685 36.111 731.443 36.169C731.201 36.227 730.979 36.351 730.803 36.526L695.288 72.276L714.939 83.35C715.545 83.691 716.228 83.87 716.923 83.87C717.619 83.87 718.302 83.691 718.908 83.35L738.731 72.276ZM722.762 41.723L718.21 33.015C718.095 32.796 717.923 32.612 717.711 32.484C717.5 32.356 717.257 32.289 717.01 32.289C716.762 32.289 716.52 32.356 716.308 32.484C716.097 32.612 715.924 32.796 715.809 33.015L695.826 68.824L722.762 41.723Z" fill="#FFCD32"/>
</g>
<g id="Azure">
<path id="BG_9" d="M564.181 13.469H513.537C505.767 13.469 499.469 19.7674 499.469 27.5368V78.1809C499.469 85.9503 505.767 92.2487 513.537 92.2487H564.181C571.95 92.2487 578.249 85.9503 578.249 78.1809V27.5368C578.249 19.7674 571.95 13.469 564.181 13.469Z" fill="white" fill-opacity="0.1"/>
<path id="Border_9" d="M564.181 13H513.537C505.508 13 499 19.5083 499 27.5367V78.1808C499 86.2092 505.508 92.7175 513.537 92.7175H564.181C572.209 92.7175 578.717 86.2092 578.717 78.1808V27.5367C578.717 19.5083 572.209 13 564.181 13Z" stroke="white" stroke-opacity="0.2" strokeWidth="0.937853"/>
<path id="AzureLogo" d="M537.148 73.0782L552.005 70.4512L552.142 70.4202L544.501 61.3277C541.938 58.2954 539.39 55.2512 536.855 52.1954C536.855 52.151 544.75 30.4117 544.794 30.3362C549.162 37.8136 553.501 45.3071 557.814 52.8166L570.904 75.5144L571.006 75.6875L522.424 75.6831L537.148 73.0782ZM507.994 70.3093C507.994 70.2959 511.593 64.0435 515.995 56.4154L524 42.5394L533.327 34.7116C538.457 30.4117 542.668 26.875 542.682 26.875C542.649 27.0063 542.599 27.133 542.535 27.2522L532.4 48.9782L522.46 70.3137L515.227 70.3226C511.246 70.327 507.994 70.3226 507.994 70.3093Z" fill="#0089D6"/>
</g>
<g id="MySQL">
<path id="BG_10" d="M742.181 292.469H691.537C683.767 292.469 677.469 298.767 677.469 306.537V357.181C677.469 364.95 683.767 371.249 691.537 371.249H742.181C749.95 371.249 756.249 364.95 756.249 357.181V306.537C756.249 298.767 749.95 292.469 742.181 292.469Z" fill="white" fill-opacity="0.1"/>
<path id="Border_10" d="M742.181 292H691.537C683.508 292 677 298.508 677 306.537V357.181C677 365.209 683.508 371.717 691.537 371.717H742.181C750.209 371.717 756.717 365.209 756.717 357.181V306.537C756.717 298.508 750.209 292 742.181 292Z" stroke="white" stroke-opacity="0.2" strokeWidth="0.937853"/>
<g id="MySQLGroup">
<path id="Vector_21" d="M699.468 352.06H696.95C696.861 347.81 696.616 343.815 696.215 340.071H696.192L692.359 352.06H690.442L686.632 340.071H686.61C686.327 343.665 686.149 347.662 686.075 352.06H683.78C683.928 346.711 684.3 341.697 684.894 337.017H688.014L691.646 348.07H691.669L695.323 337.017H698.309C698.963 342.499 699.349 347.514 699.468 352.06ZM710.387 340.961C709.362 346.524 708.009 350.566 706.331 353.089C705.023 355.031 703.59 356.004 702.03 356.004C701.614 356.004 701.1 355.878 700.492 355.629V354.288C700.79 354.33 701.138 354.355 701.539 354.355C702.268 354.355 702.854 354.154 703.3 353.752C703.835 353.263 704.102 352.713 704.102 352.104C704.102 351.687 703.894 350.833 703.478 349.541L700.715 340.961H703.189L705.172 347.378C705.617 348.835 705.803 349.852 705.729 350.432C706.813 347.536 707.571 344.378 708.002 340.96H710.387V340.961Z" fill="#5D87A1"/>
<path id="Vector_22" d="M743.901 352.06H736.749V337.017H739.155V350.208H743.901V352.06ZM734.877 352.423L732.112 351.059C732.357 350.857 732.591 350.639 732.802 350.387C733.978 349.006 734.564 346.964 734.564 344.259C734.564 339.283 732.611 336.793 728.704 336.793C726.788 336.793 725.293 337.425 724.225 338.688C723.05 340.07 722.464 342.104 722.464 344.794C722.464 347.439 722.983 349.379 724.023 350.609C724.974 351.724 726.408 352.282 728.325 352.282C729.041 352.282 729.697 352.194 730.295 352.017L733.895 354.113L734.877 352.423ZM725.919 349.05C725.309 348.07 725.005 346.496 725.005 344.327C725.005 340.539 726.156 338.643 728.459 338.643C729.663 338.643 730.546 339.097 731.11 340.002C731.718 340.983 732.024 342.542 732.024 344.682C732.024 348.5 730.873 350.41 728.571 350.41C727.366 350.41 726.483 349.958 725.919 349.05ZM721.415 347.89C721.415 349.166 720.947 350.212 720.012 351.032C719.076 351.849 717.821 352.258 716.248 352.258C714.777 352.258 713.35 351.788 711.969 350.853L712.616 349.561C713.804 350.156 714.88 350.452 715.846 350.452C716.752 350.452 717.46 350.251 717.974 349.852C718.487 349.452 718.793 348.892 718.793 348.182C718.793 347.288 718.17 346.525 717.027 345.885C715.973 345.306 713.864 344.095 713.864 344.095C712.721 343.262 712.149 342.368 712.149 340.895C712.149 339.676 712.576 338.691 713.429 337.943C714.284 337.191 715.387 336.816 716.739 336.816C718.136 336.816 719.405 337.191 720.548 337.931L719.968 339.223C718.99 338.808 718.025 338.6 717.073 338.6C716.302 338.6 715.706 338.785 715.292 339.158C714.875 339.528 714.618 340.003 714.618 340.585C714.618 341.474 715.254 342.248 716.428 342.9C717.497 343.48 719.658 344.711 719.658 344.711C720.83 345.543 721.415 346.429 721.415 347.89Z" fill="#F8981D"/>
<path id="Vector_23" d="M746.921 331.978C745.467 331.941 744.34 332.088 743.395 332.488C743.122 332.597 742.688 332.597 742.65 332.942C742.798 333.088 742.815 333.323 742.943 333.525C743.161 333.888 743.541 334.377 743.887 334.632C744.268 334.924 744.651 335.213 745.052 335.467C745.759 335.905 746.56 336.159 747.249 336.595C747.65 336.849 748.049 337.176 748.451 337.449C748.649 337.595 748.775 337.831 749.032 337.922V337.866C748.903 337.703 748.867 337.466 748.741 337.284L748.195 336.758C747.667 336.05 747.012 335.431 746.305 334.923C745.723 334.522 744.45 333.978 744.214 333.307L744.177 333.27C744.577 333.233 745.052 333.088 745.432 332.976C746.05 332.813 746.614 332.85 747.248 332.687C747.54 332.614 747.83 332.523 748.123 332.433V332.269C747.794 331.941 747.559 331.506 747.213 331.197C746.288 330.398 745.268 329.616 744.214 328.961C743.65 328.597 742.924 328.363 742.323 328.053C742.107 327.943 741.742 327.889 741.614 327.707C741.288 327.307 741.105 326.781 740.869 326.307C740.343 325.309 739.833 324.2 739.379 323.144C739.051 322.436 738.852 321.728 738.452 321.073C736.579 317.983 734.545 316.112 731.418 314.276C730.746 313.893 729.947 313.73 729.093 313.53L727.729 313.458C727.439 313.33 727.147 312.984 726.893 312.821C725.856 312.167 723.185 310.75 722.422 312.621C721.931 313.804 723.149 314.967 723.568 315.566C723.877 315.983 724.277 316.457 724.493 316.93C724.621 317.239 724.657 317.567 724.785 317.893C725.076 318.693 725.348 319.583 725.73 320.329C725.93 320.709 726.147 321.109 726.402 321.454C726.548 321.655 726.802 321.744 726.858 322.073C726.604 322.435 726.584 322.981 726.439 323.435C725.785 325.489 726.04 328.033 726.967 329.542C727.257 329.997 727.949 330.997 728.874 330.614C729.694 330.287 729.512 329.251 729.748 328.343C729.802 328.123 729.766 327.979 729.875 327.835V327.871C730.129 328.379 730.384 328.869 730.619 329.379C731.183 330.269 732.165 331.196 732.983 331.813C733.418 332.141 733.763 332.704 734.309 332.905V332.85H734.273C734.162 332.687 734.001 332.614 733.856 332.488C733.528 332.16 733.165 331.76 732.91 331.397C732.149 330.379 731.474 329.252 730.876 328.089C730.583 327.524 730.33 326.907 730.094 326.344C729.985 326.126 729.985 325.799 729.802 325.689C729.529 326.089 729.13 326.434 728.931 326.924C728.585 327.707 728.549 328.67 728.42 329.671L728.349 329.706C727.77 329.56 727.568 328.961 727.349 328.453C726.804 327.162 726.713 325.089 727.185 323.599C727.312 323.218 727.859 322.019 727.64 321.656C727.531 321.308 727.167 321.11 726.968 320.836C726.733 320.492 726.476 320.056 726.313 319.673C725.877 318.656 725.657 317.529 725.188 316.512C724.968 316.038 724.587 315.547 724.279 315.111C723.933 314.621 723.552 314.275 723.278 313.694C723.187 313.494 723.06 313.167 723.206 312.949C723.241 312.803 723.315 312.749 723.46 312.712C723.696 312.513 724.369 312.766 724.604 312.876C725.278 313.148 725.842 313.403 726.404 313.784C726.659 313.967 726.932 314.312 727.258 314.403H727.64C728.221 314.53 728.875 314.438 729.422 314.603C730.384 314.912 731.257 315.366 732.039 315.856C734.42 317.366 736.383 319.511 737.708 322.073C737.926 322.49 738.018 322.873 738.217 323.308C738.599 324.199 739.073 325.108 739.453 325.981C739.835 326.834 740.199 327.706 740.744 328.416C741.016 328.797 742.109 328.997 742.599 329.197C742.961 329.36 743.526 329.505 743.852 329.705C744.471 330.086 745.087 330.523 745.668 330.942C745.958 331.16 746.867 331.614 746.921 331.978ZM728.382 316.184C728.131 316.181 727.881 316.212 727.638 316.275V316.312H727.673C727.819 316.602 728.074 316.804 728.255 317.057C728.402 317.349 728.529 317.638 728.672 317.928L728.707 317.892C728.964 317.711 729.091 317.42 729.091 316.984C728.981 316.855 728.964 316.73 728.872 316.602C728.765 316.42 728.529 316.33 728.382 316.184Z" fill="#5D87A1"/>
<path id="Vector_24" d="M748.653 352.057H749.029V350.214H748.464L748.003 351.472L747.503 350.214H746.959V352.057H747.315V350.655H747.335L747.859 352.057H748.13L748.653 350.655V352.057ZM745.619 352.057H746.017V350.527H746.539V350.214H745.076V350.527H745.618L745.619 352.057Z" fill="#F8981D"/>
</g>
</g>
<g id="TypeScript">
<path id="BG_11" d="M226.709 603.469H164.071C159.873 603.469 156.469 606.873 156.469 611.071V673.709C156.469 677.908 159.873 681.311 164.071 681.311H226.709C230.908 681.311 234.311 677.908 234.311 673.709V611.071C234.311 606.873 230.908 603.469 226.709 603.469Z" fill="white" fill-opacity="0.1"/>
<path id="Border_11" d="M226.709 603H164.071C159.614 603 156 606.614 156 611.071V673.709C156 678.167 159.614 681.78 164.071 681.78H226.709C231.167 681.78 234.78 678.167 234.78 673.709V611.071C234.78 606.614 231.167 603 226.709 603Z" stroke="white" stroke-opacity="0.2" strokeWidth="0.937853"/>
<path id="TSName" fill-rule="evenodd" clip-rule="evenodd" d="M204.371 665.457V673.059C205.602 673.698 207.107 674.169 208.78 674.488C210.452 674.807 212.276 674.959 214.101 674.959C215.925 674.959 217.598 674.792 219.27 674.443C220.942 674.093 222.311 673.515 223.527 672.77C224.758 671.964 225.808 670.946 226.416 669.577C227.024 668.209 227.495 666.689 227.495 664.712C227.495 663.329 227.282 662.128 226.872 661.063C226.461 659.999 225.868 659.087 225.047 658.327C224.272 657.521 223.375 656.806 222.311 656.198C221.246 655.59 220.03 654.952 218.662 654.374C217.658 653.963 216.837 653.568 215.925 653.173C215.135 652.778 214.451 652.382 213.949 651.987C213.386 651.576 212.961 651.151 212.657 650.71C212.352 650.254 212.2 649.752 212.2 649.19C212.2 648.673 212.336 648.201 212.611 647.776C212.886 647.35 213.265 647 213.751 646.696C214.238 646.392 214.846 646.164 215.576 645.997C216.29 645.83 217.081 645.754 218.008 645.754C218.647 645.754 219.316 645.801 219.985 645.896C220.684 645.992 221.399 646.14 222.113 646.337C222.828 646.535 223.527 646.778 224.242 647.082C224.911 647.386 225.534 647.736 226.066 648.131V640.986C224.911 640.545 223.633 640.21 222.265 639.998C220.897 639.785 219.376 639.678 217.552 639.678C215.728 639.678 214.055 639.876 212.383 640.256C210.71 640.636 209.342 641.244 208.126 642.08C206.894 642.901 205.997 643.905 205.237 645.273C204.523 646.55 204.173 648.01 204.173 649.834C204.173 652.115 204.827 654.091 206.149 655.611C207.457 657.284 209.494 658.5 212.079 659.716C213.128 660.142 214.055 660.568 214.967 660.978C215.88 661.389 216.64 661.815 217.248 662.255C217.902 662.696 218.419 663.183 218.768 663.7C219.148 664.217 219.346 664.825 219.346 665.524C219.346 666.011 219.227 666.467 218.996 666.892C218.765 667.318 218.403 667.683 217.917 667.987C217.43 668.291 216.837 668.534 216.093 668.717C215.378 668.884 214.572 668.975 213.508 668.975C211.836 668.975 210.163 668.686 208.643 668.109C206.97 667.531 205.45 666.664 204.082 665.524L204.371 665.457ZM191.6 646.757H201.33V640.524H174.116V646.757H183.846V674.579H191.6V646.757Z" fill="#2F74C0"/>
</g>
<g id="GitHub">
<path id="BG_12" d="M100.181 54.469H49.5368C41.7673 54.469 35.469 60.7674 35.469 68.5368V119.181C35.469 126.95 41.7673 133.249 49.5368 133.249H100.181C107.95 133.249 114.249 126.95 114.249 119.181V68.5368C114.249 60.7674 107.95 54.469 100.181 54.469Z" fill="white" fill-opacity="0.1"/>
<path id="Border_12" d="M100.181 54H49.5367C41.5083 54 35 60.5083 35 68.5367V119.181C35 127.209 41.5083 133.717 49.5367 133.717H100.181C108.209 133.717 114.717 127.209 114.717 119.181V68.5367C114.717 60.5083 108.209 54 100.181 54Z" stroke="white" stroke-opacity="0.2" strokeWidth="0.937853"/>
<path id="GitHubLogo" d="M74.935 67.335C59.867 67.335 47.66 79.552 47.66 94.61C47.66 106.667 55.475 116.886 66.304 120.492C67.673 120.749 68.168 119.905 68.168 119.176C68.168 118.528 68.152 116.815 68.142 114.541C60.551 116.184 58.952 110.874 58.952 110.874C57.709 107.73 55.916 106.887 55.916 106.887C53.448 105.201 56.112 105.237 56.112 105.237C58.846 105.422 60.285 108.041 60.285 108.041C62.718 112.214 66.667 111.007 68.231 110.305C68.469 108.547 69.18 107.338 69.954 106.665C63.899 105.981 57.532 103.638 57.532 93.186C57.532 90.201 58.589 87.771 60.336 85.861C60.035 85.178 59.111 82.399 60.577 78.642C60.577 78.642 62.859 77.914 68.077 81.439C70.261 80.834 72.579 80.533 74.896 80.517C77.214 80.533 79.5311 80.836 81.7141 81.439C86.9021 77.914 89.183 78.642 89.183 78.642C90.647 82.399 89.723 85.176 89.457 85.861C91.187 87.771 92.244 90.203 92.244 93.186C92.244 103.661 85.869 105.971 79.807 106.638C80.755 107.454 81.643 109.133 81.643 111.682C81.643 115.33 81.609 118.269 81.609 119.157C81.609 119.866 82.086 120.718 83.491 120.444C94.401 116.876 102.206 106.648 102.206 94.608C102.206 79.551 89.999 67.333 74.932 67.333L74.935 67.335Z" fill="white"/>
</g>
<g id="Git">
<path id="BG_13" d="M287.181 54.469H236.537C228.767 54.469 222.469 60.7674 222.469 68.5368V119.181C222.469 126.95 228.767 133.249 236.537 133.249H287.181C294.95 133.249 301.249 126.95 301.249 119.181V68.5368C301.249 60.7674 294.95 54.469 287.181 54.469Z" fill="white" fill-opacity="0.1"/>
<path id="Border_13" d="M287.181 54H236.537C228.508 54 222 60.5083 222 68.5367V119.181C222 127.209 228.508 133.717 236.537 133.717H287.181C295.209 133.717 301.717 127.209 301.717 119.181V68.5367C301.717 60.5083 295.209 54 287.181 54Z" stroke="white" stroke-opacity="0.2" strokeWidth="0.937853"/>
<path id="LogoGit2" d="M231.898 97.7239C230.117 95.9433 230.117 93.0567 231.898 91.2761L259.276 63.8979C261.057 62.1174 263.943 62.1174 265.724 63.8979L293.102 91.2761C294.883 93.0567 294.883 95.9433 293.102 97.7239L265.724 125.102C263.943 126.883 261.057 126.883 259.276 125.102L231.898 97.7239Z" fill="#EE513B"/>
<path id="LogoGit1" d="M253.715 69.5466L250.942 72.3191L258.103 79.4797C257.813 80.1012 257.651 80.7943 257.651 81.5252C257.651 83.6002 258.955 85.3707 260.788 86.0621V103.579C258.955 104.27 257.651 106.041 257.651 108.116C257.651 110.793 259.822 112.964 262.499 112.964C265.176 112.964 267.347 110.793 267.347 108.116C267.347 106.235 266.275 104.604 264.709 103.8V86.0861L271.554 92.931C271.278 93.5398 271.125 94.2158 271.125 94.9275C271.125 97.6048 273.296 99.7752 275.973 99.7752C278.65 99.7752 280.82 97.6048 280.82 94.9275C280.82 92.2502 278.65 90.0799 275.973 90.0799C275.452 90.0799 274.952 90.1618 274.482 90.3135L267.13 82.9621C267.271 82.5082 267.347 82.0254 267.347 81.5252C267.347 78.8478 265.176 76.6775 262.499 76.6775C261.999 76.6775 261.516 76.7533 261.062 76.894L253.715 69.5466Z" fill="white"/>
</g>
<g id="Vite">
<path id="BG_14" d="M101.181 296.469H50.5368C42.7674 296.469 36.469 302.767 36.469 310.537V361.181C36.469 368.95 42.7674 375.249 50.5368 375.249H101.181C108.95 375.249 115.249 368.95 115.249 361.181V310.537C115.249 302.767 108.95 296.469 101.181 296.469Z" fill="white" fill-opacity="0.1"/>
<path id="Border_14" d="M101.181 296H50.5367C42.5083 296 36 302.508 36 310.537V361.181C36 369.209 42.5083 375.717 50.5367 375.717H101.181C109.209 375.717 115.717 369.209 115.717 361.181V310.537C115.717 302.508 109.209 296 101.181 296Z" stroke="white" stroke-opacity="0.2" strokeWidth="0.937853"/>
<path id="FondoVite" d="M100.891 318.973L77.684 360.471C77.205 361.328 75.974 361.333 75.487 360.48L51.82 318.977C51.29 318.048 52.085 316.922 53.138 317.111L76.37 321.263C76.518 321.29 76.67 321.289 76.818 321.262L99.564 317.116C100.613 316.925 101.411 318.042 100.891 318.973Z" fill="url(#paint0_linear_3_97)"/>
<path id="LogoVite" d="M87.436 311.664L70.262 315.029C70.125 315.056 70.001 315.128 69.909 315.233C69.817 315.338 69.762 315.471 69.754 315.611L68.698 333.453C68.692 333.551 68.709 333.649 68.747 333.739C68.786 333.829 68.845 333.909 68.92 333.972C68.995 334.035 69.083 334.08 69.179 334.103C69.274 334.126 69.373 334.127 69.469 334.105L74.25 333.001C74.698 332.898 75.102 333.292 75.01 333.742L73.589 340.698C73.494 341.167 73.933 341.567 74.39 341.428L77.344 340.531C77.802 340.392 78.242 340.793 78.145 341.262L75.887 352.188C75.746 352.872 76.655 353.245 77.034 352.659L77.287 352.267L91.282 324.339C91.516 323.872 91.112 323.339 90.598 323.438L85.676 324.388C85.214 324.477 84.821 324.046 84.951 323.594L88.163 312.458C88.294 312.004 87.899 311.573 87.436 311.664Z" fill="url(#paint1_linear_3_97)"/>
</g>
<g id="Sass">
<path id="BG_15" d="M465.181 393.469H414.537C406.767 393.469 400.469 399.767 400.469 407.537V458.181C400.469 465.95 406.767 472.249 414.537 472.249H465.181C472.95 472.249 479.249 465.95 479.249 458.181V407.537C479.249 399.767 472.95 393.469 465.181 393.469Z" fill="white" fill-opacity="0.1"/>
<path id="Border_15" d="M465.181 393H414.537C406.508 393 400 399.508 400 407.537V458.181C400 466.209 406.508 472.717 414.537 472.717H465.181C473.209 472.717 479.717 466.209 479.717 458.181V407.537C479.717 399.508 473.209 393 465.181 393Z" stroke="white" stroke-opacity="0.2" strokeWidth="0.937853"/>
<path id="SassLogo" d="M462.748 433.537C460.769 433.54 458.817 433.992 457.039 434.86C456.483 433.936 456.053 432.942 455.761 431.904C455.594 431.09 455.555 430.254 455.647 429.429C455.839 428.52 456.088 427.624 456.394 426.747C456.382 426.632 456.256 426.09 454.99 426.072C453.723 426.054 452.632 426.312 452.515 426.648C452.295 427.26 452.118 427.887 451.986 428.524C450.937 431.11 449.647 433.592 448.132 435.936C447.282 434.544 446.933 432.904 447.142 431.287C447.334 430.378 447.583 429.482 447.889 428.605C447.877 428.49 447.751 427.948 446.485 427.93C445.218 427.912 444.127 428.171 444.01 428.506C443.893 428.841 443.744 429.631 443.481 430.383C443.218 431.134 440.144 438.001 439.339 439.772C438.925 440.672 438.567 441.405 438.315 441.9C438.303 441.932 438.288 441.963 438.27 441.993C438.045 442.418 437.926 442.65 437.926 442.65V442.661C437.752 442.971 437.568 443.259 437.476 443.259C437.315 442.616 437.322 441.943 437.498 441.304C437.948 438.921 439.051 435.218 439.039 435.09C439.039 435.02 439.246 434.376 438.326 434.043C438.113 433.942 437.873 433.909 437.64 433.949C437.407 433.989 437.192 434.101 437.026 434.268C436.945 434.268 436.888 434.464 436.888 434.464C436.888 434.464 437.89 430.299 434.978 430.299C433.844 430.527 432.767 430.98 431.811 431.63C430.855 432.28 430.038 433.115 429.409 434.086C428.626 434.511 426.959 435.42 425.175 436.399C424.5 436.779 423.793 437.16 423.139 437.524C423.094 437.479 423.046 437.421 423.001 437.376C419.458 433.6 412.944 430.936 413.225 425.885C413.329 424.044 413.961 419.211 425.733 413.341C435.421 408.567 443.132 409.89 444.466 412.824C446.377 417.013 440.335 424.791 430.325 425.919C429.218 426.143 428.074 426.116 426.978 425.839C425.883 425.562 424.863 425.043 423.996 424.319C423.467 423.743 423.386 423.709 423.19 423.824C422.869 423.997 423.076 424.515 423.19 424.814C423.572 425.505 424.089 426.112 424.709 426.6C425.33 427.089 426.042 427.447 426.804 427.656C430.742 428.507 434.848 428.1 438.542 426.492C444.617 424.146 449.342 417.621 447.956 412.155C446.563 406.609 437.359 404.78 428.647 407.88C423.19 409.716 418.148 412.609 413.808 416.392C409.009 420.881 408.25 424.78 408.561 426.416C409.686 432.216 417.676 435.99 420.873 438.791C420.711 438.883 420.562 438.964 420.436 439.032C418.837 439.826 412.739 443.014 411.211 446.385C409.486 450.21 411.488 452.943 412.811 453.312C414.805 453.789 416.897 453.632 418.797 452.863C420.697 452.093 422.309 450.749 423.409 449.019C424.345 447.584 424.92 445.944 425.086 444.239C425.252 442.534 425.003 440.813 424.36 439.225C424.349 439.199 424.334 439.176 424.315 439.155L425.569 438.42C426.385 437.936 427.191 437.488 427.882 437.119C427.413 438.47 427.138 439.88 427.065 441.309C426.906 443.497 427.576 445.666 428.941 447.384C429.149 447.562 429.39 447.698 429.651 447.783C429.912 447.868 430.187 447.901 430.46 447.879C431.81 447.879 432.429 446.754 433.106 445.417C433.934 443.784 434.681 441.885 434.681 441.885C434.681 441.885 433.75 447.017 436.281 447.017C437.201 447.017 438.133 445.82 438.549 445.217V445.228C438.549 445.228 438.571 445.194 438.619 445.113L438.767 444.873V444.85C439.136 444.207 439.964 442.744 441.195 440.316C442.783 437.187 444.313 433.274 444.313 433.274C444.461 434.134 444.665 434.983 444.923 435.816C445.294 436.826 445.732 437.81 446.235 438.762C445.866 439.279 445.636 439.567 445.636 439.567L445.648 439.578C445.348 439.97 445.027 440.395 444.669 440.809C443.604 441.979 442.617 443.217 441.712 444.515C441.578 444.733 441.532 444.994 441.583 445.245C441.635 445.495 441.78 445.717 441.989 445.865C442.463 446.111 443.003 446.2 443.53 446.119C444.326 446.074 445.107 445.895 445.843 445.59C446.554 445.34 447.225 444.988 447.835 444.544C448.463 444.109 448.968 443.519 449.303 442.832C449.638 442.145 449.79 441.383 449.745 440.62C449.674 439.659 449.428 438.719 449.02 437.846C449.135 437.684 449.245 437.524 449.353 437.362C450.632 435.453 451.785 433.462 452.805 431.402C452.952 432.262 453.156 433.111 453.415 433.944C453.72 434.817 454.096 435.664 454.54 436.476C453.068 437.608 451.909 439.096 451.171 440.8C450.447 442.895 451.009 443.838 452.071 444.056C452.652 444.096 453.233 443.977 453.752 443.712C454.514 443.461 455.233 443.092 455.881 442.618C456.564 442.215 457.136 441.648 457.545 440.969C457.955 440.29 458.189 439.52 458.227 438.728C458.176 437.937 457.998 437.16 457.699 436.426C459.64 435.667 461.746 435.425 463.81 435.724C469.286 436.368 470.368 439.785 470.161 441.225C470.064 441.736 469.859 442.22 469.559 442.644C469.26 443.069 468.873 443.424 468.424 443.687C468.044 443.928 467.918 444.009 467.952 444.182C467.997 444.436 468.177 444.423 468.503 444.378C469.328 444.121 470.057 443.62 470.592 442.941C471.127 442.263 471.443 441.438 471.5 440.575C471.673 437.2 468.451 433.499 462.754 433.533L462.748 433.537ZM420.493 447.775C418.675 449.755 416.143 450.502 415.05 449.87C413.875 449.195 414.337 446.27 416.569 444.173C417.893 442.981 419.324 441.914 420.844 440.985C421.109 440.823 421.501 440.593 421.969 440.31L422.095 440.24L422.371 440.067C422.77 441.403 422.806 442.821 422.476 444.175C422.146 445.53 421.461 446.772 420.493 447.775ZM433.725 438.775C433.093 440.316 431.77 444.265 430.964 444.045C430.273 443.86 429.839 440.868 430.827 437.911C431.325 436.488 432.052 435.155 432.978 433.965C433.968 432.86 435.061 432.491 435.325 432.941C435.084 434.954 434.545 436.921 433.725 438.775ZM444.644 444C444.379 444.137 444.127 444.225 444.012 444.162C443.931 444.117 444.127 443.937 444.127 443.937C444.127 443.937 445.497 442.463 446.037 441.797C446.347 441.405 446.712 440.946 447.108 440.427V440.575C447.108 442.335 445.405 443.52 444.646 444.004L444.644 444ZM453.068 442.078C452.872 441.941 452.906 441.48 453.563 440.042C454.02 439.118 454.658 438.297 455.44 437.625C455.559 437.966 455.622 438.324 455.624 438.685C455.633 439.453 455.387 440.203 454.925 440.817C454.463 441.432 453.811 441.876 453.07 442.08L453.068 442.078Z" fill="#CD6799"/>
</g>
<g id="HTML">
<path id="BG_16" d="M406.181 805.468H355.537C347.767 805.468 341.469 811.766 341.469 819.536V870.18C341.469 877.949 347.767 884.248 355.537 884.248H406.181C413.95 884.248 420.249 877.949 420.249 870.18V819.536C420.249 811.766 413.95 805.468 406.181 805.468Z" fill="white" fill-opacity="0.1"/>
<path id="Border_16" d="M406.181 805H355.537C347.508 805 341 811.508 341 819.537V870.181C341 878.209 347.508 884.718 355.537 884.718H406.181C414.209 884.718 420.717 878.209 420.717 870.181V819.537C420.717 811.508 414.209 805 406.181 805Z" stroke="white" stroke-opacity="0.2" strokeWidth="0.937853"/>
<g id="HTMLGruop">
<path id="Vector_25" d="M359.732 869.076L355 816H407L402.261 869.068L380.968 874.971L359.732 869.076Z" fill="#E44F26"/>
<path id="Vector_26" d="M381 870.46L398.207 865.69L402.255 820.341H381V870.46Z" fill="#F1662A"/>
<path id="Vector_27" d="M381 840.024H372.386L371.792 833.359H381V826.849H380.977H364.678L364.833 828.597L366.432 846.534H381V840.024Z" fill="#EBEBEB"/>
<path id="Vector_28" d="M381 856.93L380.971 856.939L373.721 854.982L373.258 849.791H369.734H366.723L367.635 860.009L380.971 863.712L381 863.704V856.93Z" fill="#EBEBEB"/>
<path id="Vector_29" d="M380.977 840.024V846.534H388.993L388.239 854.978L380.977 856.937V863.71L394.323 860.009L394.42 858.91L395.949 841.773L396.109 840.024H394.355H380.977Z" fill="white"/>
<path id="Vector_30" d="M380.977 826.849V830.892V833.344V833.359H396.68H396.701L396.832 831.897L397.129 828.597L397.285 826.849H380.977Z" fill="white"/>
</g>
</g>
<g id="Tailwind">
<path id="BG_17" d="M326.243 499.469H276.537C268.767 499.469 262.469 505.767 262.469 513.537V563.243C262.469 571.013 268.767 577.311 276.537 577.311H326.243C334.013 577.311 340.311 571.013 340.311 563.243V513.537C340.311 505.767 334.013 499.469 326.243 499.469Z" fill="white" fill-opacity="0.1"/>
<path id="Border_17" d="M326.243 499H276.537C268.509 499 262 505.508 262 513.537V563.243C262 571.272 268.509 577.78 276.537 577.78H326.243C334.272 577.78 340.78 571.272 340.78 563.243V513.537C340.78 505.508 334.272 499 326.243 499Z" stroke="white" stroke-opacity="0.2" strokeWidth="0.937853"/>
<path id="TailwindLogo" d="M285.688 532.969C287.729 524.802 292.833 520.719 301 520.719C313.25 520.719 314.781 529.906 320.906 531.437C324.99 532.458 328.563 530.927 331.625 526.844C329.583 535.01 324.479 539.094 316.312 539.094C304.063 539.094 302.531 529.906 296.406 528.375C292.323 527.354 288.75 528.885 285.688 532.969ZM270.375 551.344C272.417 543.177 277.521 539.094 285.688 539.094C297.937 539.094 299.469 548.281 305.594 549.812C309.677 550.833 313.25 549.302 316.312 545.219C314.271 553.385 309.167 557.469 301 557.469C288.75 557.469 287.219 548.281 281.094 546.75C277.01 545.729 273.437 547.26 270.375 551.344Z" fill="#4FAEB6"/>
</g>
<g id=".NET">
<path id="Vector_31" d="M749.243 726.469H699.537C691.767 726.469 685.469 732.767 685.469 740.537V790.243C685.469 798.013 691.767 804.311 699.537 804.311H749.243C757.013 804.311 763.311 798.013 763.311 790.243V740.537C763.311 732.767 757.013 726.469 749.243 726.469Z" fill="white" fill-opacity="0.1"/>
<path id="Vector_32" d="M749.243 726H699.537C691.509 726 685 732.508 685 740.537V790.243C685 798.272 691.509 804.78 699.537 804.78H749.243C757.272 804.78 763.78 798.272 763.78 790.243V740.537C763.78 732.508 757.272 726 749.243 726Z" stroke="white" stroke-opacity="0.2" strokeWidth="0.937853"/>
<g id="dotnet-svgrepo-com 1">
<path id="Vector_33" d="M699.152 774.015C699.15 774.575 698.913 775.079 698.535 775.435H698.534C698.146 775.8 697.623 776.022 697.047 776.022C696.472 776.022 695.947 775.798 695.558 775.433L695.559 775.435C695.182 775.079 694.945 774.575 694.945 774.017C694.945 773.459 695.182 772.953 695.561 772.599C695.949 772.235 696.474 772.012 697.049 772.012C697.625 772.012 698.148 772.235 698.537 772.601L698.535 772.599C698.913 772.955 699.15 773.459 699.152 774.019V774.015ZM720.224 775.693H716.452L706.52 760.023C706.291 759.67 706.08 759.263 705.912 758.835L705.894 758.788H705.807C705.886 759.496 705.931 760.313 705.931 761.142C705.931 761.344 705.929 761.545 705.923 761.747V761.718V775.693H702.589V754.375H706.605L716.205 769.677C716.61 770.309 716.872 770.747 716.988 770.985H717.046C716.949 770.26 716.895 769.423 716.895 768.573C716.895 768.412 716.897 768.253 716.901 768.092V768.115V754.373H720.224V775.693ZM736.464 775.693H724.791V754.375H736.001V757.378H728.241V763.417H735.391V766.405H728.241V772.709H736.464V775.693ZM753.055 757.378H747.08V775.695H743.629V757.378H737.667V754.375H753.053L753.055 757.378Z" fill="white"/>
</g>
</g>
<g id="C#">
<path id="BG_18" d="M591.243 805.469H541.537C533.767 805.469 527.469 811.767 527.469 819.537V869.243C527.469 877.013 533.767 883.311 541.537 883.311H591.243C599.013 883.311 605.311 877.013 605.311 869.243V819.537C605.311 811.767 599.013 805.469 591.243 805.469Z" fill="white" fill-opacity="0.1"/>
<path id="Border_18" d="M591.243 805H541.537C533.509 805 527 811.508 527 819.537V869.243C527 877.272 533.509 883.78 541.537 883.78H591.243C599.272 883.78 605.78 877.272 605.78 869.243V819.537C605.78 811.508 599.272 805 591.243 805Z" stroke="white" stroke-opacity="0.2" strokeWidth="0.937853"/>
<g id="Group_2">
<path id="Vector_34" d="M591.912 832.207C591.912 831.234 591.702 830.375 591.278 829.637C590.861 828.912 590.237 828.304 589.4 827.823C582.488 823.871 575.57 819.932 568.661 815.976C566.798 814.91 564.993 814.949 563.144 816.031C560.393 817.639 546.62 825.463 542.516 827.821C540.826 828.791 540.003 830.276 540.003 832.205C540 840.152 540.003 848.099 540 856.045C540 856.997 540.201 857.84 540.607 858.567C541.024 859.314 541.657 859.939 542.513 860.43C546.618 862.787 560.393 870.611 563.143 872.22C564.992 873.302 566.798 873.341 568.662 872.274C575.571 868.319 582.489 864.379 589.402 860.428C590.258 859.937 590.891 859.311 591.308 858.565C591.713 857.838 591.915 856.995 591.915 856.043C591.915 856.043 591.915 840.154 591.912 832.207Z" fill="#A47DDD"/>
<path id="Vector_35" d="M566.037 844.048L540.607 858.567C541.024 859.314 541.657 859.939 542.513 860.43C546.618 862.788 560.392 870.611 563.143 872.22C564.992 873.302 566.798 873.341 568.662 872.274C575.571 868.319 582.489 864.379 589.402 860.428C590.258 859.937 590.891 859.311 591.308 858.565L566.037 844.048Z" fill="#2F086D"/>
<path id="Vector_36" d="M591.912 832.207C591.912 831.234 591.702 830.375 591.278 829.637L566.037 844.048L591.308 858.565C591.713 857.838 591.915 856.995 591.915 856.043C591.915 856.043 591.915 840.154 591.912 832.207Z" fill="#3F0894"/>
<path id="Vector_37" d="M581.009 838.621V841.334H583.746V838.621H585.115V841.334H587.851V842.691H585.115V845.405H587.851V846.762H585.115V849.476H583.746V846.762H581.009V849.476H579.641V846.762H576.904V845.405H579.641V842.691H576.904V841.334H579.641V838.621H581.009ZM583.746 842.691H581.009V845.405H583.746V842.691Z" fill="white"/>
<path id="Vector_38" d="M566.093 824.991C573.231 824.991 579.464 828.836 582.802 834.55L582.77 834.495L574.371 839.29C572.716 836.512 569.682 834.637 566.202 834.598L566.093 834.598C560.786 834.598 556.484 838.863 556.484 844.125C556.484 845.846 556.946 847.459 557.751 848.852C559.407 851.719 562.521 853.653 566.093 853.653C569.687 853.653 572.818 851.695 574.466 848.797L574.426 848.867L582.812 853.684C579.51 859.35 573.363 863.182 566.308 863.258L566.093 863.259C558.932 863.259 552.681 859.392 549.352 853.647C547.726 850.843 546.796 847.592 546.796 844.125C546.796 833.558 555.435 824.991 566.093 824.991Z" fill="white"/>
</g>
</g>
<g id="NextJS">
<path id="BG_19" d="M221.181 190.469H170.537C162.767 190.469 156.469 196.767 156.469 204.537V255.181C156.469 262.95 162.767 269.249 170.537 269.249H221.181C228.95 269.249 235.249 262.95 235.249 255.181V204.537C235.249 196.767 228.95 190.469 221.181 190.469Z" fill="white" fill-opacity="0.1"/>
<path id="Border_19" d="M221.181 190H170.537C162.508 190 156 196.508 156 204.537V255.181C156 263.209 162.508 269.717 170.537 269.717H221.181C229.209 269.717 235.717 263.209 235.717 255.181V204.537C235.717 196.508 229.209 190 221.181 190Z" stroke="white" stroke-opacity="0.2" strokeWidth="0.937853"/>
<path id="NextJSLogo" d="M194.83 205.014C194.72 205.024 194.371 205.059 194.057 205.084C186.813 205.737 180.028 209.645 175.731 215.652C173.338 218.993 171.808 222.781 171.229 226.795C171.025 228.196 171 228.609 171 230.509C171 232.408 171.025 232.822 171.229 234.223C172.615 243.8 179.43 251.846 188.673 254.827C190.328 255.361 192.073 255.725 194.057 255.944C194.83 256.029 198.17 256.029 198.943 255.944C202.368 255.565 205.269 254.718 208.131 253.257C208.57 253.032 208.654 252.973 208.594 252.923C208.554 252.893 206.685 250.385 204.442 247.354L200.364 241.845L195.254 234.283C192.442 230.125 190.129 226.725 190.109 226.725C190.089 226.72 190.069 230.08 190.059 234.183C190.044 241.367 190.039 241.656 189.949 241.825C189.82 242.07 189.72 242.169 189.511 242.279C189.351 242.359 189.211 242.374 188.459 242.374H187.596L187.367 242.229C187.217 242.135 187.108 242.01 187.033 241.865L186.928 241.641L186.938 231.645L186.953 221.645L187.108 221.45C187.187 221.346 187.357 221.211 187.477 221.146C187.681 221.047 187.761 221.037 188.623 221.037C189.64 221.037 189.81 221.076 190.074 221.366C190.149 221.445 192.916 225.613 196.226 230.633C199.536 235.654 204.063 242.508 206.286 245.874L210.324 251.991L210.529 251.856C212.338 250.679 214.253 249.004 215.768 247.259C218.994 243.555 221.073 239.039 221.771 234.223C221.975 232.822 222 232.408 222 230.509C222 228.609 221.975 228.196 221.771 226.795C220.385 217.218 213.57 209.172 204.327 206.19C202.697 205.662 200.962 205.298 199.018 205.079C198.539 205.029 195.244 204.974 194.83 205.014ZM205.269 220.438C205.509 220.558 205.703 220.787 205.773 221.027C205.813 221.156 205.823 223.928 205.813 230.175L205.798 239.138L204.217 236.715L202.632 234.293V227.777C202.632 223.564 202.652 221.196 202.682 221.081C202.762 220.802 202.936 220.583 203.175 220.453C203.38 220.349 203.454 220.339 204.237 220.339C204.975 220.339 205.105 220.349 205.269 220.438Z" fill="white"/>
</g>
<g id="PHP">
<path id="BG_20" d="M749.243 573.469H699.537C691.767 573.469 685.469 579.767 685.469 587.537V637.243C685.469 645.013 691.767 651.311 699.537 651.311H749.243C757.013 651.311 763.311 645.013 763.311 637.243V587.537C763.311 579.767 757.013 573.469 749.243 573.469Z" fill="white" fill-opacity="0.1"/>
<path id="Border_20" d="M749.243 573H699.537C691.509 573 685 579.508 685 587.537V637.243C685 645.272 691.509 651.78 699.537 651.78H749.243C757.272 651.78 763.78 645.272 763.78 637.243V587.537C763.78 579.508 757.272 573 749.243 573Z" stroke="white" stroke-opacity="0.2" strokeWidth="0.937853"/>
<path id="Vector_39" d="M713.487 606.744C712.03 605.076 709.711 604.242 706.533 604.242H695.967L691.065 629.464H696.559L697.863 622.758H702.569C704.645 622.758 706.354 622.541 707.695 622.103C709.036 621.668 710.255 620.936 711.352 619.909C712.273 619.063 713.017 618.13 713.588 617.109C714.158 616.089 714.563 614.963 714.802 613.731C715.383 610.741 714.945 608.413 713.487 606.744ZM709.123 613.346C708.743 615.298 708.012 616.691 706.928 617.526C705.843 618.361 704.193 618.778 701.979 618.778H698.636L700.688 608.222H704.452C706.54 608.222 707.931 608.607 708.626 609.378C709.321 610.149 709.487 611.471 709.123 613.346ZM735.208 611.021L732.927 622.758H727.39L729.558 611.599C729.805 610.329 729.714 609.463 729.286 609.002C728.857 608.54 727.945 608.309 726.551 608.309H722.194L719.386 622.758H713.935L718.837 597.536H724.288L722.985 604.242H727.841C730.897 604.242 733.004 604.775 734.164 605.841C735.324 606.907 735.672 608.634 735.208 611.021ZM756.371 606.744C754.914 605.076 752.595 604.242 749.417 604.242H738.852L733.95 629.464H739.444L740.747 622.758H745.453C747.53 622.758 749.238 622.541 750.579 622.103C751.92 621.668 753.139 620.936 754.236 619.909C755.157 619.063 755.902 618.13 756.472 617.109C757.042 616.089 757.446 614.963 757.686 613.731C758.267 610.741 757.829 608.413 756.371 606.744ZM752.007 613.346C751.628 615.298 750.896 616.691 749.812 617.526C748.728 618.361 747.077 618.778 744.862 618.778H741.521L743.572 608.222H747.336C749.424 608.222 750.815 608.607 751.511 609.378C752.206 610.149 752.371 611.471 752.007 613.346Z" fill="#7477B0"/>
</g>
<g id="Laravel">
<path id="BG_21" d="M644.243 448.469H594.537C586.767 448.469 580.469 454.767 580.469 462.537V512.243C580.469 520.013 586.767 526.311 594.537 526.311H644.243C652.013 526.311 658.311 520.013 658.311 512.243V462.537C658.311 454.767 652.013 448.469 644.243 448.469Z" fill="white" fill-opacity="0.1"/>
<path id="Border_21" d="M644.243 448H594.537C586.509 448 580 454.508 580 462.537V512.243C580 520.272 586.509 526.78 594.537 526.78H644.243C652.272 526.78 658.78 520.272 658.78 512.243V462.537C658.78 454.508 652.272 448 644.243 448Z" stroke="white" stroke-opacity="0.2" strokeWidth="0.937853"/>
<path id="LogoLaravel" d="M650.027 470.002C650.049 470.084 650.061 470.169 650.061 470.255V483.54C650.061 483.887 649.875 484.207 649.574 484.38L638.424 490.8V503.524C638.424 503.87 638.24 504.19 637.939 504.364L614.664 517.763C614.611 517.793 614.553 517.813 614.494 517.833C614.473 517.84 614.452 517.854 614.429 517.86C614.266 517.903 614.095 517.903 613.933 517.86C613.906 517.853 613.882 517.838 613.856 517.828C613.803 517.809 613.747 517.792 613.697 517.763L590.426 504.364C590.125 504.191 589.939 503.871 589.939 503.524V463.669C589.939 463.582 589.952 463.497 589.973 463.415C589.981 463.387 589.998 463.362 590.007 463.334C590.025 463.283 590.042 463.231 590.069 463.184C590.087 463.152 590.114 463.127 590.136 463.098C590.163 463.059 590.189 463.019 590.222 462.985C590.249 462.957 590.286 462.937 590.317 462.912C590.352 462.883 590.384 462.852 590.424 462.829H590.425L602.061 456.129C602.361 455.957 602.73 455.957 603.029 456.129L614.665 462.829H614.668C614.706 462.853 614.739 462.883 614.774 462.911C614.806 462.935 614.841 462.957 614.869 462.984C614.903 463.019 614.927 463.059 614.956 463.098C614.976 463.127 615.004 463.152 615.021 463.184C615.049 463.232 615.065 463.283 615.084 463.334C615.094 463.362 615.111 463.387 615.118 463.416C615.14 463.499 615.152 463.584 615.152 463.669V488.562L624.848 482.979V470.253C624.848 470.169 624.86 470.083 624.882 470.002C624.89 469.973 624.906 469.947 624.916 469.919C624.935 469.868 624.952 469.816 624.979 469.769C624.997 469.738 625.024 469.712 625.044 469.683C625.073 469.644 625.097 469.604 625.131 469.571C625.159 469.543 625.194 469.522 625.226 469.498C625.262 469.469 625.294 469.437 625.332 469.414H625.334L636.971 462.715C637.27 462.542 637.639 462.542 637.939 462.715L649.575 469.414C649.616 469.439 649.648 469.469 649.684 469.497C649.714 469.521 649.749 469.543 649.777 469.569C649.811 469.604 649.835 469.644 649.864 469.683C649.886 469.712 649.913 469.738 649.93 469.769C649.958 469.816 649.973 469.868 649.993 469.919C650.004 469.947 650.019 469.973 650.027 470.002ZM648.121 482.979V471.932L644.049 474.276L638.424 477.515V488.562L648.122 482.979H648.121ZM636.485 502.963V491.909L630.952 495.069L615.151 504.087V515.246L636.485 502.963ZM591.879 465.346V502.963L613.211 515.244V504.088L602.067 497.781L602.063 497.779L602.058 497.776C602.021 497.754 601.989 497.723 601.954 497.696C601.924 497.672 601.889 497.653 601.862 497.626L601.86 497.622C601.828 497.592 601.806 497.555 601.78 497.521C601.756 497.488 601.727 497.46 601.707 497.426L601.706 497.423C601.684 497.386 601.671 497.343 601.655 497.302C601.639 497.265 601.619 497.231 601.609 497.193V497.191C601.597 497.145 601.595 497.097 601.59 497.05C601.585 497.013 601.575 496.977 601.575 496.941V496.938V470.929L595.951 467.689L591.879 465.347V465.346ZM602.546 458.088L592.851 463.669L602.544 469.25L612.238 463.668L602.544 458.088H602.546ZM607.588 492.916L613.212 489.678V465.346L609.14 467.69L603.515 470.929V495.261L607.588 492.916ZM637.455 464.674L627.761 470.255L637.455 475.835L647.147 470.253L637.455 464.674ZM636.485 477.515L630.86 474.276L626.788 471.932V482.979L632.412 486.217L636.485 488.562V477.515ZM614.18 502.41L628.398 494.293L635.506 490.237L625.819 484.66L614.666 491.08L604.502 496.932L614.18 502.41Z" fill="#FF2D20"/>
</g>
<g id="django">
<path id="BG_22" d="M495.243 525.469H445.537C437.767 525.469 431.469 531.767 431.469 539.537V589.243C431.469 597.013 437.767 603.311 445.537 603.311H495.243C503.013 603.311 509.311 597.013 509.311 589.243V539.537C509.311 531.767 503.013 525.469 495.243 525.469Z" fill="white" fill-opacity="0.1"/>
<path id="Border_22" d="M495.243 525H445.537C437.509 525 431 531.508 431 539.537V589.243C431 597.272 437.509 603.78 445.537 603.78H495.243C503.272 603.78 509.78 597.272 509.78 589.243V539.537C509.78 531.508 503.272 525 495.243 525Z" stroke="white" stroke-opacity="0.2" strokeWidth="0.937853"/>
<path id="LogoDjango" d="M486.873 557.803C488.42 557.803 489.85 557.966 491.584 558.318L490.348 560.922C489.387 560.734 490.271 560.896 489.545 560.826V561.201L489.592 562.724L489.615 564.693C489.638 565.185 489.638 565.678 489.662 566.17V567.154C489.662 570.248 489.404 571.701 488.631 572.896C487.506 574.655 485.56 575.522 482.795 575.522C481.388 575.522 480.17 575.311 478.904 574.818V571.49H478.904C480.17 572.147 481.436 572.451 482.771 572.451C485.138 572.451 486.146 571.49 486.146 569.193V569.123C485.443 569.474 484.74 569.615 483.803 569.615C480.639 569.615 478.623 567.529 478.623 564.225C478.623 560.123 481.599 557.803 486.873 557.803ZM454.133 558.037V566.404C454.133 569.287 453.922 570.67 453.289 571.865C452.703 573.014 451.93 573.74 450.336 574.537L446.984 572.943C448.578 572.193 449.351 571.537 449.844 570.529C450.359 569.498 450.524 568.303 450.524 565.162V558.037H454.133ZM497.187 557.732C500.797 557.732 503 560.006 503 563.685C503 567.459 500.703 569.826 497.047 569.826C493.437 569.826 491.211 567.553 491.211 563.897C491.211 560.099 493.508 557.732 497.187 557.732ZM461.094 557.779C462.946 557.779 464.165 558.271 464.704 559.232C465.008 559.771 465.102 560.474 465.102 561.975V569.31C463.485 569.545 461.446 569.709 459.946 569.709C456.923 569.709 455.563 568.654 455.563 566.31C455.563 563.779 457.368 562.607 461.798 562.232V561.435C461.798 560.779 461.469 560.545 460.555 560.545C459.219 560.545 457.719 560.92 456.313 561.646V558.857H456.313C457.907 558.107 459.43 557.779 461.094 557.779ZM448.391 552.463V569.17C446.539 569.522 445.18 569.662 443.703 569.662C439.297 569.662 437 567.67 437 563.85C437 560.17 439.438 557.779 443.211 557.779C443.797 557.779 444.242 557.826 444.781 557.967V552.463H448.391ZM472.532 557.779C474.384 557.779 475.72 558.201 476.517 559.021C477.267 559.795 477.501 560.638 477.501 562.443V569.521H473.892V562.584C473.892 561.201 473.423 560.685 472.134 560.685C471.642 560.685 471.196 560.732 470.47 560.943V569.521H466.86V558.599C468.993 558.037 470.751 557.779 472.532 557.779ZM461.962 564.599C459.571 564.834 458.797 565.209 458.797 566.146C458.797 566.85 459.243 567.178 460.227 567.178C460.766 567.178 461.258 567.131 461.962 567.014V564.599ZM497.141 560.638C495.711 560.638 494.89 561.787 494.89 563.779C494.89 565.771 495.711 566.92 497.117 566.92C498.5 566.92 499.32 565.771 499.32 563.779C499.32 561.81 498.523 560.638 497.141 560.638ZM443.563 560.685C441.735 560.685 440.68 561.81 440.68 563.779C440.68 565.701 441.688 566.756 443.539 566.756C443.938 566.756 444.266 566.732 444.781 566.662V560.873C444.36 560.732 444.008 560.685 443.563 560.685ZM483.615 561.224C482.748 561.717 482.303 562.607 482.303 563.873C482.303 565.678 483.194 566.709 484.787 566.709C485.279 566.709 485.678 566.615 486.147 566.475V565.232C486.147 564.811 486.123 564.342 486.123 563.85L486.1 562.186L486.076 560.99V560.709H485.701C484.998 560.685 484.178 560.873 483.615 561.224ZM454.133 552.482V556.185H450.524V552.482H454.133Z" fill="#00FF9F"/>
</g>
<g id="Python">
<path id="BG_23" d="M591.243 652.469H541.537C533.767 652.469 527.469 658.767 527.469 666.537V716.243C527.469 724.013 533.767 730.311 541.537 730.311H591.243C599.013 730.311 605.311 724.013 605.311 716.243V666.537C605.311 658.767 599.013 652.469 591.243 652.469Z" fill="white" fill-opacity="0.1"/>
<path id="Border_23" d="M591.243 652H541.537C533.509 652 527 658.508 527 666.537V716.243C527 724.272 533.509 730.78 541.537 730.78H591.243C599.272 730.78 605.78 724.272 605.78 716.243V666.537C605.78 658.508 599.272 652 591.243 652Z" stroke="white" stroke-opacity="0.2" strokeWidth="0.937853"/>
<path id="pythonDonw" fill-rule="evenodd" clip-rule="evenodd" d="M574.046 714.76C572.72 714.76 571.648 713.682 571.648 712.349C571.648 711.017 572.72 709.942 574.046 709.942C575.371 709.942 576.444 711.017 576.444 712.349C576.444 713.682 575.371 714.76 574.046 714.76ZM566.698 719C580.662 719 579.791 712.913 579.791 712.913L579.774 706.608H566.451V704.714H585.065C585.065 704.714 594 705.734 594 691.573C594 677.411 586.204 677.91 586.204 677.91H581.548V684.484C581.548 684.484 581.798 692.32 573.876 692.32H560.659C560.659 692.32 553.234 692.203 553.234 699.536V711.66C553.234 711.66 552.106 719 566.698 719Z" fill="#0075D1"/>
<path id="pythonUp" fill-rule="evenodd" clip-rule="evenodd" d="M558.957 668.24C560.282 668.24 561.352 669.318 561.352 670.651C561.352 671.983 560.282 673.058 558.957 673.058C557.631 673.058 556.559 671.983 556.559 670.651C556.559 669.318 557.631 668.24 558.957 668.24ZM566.302 664C552.34 664 553.212 670.087 553.212 670.087L553.229 676.392H566.552V678.286H547.935C547.935 678.286 539 677.266 539 691.427C539 705.589 546.799 705.09 546.799 705.09H551.452V698.516C551.452 698.516 551.202 690.68 559.127 690.68H572.341C572.341 690.68 579.766 690.797 579.766 683.464V671.34C579.766 671.34 580.894 664 566.302 664Z" fill="#FFD83A"/>
</g>
<g id="Angular">
<path id="BG_24" d="M102.243 499.469H52.537C44.767 499.469 38.469 505.767 38.469 513.537V563.243C38.469 571.013 44.767 577.311 52.537 577.311H102.243C110.013 577.311 116.311 571.013 116.311 563.243V513.537C116.311 505.767 110.013 499.469 102.243 499.469Z" fill="white" fill-opacity="0.1"/>
<path id="Border_24" d="M102.243 499H52.537C44.509 499 38 505.508 38 513.537V563.243C38 571.272 44.509 577.78 52.537 577.78H102.243C110.272 577.78 116.78 571.272 116.78 563.243V513.537C116.78 505.508 110.272 499 102.243 499Z" stroke="white" stroke-opacity="0.2" strokeWidth="0.937853"/>
<g id="AngularGroup">
<path id="Vector_40" d="M77.0625 506L47 517.562L51.625 556.875L77.0625 570.75L102.5 556.875L107.125 517.562L77.0625 506Z" fill="#DD0031"/>
<path id="Vector_41" d="M77.0625 506V570.75L102.5 556.875L107.125 517.562L77.0625 506Z" fill="#C3002F"/>
<path id="Vector_42" d="M77.062 513.154L58.2689 555.404H65.2759L69.0538 545.95H85.0055L88.7834 555.404H95.7905L77.062 513.154ZM82.5514 540.123H71.5726L77.062 526.881L82.5514 540.123Z" fill="white"/>
</g>
</g>
<g id="Vue">
<path id="BG_25" d="M220.243 402.469H170.537C162.767 402.469 156.469 408.767 156.469 416.537V466.243C156.469 474.013 162.767 480.311 170.537 480.311H220.243C228.013 480.311 234.311 474.013 234.311 466.243V416.537C234.311 408.767 228.013 402.469 220.243 402.469Z" fill="white" fill-opacity="0.1"/>
<path id="Border_25" d="M220.243 402H170.537C162.509 402 156 408.508 156 416.537V466.243C156 474.272 162.509 480.78 170.537 480.78H220.243C228.272 480.78 234.78 474.272 234.78 466.243V416.537C234.78 408.508 228.272 402 220.243 402Z" stroke="white" stroke-opacity="0.2" strokeWidth="0.937853"/>
<g id="VUEGroup">
<path id="Vector_43" fill-rule="evenodd" clip-rule="evenodd" d="M176.267 419H187.765L194.91 431.119L202.125 419H213.521L194.91 451.725L176.267 419Z" fill="#435466"/>
<path id="Vector_44" fill-rule="evenodd" clip-rule="evenodd" d="M164 419L194.909 473L226.044 419H213.521L194.909 451.725L176.267 419H164Z" fill="#4DBA87"/>
</g>
</g>
</g>
<defs>
<linearGradient id="paint0_linear_3_97" x1="51.242" y1="320.459" x2="76.271" y2="354.45" gradientUnits="userSpaceOnUse">
<stop stop-color="#4FC9FE"/>
<stop offset="1" stop-color="#C036FF"/>
</linearGradient>
<linearGradient id="paint1_linear_3_97" x1="78.523" y1="312.578" x2="83.671" y2="347.898" gradientUnits="userSpaceOnUse">
<stop offset="0.0001" stop-color="#FFCB28"/>
</linearGradient>
</defs>
</svg>
