<svg width="800" height="900" viewBox="0 0 800 900" fill="none" xmlns="http://www.w3.org/2000/svg">
<g clip-path="url(#clip0_3_97)">
<path opacity="0.2" d="M768.429 635.193V437.599H768.999V435.417H768.429V237.824C768.418 189.365 751.269 142.811 720.609 108.005V104.42H768.429V102.224H721.994L766.581 52.9264L765.223 51.4325L720.649 100.73V52.4932H718.666V102.224H715.296C684.1 69.4315 642.612 51.1178 599.455 51.0889H236.96C193.821 51.1332 152.356 69.4457 121.173 102.224H117.79V52.4932H115.82V100.685L71.2469 51.3877L69.8884 52.8816L114.462 102.179H70.8257V104.36H115.82V108.005C85.1555 142.808 68.0061 189.364 68 237.824V635.193C68.0061 683.652 85.1555 730.207 115.82 765.01V768.655H70.8257V770.837H114.421L69.8476 820.134L71.2061 821.629L115.779 772.331V820.523H117.749V770.791H121.132C152.325 803.581 193.807 821.894 236.96 821.927H599.455C642.598 821.886 684.069 803.574 715.256 770.791H718.625V820.523H720.609V772.331L765.181 821.629L766.54 820.134L721.954 770.837H768.999V768.655H720.609V765.01C751.262 730.199 768.41 683.649 768.429 635.193ZM766.445 635.193C766.442 682.299 750.04 727.616 720.609 761.843V574.616H765.739V572.45H720.609V437.599H766.445V635.193ZM542.574 572.45L541.215 570.956C543.47 568.437 545.658 565.847 547.776 563.188V572.45H542.574ZM547.776 574.631V578.202L544.544 574.631H547.776ZM289.779 572.45V564.607C291.545 566.773 293.366 568.88 295.214 570.956L293.855 572.45H289.779ZM291.885 574.631L289.779 576.932V574.616L291.885 574.631ZM293.855 300.566L295.214 302.06C293.366 304.135 291.545 306.258 289.779 308.409V300.566H293.855ZM289.779 298.384V296.085L291.885 298.399L289.779 298.384ZM547.776 300.566V309.827C545.658 307.169 543.47 304.579 541.215 302.06L542.574 300.566H547.776ZM544.544 298.384L547.776 294.815V298.384H544.544ZM547.776 435.402H543.13C542.924 399.562 530.054 365.213 507.239 339.615L539.843 303.613C542.56 306.671 545.214 309.842 547.804 313.129L547.776 435.402ZM549.746 315.713C575.086 349.39 589.011 391.693 589.144 435.402H549.746V315.713ZM505.839 341.109C528.296 366.284 540.964 400.079 541.161 435.343H420.591L505.839 341.109ZM419.206 433.729V300.566C451.165 300.811 481.764 314.819 504.44 339.586L419.206 433.729ZM417.223 433.729L331.975 339.481C354.676 314.76 385.274 300.792 417.223 300.566V433.729ZM415.864 435.223H295.268C295.472 399.961 308.139 366.169 330.589 340.989L415.864 435.223ZM415.864 437.405L330.616 531.637C308.166 506.459 295.5 472.666 295.295 437.405H415.864ZM417.223 438.899V572.45C385.257 572.204 354.653 558.19 331.975 533.416L417.223 438.899ZM419.206 438.899L504.44 533.132C481.811 558.012 451.205 572.131 419.206 572.45V438.899ZM420.565 437.405H541.12C540.923 472.668 528.255 506.463 505.799 531.637L420.565 437.405ZM538.416 302.06L505.812 338.077C487.916 318.554 465.047 305.472 440.236 300.566H537.031L538.416 302.06ZM419.206 298.384V247.488C462.261 247.72 503.629 265.916 534.953 298.399L419.206 298.384ZM417.223 298.384H301.476C332.793 265.892 374.166 247.695 417.223 247.473V298.384ZM396.179 300.566C371.361 305.473 348.482 318.554 330.576 338.077L297.971 302.06L299.33 300.566H396.179ZM296.613 303.554L329.217 339.556C306.392 365.145 293.518 399.499 293.325 435.343H289.806V311.71C291.994 308.946 294.263 306.242 296.613 303.628V303.554ZM287.81 435.343H247.23C247.382 390.964 261.749 348.063 287.81 314.175V435.343ZM287.81 437.524V558.692C261.749 524.804 247.382 481.903 247.23 437.524H287.81ZM289.779 437.524H293.298C293.489 473.364 306.362 507.714 329.19 533.296L296.585 569.313C294.235 566.699 291.966 563.995 289.793 561.231L289.779 437.524ZM298.012 570.956L330.616 534.939C348.513 554.455 371.375 567.535 396.179 572.45H299.398L298.012 570.956ZM417.223 574.631V625.543C374.166 625.321 332.793 607.124 301.476 574.631H417.223ZM419.206 574.631H534.953C503.629 607.115 462.261 625.311 419.206 625.543V574.631ZM440.236 572.45C465.056 567.55 487.936 554.468 505.839 534.939L538.444 570.956L537.085 572.45H440.236ZM539.816 569.463L507.211 533.445C530.03 507.856 542.901 473.511 543.104 437.673H547.75V559.947C545.214 563.173 542.57 566.345 539.816 569.463ZM549.746 437.673H589.144C589.011 481.382 575.086 523.685 549.746 557.362V437.673ZM591.168 435.493C591.017 390.378 576.342 346.779 549.746 312.427V300.566H654.218C673.883 342.228 684.192 388.462 684.281 435.402L591.168 435.493ZM549.746 298.474V292.708L607.049 229.383C625.401 249.821 640.939 273.098 653.171 298.474H549.746ZM549.746 289.63V180.787C570.183 193.664 588.98 209.456 605.65 227.754L549.746 289.63ZM547.776 291.811L541.759 298.474H537.833C505.999 264.601 463.502 245.549 419.206 245.293V142.394C464.247 142.503 508.511 155.299 547.776 179.563V291.811ZM417.223 245.293C372.937 245.523 330.441 264.542 298.596 298.384H294.67L289.779 292.977V178.845C328.772 155.033 372.62 142.486 417.223 142.379V245.293ZM287.81 290.811L230.751 227.754C247.739 209.121 266.931 193.087 287.81 180.085V290.811ZM287.81 293.903V298.384H183.203C195.431 273.005 210.97 249.727 229.325 229.293L287.81 293.903ZM287.81 300.581V310.888C260.511 345.45 245.407 389.641 245.246 435.417H152.147C152.235 388.473 162.544 342.233 182.211 300.566L287.81 300.581ZM245.246 437.599C245.407 483.375 260.511 527.567 287.81 562.127V572.45H182.211C162.546 530.788 152.237 484.554 152.147 437.614L245.246 437.599ZM287.81 574.616V579.099L229.393 643.678C211.038 623.243 195.5 599.967 183.271 574.586L287.81 574.616ZM287.81 582.205V692.931C266.931 679.929 247.739 663.894 230.751 645.262L287.81 582.205ZM289.779 580.024L294.67 574.616H298.596C330.439 608.465 372.935 627.49 417.223 627.724V730.652C372.62 730.533 328.773 717.981 289.779 694.171V580.024ZM419.206 627.724C463.492 627.491 505.987 608.472 537.833 574.631H541.759L547.776 581.294V693.454C508.51 717.715 464.247 730.515 419.206 730.637V627.724ZM549.746 583.475L605.65 645.277C588.974 663.567 570.178 679.359 549.746 692.244V583.475ZM549.746 580.398V574.631H653.171C640.939 600.009 625.401 623.285 607.049 643.723L549.746 580.398ZM549.746 572.45V560.679C576.342 526.326 591.017 482.729 591.168 437.614H684.281C684.192 484.554 673.883 530.788 654.218 572.45H549.746ZM686.251 437.614H718.625V572.45H656.445C675.951 530.73 686.167 484.511 686.251 437.599V437.614ZM686.251 435.432C686.169 388.516 675.953 342.292 656.445 300.566H718.625V435.402L686.251 435.432ZM655.399 298.415C643.001 272.451 627.178 248.645 608.449 227.769L717.375 107.408L717.47 107.498C717.878 107.961 718.285 108.454 718.693 108.991V298.399L655.399 298.415ZM715.881 105.899L607.049 226.216C589.986 207.488 570.713 191.364 549.746 178.277V104.405H714.468L715.881 105.899ZM547.776 177.068C508.45 153.007 464.211 140.321 419.206 140.198V104.345H547.776V177.068ZM419.206 102.224V53.27H547.776V102.224H419.206ZM417.223 102.224H289.779V53.27H417.223V102.224ZM417.223 104.405V140.258C372.656 140.373 328.831 152.81 289.779 176.425V104.405H417.223ZM287.81 177.605C266.41 190.806 246.755 207.166 229.393 226.231L120.561 105.914L121.92 104.42H287.81V177.605ZM119.026 107.498L119.108 107.408L227.98 227.754C209.242 248.626 193.416 272.432 181.016 298.399H117.79V108.932C118.265 108.454 118.605 107.961 119.026 107.498ZM179.984 300.566C160.48 342.283 150.264 388.496 150.177 435.402H117.79V300.566H179.984ZM150.177 437.583C150.26 484.5 160.476 530.725 179.984 572.45H117.79V437.599L150.177 437.583ZM181.016 574.601C193.416 600.568 209.242 624.375 227.98 645.247L119.108 765.608L119.026 765.519C118.605 765.055 118.211 764.562 117.79 764.025V574.616L181.016 574.601ZM120.548 767.117L229.379 646.8C246.745 665.866 266.399 682.23 287.796 695.441V768.64H121.961L120.548 767.117ZM289.779 696.652C328.831 720.266 372.656 732.703 417.223 732.817V768.67H289.779V696.652ZM417.223 770.791V819.746H289.779V770.791H417.223ZM419.206 770.791H547.776V819.746H419.206V770.791ZM419.206 768.611V732.758C464.211 732.636 508.45 719.95 547.776 695.889V768.551L419.206 768.611ZM549.746 694.738C570.713 681.652 589.986 665.529 607.049 646.8L715.881 767.117L714.523 768.611H549.746V694.738ZM717.375 765.519L717.28 765.608L608.421 645.262C627.152 624.385 642.973 600.58 655.373 574.616H718.598V764.085L717.375 765.519ZM766.445 237.824V435.417H720.609V300.566H765.739V298.384H720.609V111.217C750.031 145.433 766.431 190.733 766.445 237.824ZM712.403 102.179H549.746V53.27H599.455C641.378 53.304 681.734 70.7951 712.403 102.224V102.179ZM236.919 53.2251H287.81V102.179H124.026C154.697 70.7688 195.047 53.2941 236.96 53.27L236.919 53.2251ZM69.9699 635.193V237.824C69.9783 190.715 86.3841 145.398 115.82 111.172V298.354H70.7171V300.566H115.82V435.402H70.554V437.583H115.82V572.45H70.7171V574.631H115.82V761.814C86.3906 727.595 69.9853 682.29 69.9699 635.193ZM124.026 770.837H287.81V819.791H236.96C195.036 819.742 154.685 802.236 124.026 770.791V770.837ZM599.51 819.791H549.746V770.791H712.403C681.732 802.218 641.378 819.71 599.455 819.746L599.51 819.791Z" fill="url(#paint0_radial_3_97)"/>
<mask id="mask0_3_97" style="mask-type:alpha" maskUnits="userSpaceOnUse" x="54" y="50" width="626" height="772">
<path d="M679.251 50H54.4901V821.928H679.251V50Z" fill="url(#paint1_linear_3_97)"/>
</mask>
<g mask="url(#mask0_3_97)">
<path d="M327.469 677.965C327.469 672.837 327.469 670.274 328.483 668.322C329.337 666.678 330.678 665.337 332.322 664.483C334.273 663.469 336.837 663.469 341.964 663.469H391.753C396.881 663.469 399.444 663.469 401.396 664.483C403.04 665.337 404.381 666.678 405.235 668.322C406.249 670.274 406.249 672.837 406.249 677.965V727.754C406.249 732.881 406.249 735.445 405.235 737.396C404.381 739.04 403.04 740.381 401.396 741.235C399.444 742.249 396.881 742.249 391.753 742.249H341.964C336.837 742.249 334.273 742.249 332.322 741.235C330.678 740.381 329.337 739.04 328.483 737.396C327.469 735.445 327.469 732.881 327.469 727.754V677.965Z" fill="white" fillOpacity="0.1"/>
<path d="M391.753 663H341.964H341.942C339.397 663 337.459 663 335.913 663.129C334.358 663.258 333.16 663.519 332.106 664.067C330.376 664.966 328.965 666.376 328.066 668.106C327.519 669.16 327.257 670.359 327.128 671.914C327 673.459 327 675.398 327 677.942V677.965V727.754V727.776C327 730.321 327 732.259 327.128 733.805C327.257 735.36 327.519 736.558 328.066 737.612C328.965 739.342 330.376 740.753 332.106 741.651C333.16 742.199 334.358 742.46 335.913 742.59C337.458 742.718 339.397 742.718 341.942 742.718H341.964H391.753H391.776C394.321 742.718 396.259 742.718 397.804 742.59C399.36 742.46 400.558 742.199 401.612 741.651C403.342 740.753 404.753 739.342 405.651 737.612C406.199 736.558 406.46 735.36 406.59 733.805C406.718 732.259 406.718 730.321 406.718 727.776V727.754V677.965V677.942C406.718 675.398 406.718 673.459 406.59 671.914C406.46 670.359 406.199 669.16 405.651 668.106C404.753 666.376 403.342 664.966 401.612 664.067C400.558 663.519 399.36 663.258 397.804 663.129C396.259 663 394.321 663 391.776 663H391.753Z" stroke="white" strokeOpacity="0.2" strokeWidth="0.937853"/>
<mask id="mask1_3_97" style="mask-type:luminance" maskUnits="userSpaceOnUse" x="339" y="675" width="56" height="56">
<path d="M394.056 675.662H339.66V730.057H394.056V675.662Z" fill="white"/>
</mask>
<g mask="url(#mask1_3_97)">
<path d="M343.06 675.662H390.656L386.327 724.534L366.806 730.057L347.394 724.532L343.06 675.662ZM381.794 685.664L351.922 685.657L352.405 691.6L375.353 691.604L374.775 697.76H359.725L360.269 703.592H374.281L373.451 711.576L366.856 713.399L360.156 711.563L359.73 706.78H353.815L354.472 715.518L366.858 719.378L379.036 715.91L381.794 685.666V685.664Z" fill="white"/>
</g>
<path d="M502.185 179.046H452.479C444.709 179.046 438.411 185.344 438.411 193.113V242.819C438.411 250.589 444.709 256.887 452.479 256.887H502.185C509.955 256.887 516.253 250.589 516.253 242.819V193.113C516.253 185.344 509.955 179.046 502.185 179.046Z" fill="white" fillOpacity="0.1"/>
<path d="M502.185 178.577H452.479C444.451 178.577 437.942 185.085 437.942 193.113V242.819C437.942 250.848 444.451 257.356 452.479 257.356H502.185C510.214 257.356 516.722 250.848 516.722 242.819V193.113C516.722 185.085 510.214 178.577 502.185 178.577Z" stroke="white" strokeOpacity="0.2" strokeWidth="0.937853"/>
<path d="M490.7 239.859C492.268 242.419 494.308 244.301 497.916 244.301C500.947 244.301 502.883 242.786 502.883 240.693C502.883 238.185 500.894 237.296 497.558 235.837L495.729 235.053C490.451 232.804 486.944 229.987 486.944 224.031C486.944 218.545 491.124 214.369 497.657 214.369C502.307 214.369 505.651 215.988 508.06 220.226L502.364 223.883C501.11 221.634 499.757 220.748 497.657 220.748C495.514 220.748 494.156 222.107 494.156 223.883C494.156 226.077 495.515 226.966 498.654 228.325L500.482 229.108C506.697 231.773 510.206 234.49 510.206 240.599C510.206 247.185 505.033 250.793 498.085 250.793C491.292 250.793 486.903 247.555 484.756 243.312L490.7 239.859ZM464.861 240.493C466.01 242.532 467.055 244.255 469.568 244.255C471.971 244.255 473.487 243.315 473.487 239.659V214.787H480.802V239.758C480.802 247.332 476.361 250.779 469.879 250.779C464.023 250.779 460.631 247.748 458.906 244.098L464.861 240.493Z" fill="white"/>
<path d="M337.812 138.469H289.044C280.756 138.469 274.038 145.187 274.038 153.475V202.243C274.038 210.53 280.756 217.249 289.044 217.249H337.812C346.099 217.249 352.818 210.53 352.818 202.243V153.475C352.818 145.187 346.099 138.469 337.812 138.469Z" fill="white" fillOpacity="0.1"/>
<path d="M337.812 138H289.044C280.497 138 273.569 144.928 273.569 153.475V202.243C273.569 210.789 280.497 217.717 289.044 217.717H337.812C346.358 217.717 353.287 210.789 353.287 202.243V153.475C353.287 144.928 346.358 138 337.812 138Z" stroke="white" strokeOpacity="0.2" strokeWidth="0.937853"/>
<path d="M313.251 188.702C329.823 188.972 343.337 184.338 343.434 178.351C343.532 172.364 330.176 167.292 313.604 167.022C297.031 166.752 283.518 171.387 283.42 177.373C283.323 183.36 296.678 188.432 313.251 188.702Z" stroke="white" strokeWidth="2.73905"/>
<path d="M303.416 183.117C311.481 196.831 322.501 205.594 328.03 202.69C333.558 199.786 331.502 186.314 323.437 172.6C315.372 158.886 304.352 150.123 298.823 153.027C293.295 155.931 295.351 169.403 303.416 183.117Z" stroke="white" strokeWidth="2.73905"/>
<path d="M303.594 172.277C295.087 185.721 292.593 199.118 298.024 202.201C303.455 205.284 314.755 196.884 323.262 183.44C331.769 169.996 334.263 156.598 328.832 153.516C323.401 150.433 312.101 158.833 303.594 172.277Z" stroke="white" strokeWidth="2.73905"/>
<path fillRule="evenodd" clipRule="evenodd" d="M324.769 178.117C323.993 176.529 323.128 174.917 322.176 173.299C321.225 171.682 320.234 170.138 319.218 168.677C317.377 168.516 315.47 168.417 313.513 168.385C311.557 168.353 309.647 168.391 307.802 168.491C306.738 169.918 305.698 171.429 304.695 173.014C303.691 174.6 302.774 176.184 301.946 177.746C302.722 179.334 303.587 180.945 304.539 182.564C305.491 184.183 306.484 185.73 307.502 187.192C309.342 187.352 311.248 187.452 313.202 187.484C315.157 187.516 317.065 187.478 318.909 187.378C319.974 185.949 321.017 184.436 322.021 182.848C323.025 181.262 323.942 179.679 324.769 178.117Z" fill="white" fillOpacity="0.2"/>
<path d="M313.365 183.15C316.454 183.201 318.996 180.873 319.044 177.95C319.091 175.028 316.626 172.619 313.538 172.568C310.449 172.518 307.907 174.846 307.859 177.768C307.812 180.69 310.277 183.1 313.365 183.15Z" fill="white"/>
<path d="M623.475 446.482L572.834 445.902C565.065 445.813 558.695 452.038 558.606 459.807L558.026 510.448C557.937 518.217 564.163 524.587 571.932 524.676L622.572 525.256C630.341 525.345 636.711 519.119 636.8 511.35L637.38 460.71C637.469 452.941 631.244 446.571 623.475 446.482Z" fill="white" fillOpacity="0.1"/>
<path d="M623.48 446.013L572.839 445.433C564.811 445.341 558.228 451.774 558.137 459.802L557.557 510.443C557.465 518.471 563.898 525.053 571.926 525.145L622.567 525.725C630.594 525.817 637.177 519.384 637.269 511.356L637.849 460.715C637.941 452.687 631.507 446.105 623.48 446.013Z" stroke="white" strokeOpacity="0.2" strokeWidth="0.937853"/>
<path d="M621.835 496.503C615.212 501.278 605.641 503.744 597.437 503.65C585.939 503.518 575.627 499.148 567.883 491.992C567.271 491.426 567.839 490.673 568.572 491.121C576.98 496.129 587.385 499.222 598.185 499.346C605.471 499.43 613.493 498.004 620.894 494.975C621.998 494.488 622.922 495.716 621.835 496.503ZM624.605 493.42C623.779 492.332 619.062 492.837 616.923 493.072C616.283 493.145 616.19 492.585 616.774 492.172C620.557 489.58 626.716 490.41 627.424 491.296C628.133 492.203 627.144 498.36 623.597 501.274C623.053 501.727 622.536 501.482 622.783 500.886C623.604 498.919 625.431 494.487 624.605 493.42Z" fill="white"/>
<path d="M584.663 480.645C584.654 481.383 584.727 481.983 584.862 482.424C585.017 482.865 585.211 483.346 585.484 483.868C585.582 484.029 585.62 484.189 585.619 484.329C585.617 484.529 585.494 484.727 585.233 484.924L583.965 485.748C583.784 485.865 583.604 485.923 583.444 485.921C583.245 485.919 583.046 485.817 582.849 485.635C582.573 485.332 582.337 485.01 582.141 484.689C581.945 484.347 581.75 483.965 581.536 483.504C579.958 485.322 577.991 486.218 575.635 486.191C573.959 486.172 572.627 485.678 571.659 484.708C570.692 483.739 570.208 482.456 570.226 480.859C570.246 479.162 570.86 477.792 572.09 476.767C573.319 475.743 574.942 475.243 576.998 475.266C577.677 475.274 578.375 475.342 579.112 475.45C579.85 475.559 580.607 475.727 581.403 475.916L581.42 474.459C581.437 472.942 581.13 471.88 580.518 471.254C579.886 470.628 578.812 470.316 577.275 470.299C576.576 470.291 575.857 470.362 575.116 470.533C574.375 470.705 573.654 470.916 572.952 471.187C572.631 471.323 572.391 471.401 572.251 471.439C572.111 471.477 572.01 471.496 571.931 471.495C571.651 471.492 571.514 471.291 571.519 470.871L571.53 469.893C571.533 469.574 571.576 469.335 571.677 469.196C571.779 469.058 571.96 468.92 572.241 468.784C572.944 468.432 573.786 468.142 574.767 467.914C575.748 467.666 576.787 467.558 577.885 467.57C580.26 467.598 581.991 468.157 583.096 469.247C584.182 470.338 584.722 471.981 584.697 474.177L584.623 480.644L584.663 480.645ZM576.524 483.586C577.182 483.594 577.862 483.482 578.584 483.25C579.305 483.019 579.949 482.587 580.495 481.995C580.819 481.619 581.063 481.202 581.188 480.725C581.313 480.247 581.4 479.669 581.408 478.99L581.417 478.152C580.84 478.006 580.223 477.879 579.585 477.792C578.947 477.704 578.328 477.657 577.71 477.65C576.372 477.635 575.391 477.883 574.726 478.415C574.061 478.946 573.733 479.701 573.722 480.699C573.711 481.637 573.943 482.339 574.436 482.824C574.91 483.328 575.605 483.576 576.524 483.586ZM592.528 485.926C592.169 485.921 591.93 485.859 591.772 485.717C591.614 485.596 591.477 485.315 591.362 484.934L586.847 469.45C586.732 469.049 586.675 468.789 586.677 468.649C586.68 468.33 586.842 468.152 587.162 468.156L589.118 468.178C589.497 468.183 589.756 468.245 589.894 468.387C590.052 468.508 590.169 468.789 590.284 469.17L593.487 482.423L596.752 469.244C596.856 468.846 596.979 468.588 597.14 468.47C597.301 468.352 597.582 468.275 597.941 468.279L599.538 468.298C599.917 468.302 600.176 468.365 600.334 468.506C600.492 468.628 600.629 468.909 600.704 469.289L603.705 482.7L607.312 469.365C607.436 468.967 607.579 468.709 607.72 468.591C607.881 468.473 608.141 468.396 608.501 468.4L610.357 468.422C610.676 468.425 610.854 468.587 610.85 468.926C610.849 469.026 610.828 469.126 610.807 469.245C610.785 469.365 610.744 469.524 610.661 469.743L605.674 485.118C605.549 485.516 605.407 485.774 605.246 485.892C605.085 486.009 604.824 486.086 604.485 486.082L602.768 486.063C602.389 486.058 602.13 485.996 601.972 485.854C601.814 485.713 601.677 485.451 601.602 485.051L598.655 472.141L595.434 484.961C595.33 485.359 595.207 485.617 595.046 485.755C594.884 485.893 594.604 485.949 594.245 485.945L592.528 485.926ZM618.173 486.758C617.135 486.746 616.098 486.615 615.103 486.364C614.107 486.113 613.332 485.844 612.816 485.539C612.499 485.356 612.282 485.154 612.204 484.973C612.126 484.792 612.088 484.592 612.09 484.413L612.102 483.395C612.107 482.976 612.269 482.778 612.568 482.781C612.688 482.783 612.808 482.804 612.927 482.845C613.046 482.886 613.225 482.968 613.424 483.05C614.099 483.358 614.835 483.606 615.611 483.774C616.408 483.943 617.186 484.032 617.984 484.041C619.242 484.055 620.222 483.847 620.906 483.416C621.59 482.984 621.956 482.35 621.966 481.531C621.972 480.972 621.798 480.511 621.443 480.128C621.088 479.744 620.413 479.397 619.439 479.067L616.554 478.135C615.102 477.659 614.032 476.968 613.384 476.063C612.735 475.177 612.407 474.195 612.419 473.157C612.429 472.318 612.617 471.582 612.983 470.947C613.35 470.312 613.835 469.759 614.439 469.327C615.043 468.875 615.726 468.543 616.527 468.313C617.328 468.082 618.168 467.992 619.046 468.002C619.485 468.007 619.944 468.032 620.383 468.097C620.841 468.162 621.259 468.247 621.678 468.332C622.076 468.436 622.454 468.54 622.812 468.664C623.17 468.788 623.448 468.911 623.646 469.033C623.924 469.196 624.122 469.358 624.239 469.539C624.357 469.7 624.415 469.92 624.411 470.2L624.401 471.138C624.396 471.557 624.234 471.775 623.934 471.771C623.774 471.769 623.516 471.687 623.178 471.523C622.047 470.991 620.772 470.717 619.355 470.701C618.217 470.688 617.317 470.857 616.693 471.229C616.07 471.601 615.744 472.177 615.735 472.995C615.728 473.554 615.923 474.035 616.317 474.419C616.712 474.803 617.447 475.191 618.501 475.542L621.325 476.473C622.757 476.949 623.788 477.599 624.397 478.425C625.006 479.25 625.295 480.192 625.283 481.23C625.273 482.088 625.085 482.865 624.738 483.539C624.371 484.214 623.885 484.807 623.26 485.279C622.636 485.771 621.893 486.122 621.032 486.372C620.13 486.641 619.191 486.77 618.173 486.758Z" fill="white"/>
<path d="M393.181 272.271H342.537C334.767 272.271 328.469 278.57 328.469 286.339V336.983C328.469 344.753 334.767 351.051 342.537 351.051H393.181C400.95 351.051 407.249 344.753 407.249 336.983V286.339C407.249 278.57 400.95 272.271 393.181 272.271Z" fill="white" fillOpacity="0.1"/>
<path d="M393.181 271.802H342.537C334.508 271.802 328 278.311 328 286.339V336.983C328 345.012 334.508 351.52 342.537 351.52H393.181C401.209 351.52 407.717 345.012 407.717 336.983V286.339C407.717 278.311 401.209 271.802 393.181 271.802Z" stroke="white" strokeOpacity="0.2" strokeWidth="0.937853"/>
<path d="M347.727 320.846L353.641 282.801C353.684 282.519 353.815 282.258 354.015 282.054C354.215 281.851 354.474 281.716 354.755 281.668C355.036 281.62 355.325 281.663 355.581 281.789C355.837 281.915 356.047 282.119 356.18 282.371L362.54 294.303L347.727 320.846ZM389.731 330.078L384.099 295.066C384.057 294.821 383.949 294.591 383.786 294.403C383.624 294.215 383.412 294.075 383.175 293.999C382.938 293.923 382.685 293.913 382.443 293.971C382.201 294.029 381.979 294.153 381.803 294.328L346.288 330.078L365.939 341.152C366.545 341.493 367.228 341.672 367.923 341.672C368.619 341.672 369.302 341.493 369.908 341.152L389.731 330.078ZM373.762 299.525L369.21 290.817C369.095 290.598 368.923 290.414 368.711 290.286C368.5 290.158 368.257 290.091 368.01 290.091C367.762 290.091 367.52 290.158 367.308 290.286C367.097 290.414 366.924 290.598 366.809 290.817L346.826 326.626L373.762 299.525Z" fill="white"/>
<path d="M568.332 329.597H517.688C509.918 329.597 503.62 335.896 503.62 343.665V394.309C503.62 402.079 509.918 408.377 517.688 408.377H568.332C576.101 408.377 582.4 402.079 582.4 394.309V343.665C582.4 335.896 576.101 329.597 568.332 329.597Z" fill="white" fillOpacity="0.1"/>
<path d="M568.332 329.128H517.688C509.659 329.128 503.151 335.637 503.151 343.665V394.309C503.151 402.338 509.659 408.846 517.688 408.846H568.332C576.36 408.846 582.869 402.338 582.869 394.309V343.665C582.869 335.637 576.36 329.128 568.332 329.128Z" stroke="white" strokeOpacity="0.2" strokeWidth="0.937853"/>
<mask id="mask2_3_97" style="mask-type:luminance" maskUnits="userSpaceOnUse" x="512" y="338" width="62" height="62">
<path d="M573.078 339.034L513.055 338.918L512.94 398.941L572.962 399.056L573.078 339.034Z" fill="white"/>
</mask>
<g mask="url(#mask2_3_97)">
<path d="M512.959 389.147C513.064 390.473 513.529 391.807 514.746 393.597C516.193 395.723 518.681 396.894 520.503 395.026C521.731 393.766 535.041 370.605 541.45 361.829C541.626 361.578 541.86 361.373 542.132 361.232C542.404 361.091 542.706 361.018 543.012 361.018C543.318 361.019 543.62 361.093 543.892 361.235C544.163 361.378 544.396 361.583 544.571 361.835C550.947 370.635 564.167 393.847 565.39 395.112C567.205 396.987 569.698 395.826 571.152 393.705C572.582 391.62 572.98 390.158 572.983 388.592C572.985 387.527 552.401 349.043 550.326 345.837C548.332 342.757 547.723 342.086 544.339 341.969L541.758 341.964C538.374 342.068 537.763 342.735 535.753 345.809C533.712 348.939 513.791 385.832 512.961 388.362L512.959 389.147Z" fill="white"/>
</g>
<path d="M465.855 416.666H403.217C399.019 416.666 395.615 420.07 395.615 424.268V486.906C395.615 491.105 399.019 494.508 403.217 494.508H465.855C470.054 494.508 473.457 491.105 473.457 486.906V424.268C473.457 420.07 470.054 416.666 465.855 416.666Z" fill="white" fillOpacity="0.1"/>
<path d="M465.855 416.197H403.217C398.76 416.197 395.146 419.811 395.146 424.268V486.906C395.146 491.364 398.76 494.977 403.217 494.977H465.855C470.313 494.977 473.926 491.364 473.926 486.906V424.268C473.926 419.811 470.313 416.197 465.855 416.197Z" stroke="white" strokeOpacity="0.2" strokeWidth="0.937853"/>
<path fillRule="evenodd" clipRule="evenodd" d="M443.517 478.654V486.256C444.748 486.895 446.253 487.366 447.926 487.685C449.598 488.004 451.422 488.156 453.247 488.156C455.071 488.156 456.744 487.989 458.416 487.64C460.088 487.29 461.457 486.712 462.673 485.967C463.904 485.161 464.954 484.143 465.562 482.774C466.17 481.406 466.641 479.886 466.641 477.909C466.641 476.526 466.428 475.325 466.018 474.26C465.607 473.196 465.014 472.284 464.193 471.524C463.418 470.718 462.521 470.003 461.457 469.395C460.392 468.787 459.176 468.149 457.808 467.571C456.804 467.16 455.983 466.765 455.071 466.37C454.281 465.975 453.597 465.579 453.095 465.184C452.532 464.773 452.107 464.348 451.803 463.907C451.498 463.451 451.346 462.949 451.346 462.387C451.346 461.87 451.482 461.398 451.757 460.973C452.032 460.547 452.411 460.197 452.897 459.893C453.384 459.589 453.992 459.361 454.722 459.194C455.436 459.027 456.227 458.951 457.154 458.951C457.793 458.951 458.462 458.998 459.131 459.093C459.83 459.189 460.545 459.337 461.259 459.534C461.974 459.732 462.673 459.975 463.388 460.279C464.057 460.583 464.68 460.933 465.212 461.328V454.183C464.057 453.742 462.779 453.407 461.411 453.195C460.043 452.982 458.522 452.875 456.698 452.875C454.874 452.875 453.201 453.073 451.529 453.453C449.856 453.833 448.488 454.441 447.272 455.277C446.04 456.098 445.143 457.102 444.383 458.47C443.669 459.747 443.319 461.207 443.319 463.031C443.319 465.312 443.973 467.288 445.295 468.808C446.603 470.481 448.64 471.697 451.225 472.913C452.274 473.339 453.201 473.765 454.113 474.175C455.026 474.586 455.786 475.012 456.394 475.452C457.048 475.893 457.565 476.38 457.914 476.897C458.294 477.414 458.492 478.022 458.492 478.721C458.492 479.208 458.373 479.664 458.142 480.089C457.911 480.515 457.549 480.88 457.063 481.184C456.576 481.488 455.983 481.731 455.239 481.914C454.524 482.081 453.718 482.172 452.654 482.172C450.982 482.172 449.309 481.883 447.789 481.306C446.116 480.728 444.596 479.861 443.228 478.721L443.517 478.654ZM430.746 459.954H440.476V453.721H413.262V459.954H422.992V487.776H430.746V459.954Z" fill="white"/>
<path d="M490.339 553.593H439.695C431.925 553.593 425.627 559.892 425.627 567.661V618.305C425.627 626.075 431.925 632.373 439.695 632.373H490.339C498.108 632.373 504.407 626.075 504.407 618.305V567.661C504.407 559.892 498.108 553.593 490.339 553.593Z" fill="white" fillOpacity="0.1"/>
<path d="M490.339 553.124H439.695C431.666 553.124 425.158 559.633 425.158 567.661V618.305C425.158 626.334 431.666 632.842 439.695 632.842H490.339C498.367 632.842 504.876 626.334 504.876 618.305V567.661C504.876 559.633 498.367 553.124 490.339 553.124Z" stroke="white" strokeOpacity="0.2" strokeWidth="0.937853"/>
<mask id="mask3_3_97" style="mask-type:luminance" maskUnits="userSpaceOnUse" x="437" y="565" width="56" height="56">
<path d="M492.367 565.784H437.818V620.334H492.367V565.784Z" fill="white"/>
</mask>
<g mask="url(#mask3_3_97)">
<path d="M465.093 566.459C450.025 566.459 437.818 578.676 437.818 593.734C437.818 605.791 445.633 616.01 456.462 619.616C457.831 619.873 458.326 619.029 458.326 618.3C458.326 617.652 458.31 615.939 458.3 613.665C450.709 615.308 449.11 609.998 449.11 609.998C447.867 606.854 446.074 606.011 446.074 606.011C443.606 604.325 446.27 604.361 446.27 604.361C449.004 604.546 450.443 607.165 450.443 607.165C452.876 611.338 456.825 610.131 458.389 609.429C458.627 607.671 459.338 606.462 460.112 605.789C454.057 605.105 447.69 602.762 447.69 592.31C447.69 589.325 448.747 586.895 450.494 584.985C450.193 584.302 449.269 581.523 450.735 577.766C450.735 577.766 453.017 577.038 458.235 580.563C460.419 579.958 462.737 579.657 465.054 579.641C467.372 579.657 469.689 579.96 471.872 580.563C477.06 577.038 479.341 577.766 479.341 577.766C480.805 581.523 479.881 584.3 479.615 584.985C481.345 586.895 482.402 589.327 482.402 592.31C482.402 602.785 476.027 605.095 469.965 605.762C470.913 606.578 471.801 608.257 471.801 610.806C471.801 614.454 471.767 617.393 471.767 618.281C471.767 618.99 472.244 619.842 473.649 619.568C484.559 616 492.364 605.772 492.364 593.732C492.364 578.675 480.157 566.457 465.09 566.457L465.093 566.459Z" fill="white"/>
</g>
<path d="M337.468 529.209H286.824C279.054 529.209 272.756 535.508 272.756 543.277V593.921C272.756 601.691 279.054 607.989 286.824 607.989H337.468C345.237 607.989 351.536 601.691 351.536 593.921V543.277C351.536 535.508 345.237 529.209 337.468 529.209Z" fill="white" fillOpacity="0.1"/>
<path d="M337.468 528.74H286.824C278.795 528.74 272.287 535.249 272.287 543.277V593.921C272.287 601.95 278.795 608.458 286.824 608.458H337.468C345.496 608.458 352.004 601.95 352.004 593.921V543.277C352.004 535.249 345.496 528.74 337.468 528.74Z" stroke="white" strokeOpacity="0.2" strokeWidth="0.937853"/>
<path d="M337.178 551.713L313.971 593.211C313.492 594.068 312.261 594.073 311.774 593.22L288.107 551.717C287.577 550.788 288.372 549.662 289.425 549.851L312.657 554.003C312.805 554.03 312.957 554.029 313.105 554.002L335.851 549.856C336.9 549.665 337.698 550.782 337.178 551.713Z" fill="url(#paint2_linear_3_97)"/>
<path d="M323.723 544.404L306.549 547.769C306.412 547.796 306.288 547.868 306.196 547.973C306.104 548.078 306.049 548.211 306.041 548.351L304.985 566.193C304.979 566.291 304.996 566.389 305.034 566.479C305.073 566.569 305.132 566.649 305.207 566.712C305.282 566.775 305.37 566.82 305.466 566.843C305.561 566.866 305.66 566.867 305.756 566.845L310.537 565.741C310.985 565.638 311.389 566.032 311.297 566.482L309.876 573.438C309.781 573.907 310.22 574.307 310.677 574.168L313.631 573.271C314.089 573.132 314.529 573.533 314.432 574.002L312.174 584.928C312.033 585.612 312.942 585.985 313.321 585.399L313.574 585.007L327.569 557.079C327.803 556.612 327.399 556.079 326.885 556.178L321.963 557.128C321.501 557.217 321.108 556.786 321.238 556.334L324.45 545.198C324.581 544.744 324.186 544.313 323.723 544.404Z" fill="url(#paint3_linear_3_97)"/>
<path d="M314.181 400.271H263.537C255.767 400.271 249.469 406.57 249.469 414.339V464.983C249.469 472.753 255.767 479.051 263.537 479.051H314.181C321.95 479.051 328.249 472.753 328.249 464.983V414.339C328.249 406.57 321.95 400.271 314.181 400.271Z" fill="white" fillOpacity="0.1"/>
<path d="M314.181 399.802H263.537C255.508 399.802 249 406.311 249 414.339V464.983C249 473.012 255.508 479.52 263.537 479.52H314.181C322.209 479.52 328.717 473.012 328.717 464.983V414.339C328.717 406.311 322.209 399.802 314.181 399.802Z" stroke="white" strokeOpacity="0.2" strokeWidth="0.937853"/>
<path d="M301.787 439.908V439.96V440.03V440.083V440.136L301.805 440.206V440.258V440.311L301.822 440.381V440.434L301.84 440.486L301.857 440.557V440.609L301.875 440.679L301.892 440.732L301.91 440.802V440.872L301.927 440.925L301.945 440.995L301.963 441.065L301.98 441.118L302.015 441.188L302.033 441.258L302.05 441.328L302.068 441.398L302.085 441.469L302.12 441.539L302.138 441.626L302.155 441.697L302.191 441.767L302.208 441.837L302.243 441.925L302.261 441.995L302.296 442.083L302.313 442.17L302.348 442.258L302.384 442.328L302.401 442.416L302.436 442.504L302.471 442.591L302.489 442.696L302.524 442.784L302.541 442.872L302.576 442.977L302.612 443.065L302.629 443.17L302.664 443.275L302.699 443.363L302.717 443.468L302.752 443.573L302.787 443.679L302.804 443.802L302.84 443.907L302.857 444.012L302.892 444.135L302.91 444.24L302.945 444.363L302.962 444.486L302.98 444.608L303.015 444.731L303.033 444.854L303.05 444.977L303.068 445.117L303.103 445.24L303.12 445.38L303.138 445.503L303.155 445.643V445.784L303.173 445.924L303.19 446.064L303.208 446.205V446.345L303.225 446.485V446.643V446.783L303.243 446.941V447.099V447.239V447.397L303.225 447.555V447.713V447.871L303.208 448.046V448.204L303.19 448.362L303.173 448.537L303.155 448.713L303.138 448.871L303.12 449.046L303.103 449.222L303.068 449.397L303.033 449.555L303.015 449.73L302.98 449.923L302.945 450.099L302.91 450.274L302.857 450.449L302.822 450.625L302.769 450.818L302.717 450.993L302.664 451.186L302.612 451.361L302.559 451.554L302.489 451.73L302.436 451.923L302.366 452.116L302.296 452.291L302.226 452.484L302.155 452.677L302.068 452.852L301.998 453.045L301.91 453.238L301.822 453.431L301.735 453.607L301.629 453.8L301.542 453.993L301.436 454.185L301.331 454.378L301.226 454.554L301.121 454.747L300.998 454.94L300.893 455.133L300.77 455.308L300.647 455.501L300.524 455.694L300.384 455.869L300.261 456.062L300.121 456.238L299.98 456.431L299.84 456.606L299.682 456.799L299.542 456.974L299.384 457.15L299.226 457.325L299.068 457.501L298.911 457.694L298.735 457.851L298.577 458.027L298.402 458.202L298.226 458.378L298.033 458.536L297.858 458.711L297.665 458.869L297.472 459.044L297.279 459.202L297.086 459.36L296.893 459.518L296.683 459.676L296.472 459.816L296.279 459.974L296.051 460.114L295.841 460.272L295.63 460.412L295.402 460.553L295.174 460.693L294.946 460.833L294.718 460.956L294.49 461.096L294.245 461.219L294.017 461.342L293.771 461.465L293.526 461.588L293.28 461.693L293.034 461.816L292.789 461.921L292.526 462.026L292.263 462.131L292.017 462.219L291.754 462.324L291.491 462.412L291.21 462.5L290.947 462.587L290.684 462.658L290.403 462.745L290.123 462.815L289.86 462.886L289.579 462.956L289.298 463.008L289.018 463.078L288.737 463.131L288.439 463.184L288.158 463.219L287.86 463.271L287.579 463.307L287.281 463.342L287.001 463.377L286.702 463.394L286.404 463.412L286.106 463.429L285.808 463.447H285.51L285.211 463.464H284.913L284.615 463.447H284.317L284.001 463.429L283.703 463.412L283.405 463.394L283.089 463.359L282.791 463.324L282.493 463.289L282.177 463.254L281.879 463.201L281.581 463.149L281.265 463.096L280.967 463.043L280.668 462.973L280.37 462.903L280.054 462.833L279.756 462.763L279.458 462.675L279.16 462.587L278.862 462.5L278.564 462.394L278.265 462.307L277.967 462.201L277.669 462.079L277.371 461.973L277.073 461.851L276.792 461.728L276.494 461.605L276.213 461.465L275.915 461.324L275.634 461.184L275.354 461.044L275.073 460.886L274.792 460.728L274.512 460.57L274.231 460.412L273.95 460.237L273.687 460.062L273.407 459.886L273.144 459.711L272.88 459.518L272.617 459.342L272.354 459.149L272.109 458.939L271.846 458.746L271.6 458.536L271.354 458.325L271.109 458.115L270.863 457.904L270.618 457.676L270.39 457.448L270.144 457.22L269.916 456.992L269.688 456.764L269.478 456.518L269.25 456.273L269.039 456.027L268.829 455.782L268.618 455.536L268.408 455.273L268.215 455.027L268.004 454.764L267.811 454.501L267.618 454.221L267.443 453.957L267.267 453.677L267.075 453.414L266.899 453.133L266.741 452.852L266.566 452.572L266.408 452.274L266.25 451.993L266.11 451.695L265.952 451.414L265.812 451.116L265.671 450.818L265.531 450.52L265.408 450.221L265.285 449.923L265.163 449.607L265.04 449.309L264.935 448.993L264.829 448.695L264.724 448.38L264.619 448.064L264.531 447.748L264.443 447.432L264.356 447.117L264.286 446.801L264.198 446.485L264.145 446.169L264.075 445.854L264.005 445.538L263.952 445.222L263.9 444.889L263.865 444.573L263.83 444.258L263.794 443.924L263.759 443.609L263.724 443.293L263.707 442.96L263.689 442.644V442.328L263.672 441.995V441.679V441.363L263.689 441.03V440.714L263.707 440.399L263.742 440.083L263.759 439.767L263.794 439.451L263.83 439.136L263.865 438.82L263.917 438.504L263.97 438.189L264.023 437.873L264.075 437.575L264.145 437.259L264.215 436.961L264.286 436.645L264.356 436.347L264.443 436.049L264.531 435.75L264.619 435.452L264.707 435.154L264.812 434.856L264.9 434.558L265.005 434.277L265.128 433.996L265.233 433.698L265.356 433.418L265.478 433.137L265.601 432.856L265.724 432.593L265.864 432.312L266.005 432.049L266.145 431.769L266.285 431.506L266.443 431.243L266.583 430.997L266.741 430.734L266.899 430.488L267.057 430.225L267.215 429.98L267.39 429.734L267.566 429.506L267.741 429.26L267.916 429.032L268.092 428.804L268.267 428.576L268.46 428.348L268.653 428.12L268.829 427.91L269.022 427.699L269.232 427.489L269.425 427.278L269.618 427.068L269.828 426.875L270.021 426.682L270.232 426.489L270.442 426.296L270.653 426.103L270.863 425.928L271.074 425.752L271.302 425.577L271.512 425.402L271.74 425.244L271.951 425.086L272.179 424.928L272.407 424.77L272.635 424.612L272.845 424.472L273.073 424.332L273.301 424.191L273.547 424.051L273.775 423.928L274.003 423.788L274.231 423.665L274.459 423.56L274.705 423.437L274.933 423.332L275.161 423.209L275.406 423.104L275.634 423.016L275.88 422.911L276.108 422.823L276.353 422.735L276.581 422.648L276.827 422.56L277.055 422.49L277.283 422.42L277.529 422.35L277.757 422.279L278.002 422.209L278.23 422.157L278.458 422.104L278.704 422.051L278.932 421.999L279.16 421.946L279.405 421.911L279.634 421.876L279.862 421.841L280.09 421.806L280.318 421.771L280.546 421.753L280.774 421.736L281.002 421.718L281.23 421.701L281.44 421.683H281.668L281.896 421.665H282.107H282.335L282.545 421.683H282.756H282.966L283.177 421.701L283.387 421.718L283.598 421.736L283.808 421.753L284.019 421.771L284.212 421.806L284.422 421.823L284.615 421.858L284.826 421.893L285.018 421.929L285.211 421.964L285.404 421.999L285.597 422.051L285.773 422.086L285.966 422.139L286.141 422.174L286.334 422.227L286.509 422.279L286.685 422.332L286.86 422.385L287.036 422.455L287.211 422.507L287.369 422.56L287.544 422.63L287.702 422.683L287.86 422.753L288.018 422.823L288.176 422.893L288.334 422.963L288.491 423.034L288.649 423.104L288.79 423.174L288.93 423.244L289.088 423.314L289.228 423.384L289.368 423.472L289.491 423.542L289.632 423.612L289.772 423.7L289.895 423.77L290.017 423.858L290.158 423.928L290.281 424.016L290.386 424.104L290.509 424.174L290.631 424.261L290.737 424.332L290.859 424.419L290.965 424.507L291.07 424.577L291.175 424.665L291.28 424.753L291.386 424.823L291.491 424.91L291.579 424.998L291.684 425.068L291.772 425.156L291.877 425.244L291.964 425.314L292.052 425.402L292.14 425.489L292.228 425.559L292.298 425.647L292.385 425.717L292.473 425.805L292.543 425.875L292.613 425.945L292.701 426.033L292.771 426.103L292.841 426.173L292.912 426.261L292.982 426.331L293.052 426.401L293.122 426.472L293.175 426.542L293.245 426.612L293.298 426.682L293.368 426.752L293.42 426.822L293.49 426.875L293.543 426.945L293.596 427.015L293.648 427.068L293.719 427.138L293.771 427.208L293.824 427.261L293.876 427.313L293.929 427.384L293.982 427.436L294.034 427.489L294.069 427.541L294.122 427.594L294.175 427.647L294.227 427.699L294.28 427.752L294.315 427.805L294.368 427.857L294.42 427.892L294.473 427.945L294.508 427.98L294.56 428.033L294.613 428.068L294.648 428.12L294.701 428.155L294.753 428.19L294.788 428.226L294.841 428.261L294.894 428.296L294.929 428.331L294.981 428.366L295.034 428.401L295.087 428.436L295.122 428.471L295.174 428.489L295.227 428.524L295.28 428.559L295.332 428.576L295.385 428.611L295.437 428.629L295.49 428.664L295.543 428.682L295.595 428.699L295.648 428.734L295.701 428.752L295.771 428.769L295.823 428.787L295.876 428.804L295.946 428.839L295.999 428.857L296.069 428.875L296.122 428.892L296.192 428.91L296.262 428.927L296.332 428.945L296.385 428.962L296.455 428.98L296.525 428.997L296.595 429.015H296.665L296.753 429.032L296.823 429.05L296.893 429.068L296.981 429.085L297.051 429.103L297.139 429.12L297.209 429.138L297.297 429.155L297.384 429.173L297.472 429.19L297.56 429.208L297.648 429.225L297.735 429.243L297.823 429.26L297.911 429.278L298.016 429.296L298.104 429.331L298.209 429.348L298.297 429.366L298.402 429.401L298.49 429.418L298.595 429.436L298.7 429.471L298.805 429.506L298.911 429.524L299.016 429.559L299.139 429.594L299.244 429.611L299.349 429.646L299.472 429.681L299.577 429.717L299.7 429.769L299.805 429.804L299.928 429.839L300.051 429.892L300.173 429.927L300.279 429.98L300.401 430.015L300.524 430.067L300.647 430.12L300.787 430.173L300.91 430.225L301.033 430.278L301.156 430.348L301.296 430.401L301.419 430.471L301.542 430.523L301.682 430.594L301.805 430.664L301.945 430.734L302.085 430.804L302.208 430.874L302.348 430.962L302.471 431.032L302.612 431.12L302.752 431.207L302.892 431.295L303.015 431.383L303.155 431.471L303.296 431.576L303.436 431.664L303.576 431.769L303.699 431.874L303.839 431.979L303.98 432.084L304.12 432.19L304.26 432.295L304.383 432.418L304.523 432.541L304.664 432.663L304.804 432.786L304.927 432.909L305.067 433.032L305.208 433.172L305.33 433.312L305.471 433.435L305.593 433.575L305.734 433.733L305.857 433.874L305.997 434.014L306.12 434.172L306.242 434.33L306.365 434.488L306.488 434.645L306.611 434.803L306.734 434.979L306.856 435.137L306.979 435.312L307.102 435.487L307.225 435.663L307.33 435.838L307.453 436.031L307.558 436.206L307.663 436.399L307.768 436.592L307.874 436.785L307.979 436.978L308.084 437.171L308.189 437.382L308.277 437.592L308.382 437.785L308.47 437.996L308.558 438.206L308.645 438.434L308.733 438.645L308.821 438.855L308.891 439.083L308.979 439.311L309.049 439.539L309.119 439.767L309.189 439.995L309.259 440.223L309.33 440.451L309.382 440.697L309.435 440.942L309.487 441.17L309.54 441.416L309.593 441.662L309.645 441.907L309.68 442.153L309.715 442.416L309.751 442.661L309.786 442.907L309.821 443.17L309.838 443.433L309.856 443.679L309.873 443.942L309.891 444.205L309.908 444.468V444.731V444.994V445.257V445.538L309.891 445.801L309.873 446.064L309.856 446.345L309.838 446.608L309.821 446.889L309.786 447.152L309.751 447.432L309.715 447.695L309.68 447.976L309.628 448.257L309.575 448.52L309.522 448.801L309.47 449.081L309.4 449.344L309.33 449.625L309.259 449.906L309.189 450.169L309.119 450.449L309.031 450.73L308.944 450.993L308.856 451.274L308.751 451.537L308.645 451.818L308.54 452.081L308.435 452.361L308.33 452.624L308.207 452.905L308.084 453.168L307.961 453.431L307.821 453.694L307.681 453.957L307.558 454.221L307.4 454.484L307.26 454.747L307.102 455.01L306.944 455.273L306.786 455.519L306.628 455.782L306.453 456.027L306.278 456.273L306.102 456.536L305.927 456.781L305.734 457.009L305.558 457.255L305.365 457.501L305.155 457.729L304.962 457.974L304.751 458.202L304.541 458.43L304.331 458.658L304.12 458.886L303.892 459.114L303.664 459.325L303.453 459.535L303.208 459.746L302.98 459.956L302.734 460.167L302.506 460.377L302.261 460.57L302.015 460.763L301.752 460.956L301.506 461.149L301.243 461.342L300.98 461.517L300.717 461.693L300.454 461.868L300.173 462.044L299.91 462.219L299.63 462.377L299.349 462.535L299.068 462.693L298.788 462.85L298.507 462.991L298.209 463.131L297.928 463.271L297.63 463.412L297.332 463.535L297.034 463.675L296.735 463.78L296.437 463.903L296.122 464.026L295.823 464.131L295.508 464.236L295.209 464.341L294.894 464.429L294.578 464.517L294.262 464.605L293.947 464.692L293.631 464.762L293.315 464.833L292.999 464.903L292.666 464.973L292.35 465.025L292.035 465.078L291.701 465.131L291.386 465.166L291.052 465.201L290.719 465.236L290.403 465.271L290.07 465.289L289.754 465.306L289.421 465.324L289.088 465.341H288.755H288.439H288.106L287.772 465.324L287.457 465.306L287.123 465.289L286.79 465.271L286.474 465.236L286.141 465.201L285.825 465.166L285.492 465.113L285.176 465.061L284.843 465.008L284.527 464.955L284.212 464.885L283.878 464.815L283.563 464.745L283.247 464.675L282.931 464.587L282.615 464.499L282.3 464.412L282.001 464.306L281.686 464.219L281.388 464.113L281.072 463.991L280.774 463.885L280.475 463.763L280.16 463.64L279.879 463.517L279.581 463.377L279.283 463.254L278.985 463.114L278.704 462.956L278.423 462.815L278.125 462.658L277.844 462.5L277.581 462.342L277.301 462.184L277.02 462.009L276.757 461.833L276.494 461.658L276.231 461.482L275.968 461.307L275.704 461.114L275.459 460.921L275.213 460.728L274.95 460.535L274.722 460.325L274.477 460.132L274.231 459.921L274.003 459.711L273.775 459.5L273.547 459.272L273.319 459.062L273.108 458.834L272.88 458.606L272.67 458.395L272.459 458.15L272.267 457.922L272.056 457.694L271.863 457.448L271.67 457.202L271.495 456.974L271.302 456.729L271.126 456.483L270.951 456.22L270.776 455.975L270.6 455.729L270.442 455.466L270.284 455.22L270.127 454.957L269.969 454.694L269.828 454.431L269.688 454.168L269.548 453.905L269.407 453.642L269.285 453.379L269.162 453.115L269.039 452.835L268.916 452.572L268.811 452.309L268.688 452.028L268.601 451.765L268.495 451.484L268.39 451.221L268.302 450.94L268.215 450.66L268.127 450.397L268.057 450.116L267.987 449.835L267.916 449.572L267.846 449.292L267.794 449.011L267.724 448.748L267.671 448.467L267.618 448.187L267.583 447.924L267.548 447.643L267.496 447.38L267.478 447.099L267.443 446.836L267.425 446.555L267.39 446.292V446.012L267.373 445.749L267.355 445.485V445.205V444.942V444.679L267.373 444.415V444.152L267.39 443.889L267.408 443.626L267.425 443.381L267.46 443.117L267.478 442.872L267.513 442.609L267.548 442.363L267.583 442.1L267.636 441.855L267.671 441.609L267.724 441.363L267.776 441.118L267.829 440.89L267.899 440.644L267.952 440.416L268.022 440.171L268.092 439.943L268.162 439.715L268.232 439.487L268.302 439.259L268.39 439.03L268.46 438.82L268.548 438.592L268.636 438.382L268.723 438.171L268.811 437.961L268.899 437.75L269.004 437.54L269.092 437.347L269.197 437.136L269.302 436.943L269.407 436.75L269.513 436.557L269.618 436.364L269.723 436.171L269.846 435.996L269.951 435.803L270.074 435.628L270.197 435.452L270.302 435.277L270.425 435.101L270.548 434.944L270.67 434.768L270.793 434.61L270.916 434.452L271.039 434.295L271.179 434.137L271.302 433.996L271.425 433.839L271.565 433.698L271.688 433.558L271.828 433.418L271.951 433.277L272.091 433.137L272.231 433.014L272.354 432.874L272.495 432.751L272.635 432.628L272.758 432.505L272.898 432.4L273.038 432.277L273.179 432.172L273.319 432.067L273.442 431.944L273.582 431.839L273.722 431.751L273.863 431.646L274.003 431.558L274.126 431.453L274.266 431.365L274.406 431.278L274.547 431.19L274.67 431.102L274.81 431.015L274.95 430.944L275.073 430.874L275.213 430.786L275.354 430.716L275.476 430.646L275.617 430.576L275.74 430.506L275.88 430.453L276.003 430.383L276.125 430.33L276.266 430.278L276.389 430.208L276.511 430.155L276.634 430.102L276.757 430.067L276.88 430.015L277.002 429.962L277.125 429.927L277.248 429.874L277.353 429.839L277.476 429.787L277.599 429.752L277.704 429.717L277.827 429.681L277.932 429.646L278.037 429.611L278.16 429.576L278.265 429.559L278.371 429.524L278.476 429.488L278.581 429.471L278.686 429.436L278.792 429.418L278.879 429.383L278.985 429.366L279.09 429.348L279.177 429.313L279.283 429.296L279.37 429.278L279.458 429.26L279.546 429.243L279.634 429.225L279.721 429.208L279.809 429.19L279.897 429.173L279.984 429.155L280.072 429.138L280.142 429.12L280.23 429.103L280.3 429.085L280.388 429.068L280.458 429.05L280.528 429.032L280.598 429.015L280.668 428.997L280.756 428.98L280.809 428.962H280.879L280.949 428.945L281.019 428.927L281.089 428.91L281.142 428.892L281.212 428.875L281.265 428.839L281.335 428.822L281.388 428.804L281.458 428.787L281.51 428.769L281.563 428.752L281.616 428.717L281.686 428.699L281.738 428.682L281.791 428.647L281.844 428.629L281.896 428.611L281.949 428.576L282.001 428.541L282.037 428.524L282.089 428.489L282.142 428.454L282.194 428.436L282.247 428.401L282.282 428.366L282.335 428.331L282.387 428.296L282.44 428.261L282.475 428.226L282.528 428.19L282.58 428.138L282.615 428.103L282.668 428.068L282.721 428.015L282.756 427.98L282.808 427.927L282.861 427.892L282.896 427.84L282.949 427.787L283.001 427.734L283.054 427.699L283.089 427.647L283.142 427.594L283.194 427.541L283.247 427.471L283.299 427.419L283.352 427.366L283.405 427.313L283.457 427.243L283.51 427.191L283.563 427.121L283.615 427.068L283.668 426.998L283.738 426.928L283.791 426.875L283.843 426.805L283.913 426.735L283.966 426.664L284.036 426.594L284.106 426.524L284.159 426.454L284.229 426.384L284.299 426.314L284.369 426.243L284.44 426.156L284.51 426.086L284.58 426.015L284.668 425.928L284.738 425.858L284.808 425.787L284.896 425.7L284.983 425.63L285.054 425.542L285.141 425.472L285.229 425.384L285.317 425.296L285.404 425.226L285.51 425.138L285.597 425.068L285.703 424.981L285.79 424.893L285.895 424.823L286.001 424.735L286.106 424.647L286.211 424.577L286.316 424.489L286.422 424.402L286.544 424.332L286.65 424.244L286.772 424.156L286.895 424.086L287.018 423.998L287.141 423.911L287.264 423.84L287.386 423.753L287.527 423.683L287.65 423.612L287.79 423.525L287.93 423.455L288.07 423.367L288.211 423.297L288.351 423.227L288.509 423.156L288.649 423.086L288.807 423.016L288.965 422.946L289.105 422.876L289.263 422.806L289.439 422.735L289.597 422.683L289.754 422.613L289.93 422.56L290.088 422.49L290.263 422.437L290.438 422.385L290.614 422.332L290.789 422.279L290.965 422.227L291.158 422.174L291.333 422.121L291.526 422.086L291.719 422.034L291.912 421.999L292.087 421.964L292.298 421.911L292.491 421.876L292.684 421.858L292.877 421.823L293.087 421.788L293.298 421.771L293.49 421.753L293.701 421.736L293.911 421.718L294.122 421.701L294.332 421.683H294.543L294.771 421.665H294.981H295.192L295.42 421.683H295.648H295.858L296.086 421.701L296.315 421.718L296.543 421.736L296.771 421.753L296.999 421.788L297.227 421.806L297.455 421.841L297.683 421.876L297.911 421.911L298.139 421.964L298.384 421.999L298.612 422.051L298.84 422.104L299.086 422.174L299.314 422.227L299.542 422.297L299.788 422.35L300.016 422.42L300.261 422.507L300.489 422.578L300.735 422.665L300.963 422.753L301.208 422.841L301.436 422.928L301.682 423.034L301.91 423.139L302.138 423.244L302.384 423.349L302.612 423.455L302.84 423.577L303.085 423.7L303.313 423.823L303.541 423.946L303.769 424.086L303.997 424.209L304.225 424.349L304.453 424.507L304.681 424.647L304.909 424.805L305.137 424.963L305.348 425.121L305.576 425.279L305.786 425.437L306.014 425.612L306.225 425.787L306.435 425.963L306.646 426.156L306.856 426.331L307.067 426.524L307.277 426.717L307.488 426.91L307.681 427.121L307.874 427.313L308.084 427.524L308.277 427.734L308.47 427.945L308.663 428.173L308.838 428.383L309.031 428.611L309.207 428.839L309.382 429.068L309.558 429.313L309.733 429.541L309.908 429.787L310.066 430.032L310.242 430.278L310.4 430.541L310.557 430.786L310.715 431.05L310.856 431.295L311.013 431.558L311.154 431.839L311.294 432.102L311.417 432.365L311.557 432.646L311.68 432.926L311.82 433.19L311.926 433.47L312.048 433.768L312.171 434.049L312.276 434.33L312.382 434.628L312.487 434.926L312.575 435.207L312.662 435.505L312.75 435.803L312.838 436.101L312.925 436.417L312.995 436.715L313.066 437.013L313.136 437.329L313.206 437.627L313.259 437.943L313.311 438.259L313.364 438.574L313.399 438.873L313.434 439.188L313.469 439.504L313.504 439.82L313.539 440.153L313.557 440.469L313.574 440.785V441.1L313.592 441.416V441.749V442.065L313.574 442.381V442.714L313.557 443.03L313.522 443.345L313.504 443.679L313.469 443.994L313.434 444.31L313.399 444.643L313.346 444.959L313.294 445.275L313.241 445.608L313.171 445.924L313.118 446.24L313.048 446.555L312.96 446.871L312.89 447.187L312.803 447.503L312.715 447.818L312.627 448.134L312.522 448.45L312.417 448.748L312.311 449.064L312.189 449.362L312.083 449.678L311.961 449.976L311.838 450.274L311.698 450.59L311.557 450.888L311.417 451.169L311.277 451.467L311.136 451.765L310.978 452.046L310.82 452.344L310.663 452.624L310.487 452.905L310.329 453.186L310.154 453.466L309.961 453.747L309.786 454.01L309.593 454.291L309.4 454.554L309.207 454.817L309.014 455.08L308.821 455.326L308.61 455.589L308.4 455.834L308.189 456.08L307.961 456.325L307.751 456.571L307.523 456.817L307.295 457.045L307.067 457.273L306.839 457.501L306.593 457.729L306.348 457.939L306.102 458.167L305.857 458.378L305.611 458.588L305.365 458.781L305.102 458.992L304.857 459.185L304.594 459.377L304.331 459.57L304.067 459.746L303.787 459.921L303.524 460.097L303.243 460.272L302.98 460.447L302.699 460.605L302.419 460.763L302.138 460.921L301.857 461.061L301.577 461.219L301.278 461.36L300.998 461.482L300.717 461.623L300.419 461.745L300.121 461.868L299.84 461.991L299.542 462.114L299.244 462.219L298.946 462.324L298.647 462.412L298.349 462.517L298.051 462.605L297.753 462.693L297.437 462.78L297.139 462.85L296.841 462.921L296.543 462.991L296.227 463.061L295.929 463.114L295.63 463.166L295.315 463.219L295.017 463.254L294.718 463.307L294.403 463.342L294.104 463.377L293.806 463.394L293.49 463.412L293.192 463.429L292.894 463.447H292.596L292.298 463.464H292L291.684 463.447H291.386L291.105 463.429L290.807 463.412L290.509 463.394L290.21 463.359L289.912 463.342L289.632 463.307L289.333 463.254L289.053 463.219L288.755 463.166L288.474 463.114L288.193 463.061L287.913 463.008L287.632 462.938L287.351 462.868L287.071 462.798L286.808 462.728L286.527 462.658L286.264 462.57L285.983 462.482L285.72 462.394L285.457 462.307L285.194 462.201L284.948 462.096L284.685 462.009L284.44 461.903L284.177 461.78L283.931 461.675L283.685 461.552L283.44 461.43L283.194 461.307L282.966 461.184L282.721 461.061L282.493 460.939L282.265 460.798L282.037 460.658L281.809 460.518L281.598 460.377L281.37 460.237L281.16 460.097L280.949 459.939L280.739 459.798L280.528 459.641L280.335 459.483L280.142 459.325L279.932 459.167L279.739 459.009L279.563 458.834L279.37 458.676L279.195 458.518L279.002 458.343L278.827 458.167L278.651 457.992L278.493 457.816L278.318 457.641L278.16 457.466L278.002 457.29L277.844 457.115L277.687 456.939L277.546 456.764L277.388 456.571L277.248 456.396L277.108 456.203L276.985 456.027L276.845 455.834L276.722 455.659L276.599 455.466L276.476 455.273L276.353 455.08L276.231 454.905L276.125 454.712L276.02 454.519L275.897 454.326L275.81 454.15L275.704 453.957L275.599 453.764L275.512 453.572L275.424 453.379L275.336 453.203L275.248 453.01L275.178 452.817L275.091 452.624L275.02 452.449L274.95 452.256L274.88 452.063L274.81 451.888L274.757 451.695L274.687 451.519L274.634 451.326L274.582 451.151L274.529 450.958L274.477 450.783L274.442 450.59L274.389 450.414L274.354 450.239L274.319 450.063L274.284 449.888L274.249 449.695L274.214 449.52L274.196 449.362L274.161 449.186L274.143 449.011L274.126 448.836L274.108 448.678L274.091 448.502L274.073 448.344L274.056 448.169V448.011L274.038 447.853V447.678L274.021 447.52V447.362V447.222V447.064V446.906L274.038 446.766V446.608V446.468L274.056 446.31L274.073 446.169V446.029L274.091 445.889L274.108 445.749L274.126 445.608L274.143 445.485L274.161 445.345L274.178 445.205L274.196 445.082L274.214 444.959L274.231 444.836L274.266 444.714L274.284 444.591L274.301 444.468L274.336 444.345L274.354 444.222L274.389 444.117L274.406 443.994L274.442 443.889L274.459 443.766L274.494 443.661L274.512 443.556L274.547 443.451L274.582 443.345L274.599 443.24L274.634 443.153L274.67 443.047L274.687 442.96L274.722 442.854L274.757 442.767L274.775 442.679L274.81 442.574L274.827 442.486L274.863 442.398L274.898 442.311L274.915 442.24L274.95 442.153L274.968 442.065L275.003 441.995L275.02 441.907L275.055 441.837L275.073 441.749L275.108 441.679L275.126 441.609L275.161 441.521L275.178 441.451L275.196 441.381L275.213 441.311L275.248 441.241L275.266 441.188L275.283 441.118L275.301 441.048L275.319 440.977L275.336 440.907L275.354 440.855L275.371 440.785V440.732L275.389 440.662L275.406 440.609L275.424 440.539V440.486L275.441 440.416V440.364L275.459 440.311V440.241V440.188L275.476 440.136V440.065V440.013V439.96V439.89V439.837V439.785V439.715L275.459 439.662V439.609V439.539L275.441 439.487V439.434V439.364L275.424 439.311L275.406 439.241V439.188L275.389 439.118L275.371 439.066L275.354 438.995L275.336 438.943L275.319 438.873L275.301 438.802L275.283 438.75L275.266 438.68L275.248 438.61L275.231 438.539L275.213 438.469L275.196 438.399L275.161 438.329L275.143 438.259L275.126 438.189L275.091 438.101L275.073 438.031L275.038 437.961L275.02 437.873L274.985 437.803L274.968 437.715L274.933 437.627L274.915 437.54L274.88 437.469L274.845 437.382L274.827 437.294L274.792 437.206L274.757 437.101L274.74 437.013L274.705 436.926L274.687 436.82L274.652 436.733L274.617 436.627L274.599 436.522L274.564 436.417L274.529 436.312L274.512 436.206L274.477 436.101L274.459 435.996L274.424 435.891L274.389 435.768L274.371 435.663L274.336 435.54L274.319 435.417L274.301 435.312L274.266 435.189L274.249 435.066L274.231 434.926L274.214 434.803L274.178 434.68L274.161 434.54L274.143 434.417L274.126 434.277L274.108 434.154L274.091 434.014V433.874L274.073 433.733L274.056 433.593V433.435L274.038 433.295V433.137V432.997L274.021 432.839V432.698V432.541V432.383L274.038 432.225V432.067V431.909L274.056 431.734V431.576L274.073 431.418L274.091 431.243L274.108 431.085L274.126 430.909L274.143 430.734L274.178 430.558L274.196 430.383L274.231 430.208L274.266 430.032L274.301 429.857L274.336 429.681L274.371 429.506L274.406 429.331L274.459 429.138L274.512 428.962L274.547 428.787L274.599 428.594L274.652 428.419L274.722 428.226L274.775 428.05L274.845 427.857L274.915 427.664L274.985 427.489L275.055 427.296L275.126 427.103L275.213 426.91L275.283 426.735L275.371 426.542L275.459 426.349L275.547 426.156L275.652 425.98L275.74 425.787L275.845 425.594L275.95 425.402L276.055 425.209L276.161 425.033L276.283 424.84L276.406 424.647L276.511 424.454L276.634 424.279L276.774 424.086L276.897 423.911L277.038 423.718L277.178 423.525L277.318 423.349L277.459 423.174L277.599 422.981L277.757 422.806L277.915 422.63L278.072 422.455L278.23 422.262L278.388 422.086L278.564 421.911L278.721 421.753L278.897 421.578L279.09 421.402L279.265 421.244L279.441 421.069L279.634 420.911L279.826 420.736L280.019 420.578L280.212 420.42L280.423 420.262L280.616 420.122L280.826 419.964L281.037 419.806L281.247 419.666L281.458 419.525L281.686 419.368L281.914 419.227L282.124 419.105L282.352 418.964L282.58 418.824L282.826 418.701L283.054 418.578L283.299 418.456L283.545 418.333L283.791 418.21L284.036 418.105L284.282 417.982L284.527 417.877L284.79 417.771L285.054 417.666L285.299 417.579L285.562 417.473L285.825 417.386L286.106 417.298L286.369 417.21L286.632 417.14L286.913 417.052L287.193 416.982L287.474 416.912L287.737 416.842L288.018 416.789L288.316 416.737L288.597 416.684L288.877 416.631L289.158 416.579L289.456 416.544L289.754 416.509L290.035 416.473L290.333 416.438L290.631 416.421L290.93 416.386H291.21L291.508 416.368L291.807 416.351H292.122H292.421L292.719 416.368H293.017L293.315 416.386L293.613 416.403L293.929 416.438L294.227 416.456L294.525 416.491L294.841 416.526L295.139 416.579L295.437 416.614L295.753 416.666L296.051 416.719L296.35 416.789L296.665 416.842L296.964 416.912L297.262 417L297.56 417.07L297.876 417.158L298.174 417.245L298.472 417.333L298.77 417.438L299.068 417.543L299.367 417.649L299.665 417.754L299.945 417.877L300.244 417.999L300.542 418.122L300.822 418.245L301.121 418.385L301.401 418.526L301.682 418.666L301.98 418.806L302.261 418.964L302.541 419.122L302.804 419.28L303.085 419.438L303.366 419.613L303.629 419.789L303.91 419.964L304.173 420.139L304.436 420.332L304.699 420.525L304.962 420.718L305.208 420.911L305.471 421.104L305.716 421.315L305.962 421.525L306.207 421.736L306.453 421.964L306.698 422.174L306.926 422.402L307.155 422.63L307.383 422.858L307.611 423.104L307.839 423.349L308.049 423.577L308.277 423.823L308.488 424.086L308.698 424.332L308.891 424.595L309.102 424.84L309.294 425.103L309.487 425.366L309.68 425.647L309.856 425.91L310.049 426.191L310.224 426.454L310.4 426.735L310.557 427.015L310.715 427.313L310.891 427.594L311.049 427.875L311.189 428.173L311.347 428.471L311.487 428.752L311.627 429.05L311.75 429.348L311.89 429.664L312.013 429.962L312.136 430.26L312.241 430.576L312.347 430.874L312.452 431.19L312.557 431.506L312.662 431.804L312.75 432.12L312.838 432.435L312.925 432.751L312.995 433.067L313.066 433.382L313.136 433.698L313.206 434.031L313.259 434.347L313.311 434.663L313.364 434.979L313.416 435.312L313.452 435.628L313.487 435.943L313.504 436.277L313.539 436.592L313.557 436.908L313.574 437.241L313.592 437.557V437.873V438.206V438.522L313.574 438.838L313.557 439.171L313.539 439.487L313.522 439.802L313.487 440.118L313.469 440.434L313.434 440.749L313.381 441.065L313.346 441.381L313.294 441.679L313.241 441.995L313.171 442.311L313.101 442.609L313.048 442.924L312.96 443.223L312.89 443.521L312.803 443.837L312.715 444.135L312.627 444.433L312.539 444.731L312.434 445.012L312.329 445.31L312.224 445.591L312.118 445.889L311.996 446.169L311.89 446.45L311.768 446.731L311.627 447.011L311.505 447.292L311.364 447.555L311.241 447.818L311.084 448.099L310.943 448.362L310.803 448.625L310.645 448.871L310.487 449.134L310.329 449.379L310.171 449.642L310.014 449.888L309.838 450.116L309.663 450.362L309.487 450.607L309.312 450.835L309.137 451.063L308.961 451.291L308.768 451.519L308.575 451.73L308.382 451.958L308.189 452.168L307.996 452.379L307.804 452.589L307.593 452.782L307.4 452.975L307.19 453.186L306.979 453.361L306.769 453.554L306.558 453.747L306.348 453.922L306.137 454.098L305.927 454.273L305.699 454.431L305.488 454.606L305.26 454.764L305.032 454.922L304.822 455.08L304.594 455.22L304.366 455.378L304.138 455.519L303.91 455.659L303.682 455.782L303.453 455.922L303.208 456.045L302.98 456.168L302.752 456.29L302.524 456.396L302.278 456.518L302.05 456.624L301.805 456.729L301.577 456.817L301.349 456.922L301.103 457.009L300.875 457.097L300.629 457.185L300.401 457.273L300.156 457.343L299.928 457.413L299.682 457.483L299.454 457.553L299.226 457.606L298.981 457.676L298.753 457.729L298.507 457.781L298.279 457.834L298.051 457.869L297.823 457.904L297.577 457.957L297.349 457.992L297.121 458.009L296.893 458.044L296.665 458.062L296.437 458.079L296.227 458.097L295.999 458.115L295.771 458.132H295.543L295.332 458.15H295.104H294.894L294.683 458.132H294.455L294.245 458.115H294.034L293.824 458.097L293.613 458.079L293.42 458.062L293.21 458.027L292.999 458.009L292.806 457.974L292.596 457.957L292.403 457.922L292.21 457.887L292.017 457.851L291.824 457.799L291.631 457.764L291.456 457.711L291.263 457.676L291.087 457.623L290.895 457.571L290.719 457.518L290.544 457.466L290.368 457.413L290.193 457.36L290.017 457.29L289.86 457.238L289.684 457.167L289.526 457.115L289.368 457.045L289.211 456.974L289.053 456.922L288.895 456.852L288.737 456.781L288.597 456.711L288.439 456.624L288.299 456.553L288.158 456.483L288.018 456.413L287.878 456.325L287.737 456.255L287.597 456.185L287.474 456.097L287.334 456.027L287.211 455.94L287.088 455.869L286.965 455.782L286.843 455.711L286.72 455.624L286.615 455.536L286.492 455.466L286.387 455.378L286.281 455.291L286.159 455.22L286.053 455.133L285.948 455.045L285.86 454.975L285.755 454.887L285.65 454.799L285.562 454.729L285.475 454.642L285.369 454.554L285.282 454.484L285.194 454.396L285.106 454.326L285.018 454.238L284.948 454.15L284.861 454.08L284.79 454.01L284.703 453.922L284.633 453.852L284.562 453.764L284.475 453.694L284.405 453.624L284.334 453.554L284.264 453.466L284.212 453.396L284.141 453.326L284.071 453.256L284.001 453.186L283.948 453.115L283.878 453.045L283.826 452.993L283.773 452.923L283.703 452.852L283.65 452.782L283.598 452.73L283.545 452.659L283.492 452.607L283.44 452.537L283.387 452.484L283.335 452.431L283.282 452.361L283.229 452.309L283.177 452.256L283.124 452.203L283.071 452.151L283.036 452.098L282.984 452.046L282.931 452.01L282.879 451.958L282.843 451.905L282.791 451.87L282.738 451.818L282.703 451.782L282.65 451.73L282.598 451.695L282.563 451.66L282.51 451.607L282.458 451.572L282.405 451.537L282.37 451.502L282.317 451.467L282.265 451.432L282.23 451.397L282.177 451.379L282.124 451.344L282.072 451.309L282.019 451.291L281.966 451.256L281.914 451.221L281.861 451.204L281.809 451.169L281.756 451.151L281.703 451.133L281.651 451.098L281.598 451.081L281.545 451.063L281.493 451.046L281.423 451.011L281.37 450.993L281.3 450.976L281.247 450.958L281.177 450.94L281.124 450.923L281.054 450.905L280.984 450.888L280.932 450.87L280.861 450.853L280.791 450.835L280.721 450.818L280.651 450.8L280.581 450.783L280.493 450.765H280.423L280.353 450.748L280.265 450.73L280.195 450.712L280.107 450.695L280.037 450.677L279.949 450.66L279.862 450.642L279.774 450.625L279.686 450.607L279.598 450.59L279.511 450.572L279.423 450.555L279.335 450.52L279.23 450.502L279.142 450.484L279.037 450.467L278.949 450.432L278.844 450.414L278.739 450.397L278.651 450.362L278.546 450.344L278.441 450.309L278.336 450.274L278.213 450.256L278.108 450.221L278.002 450.186L277.897 450.151L277.774 450.116L277.669 450.081L277.546 450.046L277.423 450.011L277.318 449.958L277.195 449.923L277.073 449.871L276.95 449.835L276.827 449.783L276.704 449.73L276.581 449.678L276.459 449.625L276.336 449.572L276.213 449.52L276.073 449.467L275.95 449.397L275.827 449.344L275.687 449.274L275.564 449.204L275.424 449.134L275.301 449.064L275.161 448.993L275.02 448.923L274.898 448.836L274.757 448.765L274.617 448.678L274.494 448.59L274.354 448.502L274.214 448.415L274.073 448.327L273.933 448.222L273.81 448.134L273.67 448.029L273.529 447.924L273.389 447.818L273.249 447.713L273.126 447.608L272.986 447.485L272.845 447.38L272.705 447.257L272.582 447.134L272.442 447.011L272.302 446.889L272.179 446.748L272.039 446.626L271.898 446.485L271.775 446.345L271.635 446.205L271.512 446.064L271.372 445.906L271.249 445.766L271.126 445.608L270.986 445.45L270.863 445.292L270.741 445.135L270.618 444.977L270.495 444.801L270.372 444.643L270.249 444.468L270.144 444.293L270.021 444.117L269.916 443.942L269.793 443.749L269.688 443.556L269.583 443.381L269.478 443.188L269.355 442.995L269.267 442.802L269.162 442.591L269.057 442.398L268.969 442.188L268.864 441.977L268.776 441.767L268.688 441.556L268.601 441.346L268.513 441.135L268.425 440.907L268.355 440.679L268.267 440.469L268.197 440.241L268.127 440.013L268.057 439.785L267.987 439.539L267.934 439.311L267.864 439.066L267.811 438.838L267.759 438.592L267.706 438.346L267.653 438.101L267.618 437.855L267.566 437.61L267.531 437.347L267.496 437.101L267.478 436.855L267.443 436.592L267.425 436.329L267.408 436.084L267.39 435.821L267.373 435.557L267.355 435.294V435.031V434.768V434.488V434.224L267.373 433.961L267.39 433.698L267.408 433.418L267.425 433.154L267.46 432.874L267.478 432.611L267.513 432.33L267.548 432.049L267.601 431.786L267.653 431.506L267.688 431.243L267.759 430.962L267.811 430.681L267.881 430.418L267.934 430.137L268.004 429.857L268.092 429.594L268.162 429.313L268.25 429.032L268.337 428.769L268.443 428.489L268.53 428.208L268.636 427.945L268.741 427.664L268.846 427.401L268.969 427.138L269.092 426.857L269.214 426.594L269.337 426.331L269.46 426.068L269.6 425.805L269.741 425.542L269.881 425.279L270.039 425.016L270.197 424.753L270.355 424.489L270.512 424.244L270.67 423.981L270.846 423.735L271.021 423.49L271.197 423.244L271.372 422.999L271.565 422.753L271.758 422.507L271.951 422.262L272.144 422.034L272.354 421.788L272.547 421.56L272.758 421.332L272.968 421.104L273.196 420.894L273.407 420.666L273.635 420.455L273.863 420.227L274.091 420.017L274.336 419.806L274.564 419.613L274.81 419.403L275.055 419.21L275.301 418.999L275.564 418.824L275.81 418.631L276.073 418.438L276.336 418.263L276.599 418.087L276.862 417.912L277.143 417.736L277.406 417.561L277.687 417.403L277.967 417.245L278.248 417.087L278.528 416.947L278.827 416.789L279.107 416.649L279.405 416.509L279.704 416.386L279.984 416.245L280.283 416.123L280.598 416L280.896 415.877L281.195 415.772L281.51 415.667L281.809 415.561L282.124 415.456L282.44 415.368L282.756 415.281L283.071 415.193L283.387 415.105L283.703 415.035L284.019 414.965L284.334 414.895L284.65 414.842L284.983 414.772L285.299 414.719L285.632 414.684L285.948 414.632L286.281 414.597L286.597 414.562L286.93 414.544L287.264 414.509L287.579 414.491H287.913L288.246 414.474H288.562H288.895H289.228L289.544 414.491L289.877 414.509L290.21 414.526L290.526 414.562L290.859 414.579L291.193 414.614L291.508 414.667L291.842 414.702L292.157 414.754L292.473 414.807L292.806 414.877L293.122 414.93L293.438 415L293.754 415.088L294.069 415.158L294.385 415.246L294.701 415.333L295.017 415.421L295.332 415.526L295.648 415.632L295.946 415.737L296.244 415.842L296.56 415.965L296.858 416.07L297.156 416.193L297.455 416.333L297.753 416.456L298.033 416.596L298.332 416.737L298.612 416.877L298.911 417.035L299.191 417.193L299.472 417.35L299.752 417.508L300.016 417.666L300.296 417.842L300.559 418.017L300.822 418.192L301.086 418.368L301.349 418.561L301.612 418.736L301.857 418.929L302.103 419.122L302.348 419.333L302.594 419.525L302.84 419.736L303.068 419.946L303.313 420.157L303.541 420.367L303.769 420.578L303.98 420.806L304.208 421.016L304.418 421.244L304.629 421.472L304.839 421.701L305.032 421.946L305.243 422.174L305.436 422.42L305.629 422.648L305.821 422.893L305.997 423.139L306.172 423.384L306.348 423.63L306.523 423.893L306.698 424.139L306.856 424.402L307.014 424.647L307.172 424.91L307.312 425.174L307.47 425.437L307.611 425.7L307.751 425.963L307.874 426.226L308.014 426.489L308.137 426.752L308.26 427.033L308.365 427.296L308.488 427.559L308.593 427.84L308.698 428.103L308.786 428.383L308.891 428.664L308.979 428.927L309.066 429.208L309.137 429.471L309.224 429.752L309.294 430.032L309.365 430.295L309.435 430.576L309.487 430.857L309.54 431.12L309.593 431.4L309.645 431.681L309.698 431.944L309.733 432.225L309.768 432.505L309.803 432.769L309.821 433.049L309.856 433.312L309.873 433.593L309.891 433.856V434.119L309.908 434.4V434.663V434.926V435.189L309.891 435.452V435.715L309.873 435.978L309.856 436.242L309.821 436.487L309.803 436.75L309.768 436.996L309.733 437.259L309.698 437.504L309.663 437.75L309.628 438.013L309.575 438.259L309.522 438.487L309.47 438.732L309.417 438.978L309.365 439.223L309.294 439.451L309.224 439.679L309.172 439.925L309.102 440.153L309.014 440.381L308.944 440.592L308.873 440.82L308.786 441.048L308.698 441.258L308.61 441.469L308.523 441.697L308.435 441.907L308.33 442.1L308.242 442.311L308.137 442.521L308.049 442.714L307.944 442.907L307.839 443.117L307.733 443.31L307.628 443.486L307.505 443.679L307.4 443.854L307.277 444.047L307.172 444.222L307.049 444.398L306.926 444.573L306.821 444.749L306.698 444.907L306.576 445.082L306.435 445.24L306.313 445.398L306.19 445.556L306.067 445.713L305.944 445.854L305.804 446.012L305.681 446.152L305.541 446.292L305.418 446.433L305.278 446.573L305.137 446.696L305.015 446.836L304.874 446.959L304.734 447.082L304.611 447.204L304.471 447.327L304.331 447.45L304.19 447.555L304.067 447.678L303.927 447.783L303.787 447.888L303.646 447.994L303.506 448.081L303.383 448.187L303.243 448.292L303.103 448.38L302.962 448.467L302.822 448.555L302.699 448.643L302.559 448.73L302.419 448.801L302.296 448.888L302.155 448.958L302.015 449.046L301.892 449.116L301.752 449.186L301.629 449.257L301.489 449.309L301.366 449.379L301.243 449.432L301.103 449.502L300.98 449.555L300.857 449.607L300.735 449.66L300.612 449.713L300.489 449.765L300.366 449.818L300.244 449.853L300.121 449.906L299.998 449.941L299.875 449.993L299.77 450.028L299.647 450.063L299.524 450.099L299.419 450.134L299.314 450.169L299.191 450.204L299.086 450.239L298.981 450.274L298.875 450.291L298.77 450.327L298.665 450.362L298.56 450.379L298.454 450.414L298.349 450.432L298.262 450.449L298.156 450.484L298.069 450.502L297.963 450.52L297.876 450.537L297.788 450.555L297.7 450.572L297.613 450.59L297.525 450.625L297.437 450.642L297.349 450.66H297.262L297.174 450.677L297.104 450.695L297.016 450.712L296.946 450.73L296.858 450.748L296.788 450.765L296.718 450.783L296.648 450.8L296.578 450.818L296.507 450.835L296.437 450.853L296.367 450.87L296.297 450.888L296.227 450.905L296.174 450.923L296.104 450.94L296.034 450.958L295.981 450.976L295.911 450.993L295.858 451.011L295.806 451.028L295.736 451.046L295.683 451.081L295.63 451.098L295.578 451.116L295.525 451.151L295.473 451.169L295.42 451.186L295.367 451.221L295.315 451.239L295.262 451.274L295.209 451.309L295.157 451.326L295.104 451.361L295.069 451.397L295.017 451.432L294.964 451.449L294.911 451.484L294.876 451.519L294.824 451.554L294.771 451.607L294.718 451.642L294.683 451.677L294.631 451.712L294.578 451.765L294.543 451.8L294.49 451.853L294.438 451.888L294.403 451.94L294.35 451.993L294.297 452.028L294.262 452.081L294.21 452.133L294.157 452.186L294.104 452.238L294.052 452.291L293.999 452.344L293.964 452.396L293.911 452.467L293.859 452.519L293.806 452.572L293.736 452.642L293.683 452.695L293.631 452.765L293.578 452.835L293.526 452.887L293.455 452.958L293.403 453.028L293.333 453.098L293.28 453.168L293.21 453.238L293.157 453.308L293.087 453.379L293.017 453.449L292.947 453.519L292.877 453.589L292.806 453.659L292.736 453.747L292.666 453.817L292.596 453.887L292.508 453.975L292.438 454.045L292.35 454.133L292.263 454.203L292.193 454.291L292.105 454.361L292.017 454.449L291.929 454.536L291.824 454.606L291.736 454.694L291.649 454.764L291.544 454.852L291.456 454.94L291.351 455.01L291.245 455.098L291.14 455.185L291.035 455.255L290.93 455.343L290.807 455.431L290.702 455.501L290.579 455.589L290.456 455.676L290.351 455.747L290.228 455.834L290.105 455.904L289.965 455.992L289.842 456.062L289.719 456.15L289.579 456.22L289.439 456.308L289.298 456.378L289.158 456.448L289.018 456.536L288.877 456.606L288.737 456.676L288.579 456.746L288.421 456.817L288.281 456.887L288.123 456.957L287.965 457.027L287.807 457.08L287.632 457.15L287.474 457.22L287.299 457.273L287.141 457.325L286.965 457.395L286.79 457.448L286.615 457.501L286.439 457.553L286.246 457.606L286.071 457.658L285.895 457.694L285.703 457.746L285.51 457.781L285.317 457.834L285.124 457.869L284.931 457.904L284.738 457.939L284.545 457.974L284.334 457.992L284.141 458.027L283.931 458.044L283.72 458.062L283.51 458.097H283.317L283.107 458.115L282.879 458.132H282.668L282.458 458.15H282.247H282.019L281.809 458.132H281.581L281.352 458.115H281.124L280.914 458.097L280.686 458.079L280.458 458.044L280.23 458.027L280.002 457.992L279.774 457.957L279.528 457.922L279.3 457.887L279.072 457.851L278.844 457.799L278.599 457.746L278.371 457.694L278.143 457.641L277.897 457.571L277.669 457.518L277.423 457.448L277.195 457.378L276.95 457.29L276.722 457.22L276.494 457.132L276.248 457.045L276.02 456.957L275.775 456.869L275.547 456.764L275.301 456.659L275.073 456.553L274.845 456.448L274.599 456.325L274.371 456.22L274.143 456.097L273.898 455.975L273.67 455.834L273.442 455.711L273.214 455.571L272.986 455.431L272.758 455.291L272.53 455.133L272.302 454.992L272.091 454.834L271.863 454.677L271.653 454.501L271.425 454.343L271.214 454.168L270.986 453.993L270.776 453.817L270.565 453.624L270.355 453.449L270.144 453.256L269.951 453.063L269.741 452.852L269.548 452.659L269.337 452.449L269.144 452.238L268.951 452.028L268.758 451.818L268.565 451.607L268.39 451.379L268.197 451.151L268.022 450.923L267.846 450.695L267.671 450.449L267.496 450.221L267.32 449.976L267.162 449.73L266.987 449.485L266.829 449.239L266.671 448.976L266.531 448.713L266.373 448.467L266.233 448.204L266.092 447.924L265.952 447.66L265.812 447.397L265.671 447.117L265.549 446.836L265.426 446.555L265.303 446.275L265.198 445.994L265.075 445.713L264.97 445.415L264.864 445.135L264.759 444.836L264.672 444.538L264.584 444.24L264.496 443.942L264.408 443.644L264.321 443.345L264.251 443.047L264.18 442.732L264.11 442.433L264.058 442.118L264.005 441.802L263.952 441.504L263.9 441.188L263.847 440.872L263.812 440.557L263.777 440.241L263.759 439.925L263.724 439.609L263.707 439.294L263.689 438.96V438.645L263.672 438.329V438.013V437.68L263.689 437.364L263.707 437.048L263.724 436.715L263.742 436.399L263.777 436.084L263.794 435.75L263.847 435.435L263.882 435.119L263.935 434.786L263.987 434.47L264.04 434.154L264.093 433.839L264.163 433.505L264.233 433.19L264.321 432.874L264.391 432.558L264.479 432.242L264.566 431.927L264.672 431.628L264.759 431.313L264.864 430.997L264.97 430.699L265.092 430.383L265.215 430.085L265.338 429.769L265.461 429.471L265.584 429.173L265.724 428.875L265.864 428.576L266.022 428.278L266.162 427.998L266.32 427.699L266.478 427.419L266.636 427.138L266.811 426.857L266.969 426.577L267.145 426.296L267.338 426.015L267.513 425.752L267.706 425.472L267.899 425.209L268.092 424.946L268.285 424.682L268.495 424.437L268.706 424.174L268.916 423.928L269.127 423.683L269.337 423.437L269.565 423.191L269.793 422.963L270.021 422.718L270.249 422.49L270.477 422.262L270.723 422.051L270.951 421.823L271.197 421.613L271.442 421.402L271.705 421.192L271.951 420.981L272.214 420.788L272.459 420.595L272.723 420.403L272.986 420.21L273.249 420.034L273.529 419.859L273.793 419.683L274.073 419.508L274.336 419.333L274.617 419.175L274.898 419.017L275.178 418.859L275.459 418.719L275.757 418.578L276.038 418.438L276.318 418.298L276.617 418.157L276.897 418.035L277.195 417.912L277.494 417.807L277.792 417.684L278.09 417.579L278.388 417.473L278.686 417.368L278.985 417.28L279.283 417.193L279.581 417.105L279.879 417.017L280.177 416.947L280.493 416.877L280.791 416.807L281.089 416.754L281.405 416.684L281.703 416.631L282.001 416.596L282.317 416.544L282.615 416.509L282.914 416.473L283.212 416.438L283.528 416.421L283.826 416.386H284.124L284.44 416.368L284.738 416.351H285.036H285.334L285.632 416.368H285.931L286.229 416.386L286.527 416.403L286.825 416.421L287.106 416.456L287.404 416.491L287.702 416.526L287.983 416.561L288.281 416.614L288.562 416.649L288.842 416.701L289.123 416.772L289.404 416.824L289.684 416.894L289.965 416.947L290.246 417.035L290.526 417.105L290.789 417.175L291.052 417.263L291.333 417.35L291.596 417.438L291.859 417.526L292.122 417.631L292.368 417.736L292.631 417.842L292.877 417.947L293.14 418.052L293.385 418.175L293.631 418.28L293.876 418.403L294.104 418.526L294.35 418.648L294.578 418.771L294.824 418.912L295.052 419.052L295.28 419.175L295.49 419.315L295.718 419.455L295.929 419.613L296.139 419.754L296.35 419.894L296.56 420.052L296.771 420.21L296.964 420.367L297.174 420.525L297.367 420.683L297.56 420.841L297.753 420.999L297.928 421.174L298.121 421.332L298.297 421.508L298.472 421.683L298.647 421.858L298.805 422.034L298.981 422.209L299.139 422.385L299.296 422.56L299.454 422.735L299.595 422.911L299.752 423.104L299.893 423.279L300.033 423.455L300.173 423.648L300.314 423.823L300.437 424.016L300.577 424.209L300.7 424.384L300.822 424.577L300.945 424.77L301.05 424.946L301.173 425.138L301.278 425.331L301.384 425.524L301.489 425.717L301.577 425.893L301.682 426.086L301.77 426.279L301.857 426.472L301.945 426.647L302.033 426.84L302.103 427.033L302.191 427.226L302.261 427.401L302.331 427.594L302.401 427.787L302.454 427.962L302.524 428.155L302.576 428.348L302.629 428.524L302.699 428.717L302.734 428.892L302.787 429.068L302.84 429.26L302.875 429.436L302.91 429.611L302.962 429.787L302.997 429.98L303.015 430.155L303.05 430.33L303.085 430.488L303.103 430.664L303.12 430.839L303.155 431.015L303.173 431.172L303.19 431.348V431.506L303.208 431.681L303.225 431.839V431.997V432.155L303.243 432.312V432.47V432.628V432.786L303.225 432.944V433.084V433.242L303.208 433.382V433.523L303.19 433.681V433.821L303.173 433.961L303.155 434.084L303.138 434.224L303.12 434.365L303.103 434.505L303.085 434.628L303.068 434.751L303.05 434.891L303.015 435.014L302.997 435.137L302.98 435.259L302.945 435.382L302.927 435.505L302.91 435.61L302.875 435.733L302.857 435.838L302.822 435.961L302.804 436.066L302.769 436.171L302.734 436.277L302.717 436.382L302.682 436.487L302.647 436.592L302.629 436.68L302.594 436.785L302.559 436.891L302.541 436.978L302.506 437.066L302.471 437.171L302.454 437.259L302.419 437.347L302.401 437.434L302.366 437.522L302.331 437.592L302.313 437.68L302.278 437.768L302.261 437.838L302.226 437.925L302.208 437.996L302.173 438.083L302.155 438.153L302.138 438.224L302.103 438.294L302.085 438.364L302.068 438.434L302.033 438.504L302.015 438.574L301.998 438.645L301.98 438.715L301.963 438.785L301.945 438.855L301.927 438.908L301.91 438.978L301.892 439.03L301.875 439.101V439.171L301.857 439.223L301.84 439.294V439.346L301.822 439.399V439.469L301.805 439.522V439.574V439.644L301.787 439.697V439.75V439.82V439.872" stroke="white" strokeWidth="1.57864"/>
<path d="M536.181 705.468H485.537C477.767 705.468 471.469 711.766 471.469 719.536V770.18C471.469 777.949 477.767 784.248 485.537 784.248H536.181C543.95 784.248 550.249 777.949 550.249 770.18V719.536C550.249 711.766 543.95 705.468 536.181 705.468Z" fill="white" fillOpacity="0.1"/>
<path d="M536.181 705H485.537C477.508 705 471 711.508 471 719.537V770.181C471 778.209 477.508 784.718 485.537 784.718H536.181C544.209 784.718 550.717 778.209 550.717 770.181V719.537C550.717 711.508 544.209 705 536.181 705Z" stroke="white" strokeOpacity="0.2" strokeWidth="0.937853"/>
<path d="M484.604 713.909C484.037 713.909 483.614 714.371 483.665 714.936L488.447 768.584C488.498 769.149 488.986 769.736 489.533 769.888L509.829 775.523C510.376 775.675 511.27 775.675 511.817 775.523L532.175 769.879C532.722 769.727 533.211 769.141 533.261 768.576L538.052 714.936C538.103 714.371 537.679 713.909 537.112 713.909H484.604ZM527.866 726.213C527.821 726.717 527.743 727.592 527.692 728.157L527.566 729.564C527.516 730.129 527.443 730.937 527.405 731.36C527.367 731.782 527.331 732.128 527.325 732.128C527.318 732.128 526.849 732.128 526.281 732.128H511.89C511.322 732.128 510.853 732.128 510.847 732.128C510.841 732.128 510.372 732.128 509.804 732.128H502.225C501.658 732.128 501.235 732.59 501.285 733.155L501.727 738.097C501.778 738.662 502.283 739.124 502.851 739.124H509.805C510.372 739.124 510.841 739.124 510.847 739.124C510.854 739.124 511.323 739.124 511.89 739.124H523.843C524.41 739.124 525.288 739.124 525.794 739.124C526.299 739.124 526.675 739.537 526.63 740.041C526.584 740.545 526.505 741.42 526.455 741.985L525.033 757.917C524.982 758.482 524.918 759.204 524.89 759.521C524.862 759.838 524.392 760.222 523.845 760.373L511.852 763.699C511.306 763.85 510.851 763.976 510.843 763.977C510.834 763.979 510.38 763.857 509.833 763.705L497.828 760.374C497.281 760.222 496.793 759.635 496.742 759.07L495.969 750.396C495.919 749.831 496.342 749.369 496.91 749.369H498.005C498.573 749.369 499.501 749.369 500.068 749.369H501.702C502.269 749.369 502.775 749.831 502.825 750.396L503.128 753.792C503.179 754.357 503.668 754.94 504.216 755.088L509.832 756.605C510.379 756.753 510.829 756.874 510.832 756.874C510.834 756.874 511.284 756.752 511.832 756.604L517.458 755.084C518.005 754.936 518.495 754.353 518.546 753.788L519.156 746.985C519.206 746.42 518.784 745.958 518.216 745.958H511.89C511.323 745.958 510.854 745.958 510.847 745.958C510.841 745.958 510.372 745.958 509.805 745.958H496.604C496.036 745.958 495.531 745.495 495.481 744.93L493.984 728.157C493.933 727.592 493.855 726.717 493.81 726.213C493.765 725.709 494.193 725.296 494.76 725.296H509.805C510.372 725.296 510.841 725.296 510.847 725.296C510.854 725.296 511.323 725.296 511.89 725.296H526.916C527.484 725.296 527.911 725.709 527.866 726.213Z" fill="white"/>
<path d="M643.243 214.271H593.537C585.767 214.271 579.469 220.57 579.469 228.339V278.045C579.469 285.815 585.767 292.113 593.537 292.113H643.243C651.013 292.113 657.311 285.815 657.311 278.045V228.339C657.311 220.57 651.013 214.271 643.243 214.271Z" fill="white" fillOpacity="0.1"/>
<path d="M643.243 213.802H593.537C585.509 213.802 579 220.311 579 228.339V278.045C579 286.074 585.509 292.582 593.537 292.582H643.243C651.272 292.582 657.78 286.074 657.78 278.045V228.339C657.78 220.311 651.272 213.802 643.243 213.802Z" stroke="white" strokeOpacity="0.2" strokeWidth="0.937853"/>
<path d="M602.688 247.771C604.729 239.604 609.833 235.521 618 235.521C630.25 235.521 631.781 244.709 637.906 246.24C641.99 247.261 645.563 245.729 648.625 241.646C646.583 249.813 641.479 253.896 633.312 253.896C621.063 253.896 619.531 244.709 613.406 243.177C609.323 242.157 605.75 243.688 602.688 247.771ZM587.375 266.146C589.417 257.979 594.521 253.896 602.688 253.896C614.937 253.896 616.469 263.084 622.594 264.615C626.677 265.636 630.25 264.104 633.312 260.021C631.271 268.188 626.167 272.271 618 272.271C605.75 272.271 604.219 263.084 598.094 261.552C594.01 260.532 590.437 262.063 587.375 266.146Z" fill="white"/>
<path d="M207.243 167.271H157.537C149.767 167.271 143.469 173.57 143.469 181.339V231.045C143.469 238.815 149.767 245.113 157.537 245.113H207.243C215.013 245.113 221.311 238.815 221.311 231.045V181.339C221.311 173.57 215.013 167.271 207.243 167.271Z" fill="white" fillOpacity="0.1"/>
<path d="M207.243 166.802H157.537C149.509 166.802 143 173.311 143 181.339V231.045C143 239.074 149.509 245.582 157.537 245.582H207.243C215.272 245.582 221.78 239.074 221.78 231.045V181.339C221.78 173.311 215.272 166.802 207.243 166.802Z" stroke="white" strokeOpacity="0.2" strokeWidth="0.937853"/>
<path d="M157.152 214.818C157.15 215.377 156.913 215.881 156.535 216.238H156.534C156.146 216.602 155.623 216.825 155.047 216.825C154.472 216.825 153.947 216.6 153.558 216.236L153.559 216.238C153.182 215.881 152.945 215.377 152.945 214.819C152.945 214.261 153.182 213.756 153.561 213.401C153.949 213.037 154.474 212.814 155.049 212.814C155.625 212.814 156.148 213.037 156.537 213.403L156.535 213.401C156.913 213.758 157.15 214.261 157.152 214.821V214.818ZM178.224 216.495H174.452L164.52 200.825C164.291 200.472 164.08 200.065 163.912 199.637L163.894 199.591H163.807C163.886 200.298 163.931 201.116 163.931 201.945C163.931 202.146 163.929 202.348 163.923 202.549V202.52V216.495H160.589V195.177H164.605L174.205 210.479C174.61 211.111 174.872 211.549 174.988 211.787H175.046C174.949 211.063 174.895 210.226 174.895 209.375C174.895 209.214 174.897 209.055 174.901 208.895V208.918V195.175H178.224V216.495ZM194.464 216.495H182.791V195.177H194.001V198.18H186.241V204.219H193.391V207.207H186.241V213.512H194.464V216.495ZM211.055 198.18H205.08V216.497H201.629V198.18H195.667V195.177H211.053L211.055 198.18Z" fill="white"/>
<path d="M249.243 286.271H199.537C191.767 286.271 185.469 292.57 185.469 300.339V350.045C185.469 357.815 191.767 364.113 199.537 364.113H249.243C257.013 364.113 263.311 357.815 263.311 350.045V300.339C263.311 292.57 257.013 286.271 249.243 286.271Z" fill="white" fillOpacity="0.1"/>
<path d="M249.243 285.802H199.537C191.509 285.802 185 292.311 185 300.339V350.045C185 358.074 191.509 364.582 199.537 364.582H249.243C257.272 364.582 263.78 358.074 263.78 350.045V300.339C263.78 292.311 257.272 285.802 249.243 285.802Z" stroke="white" strokeOpacity="0.2" strokeWidth="0.937853"/>
<g clip-path="url(#clip1_3_97)">
<path d="M249.912 313.01C249.912 312.037 249.702 311.177 249.278 310.439C248.861 309.714 248.237 309.106 247.4 308.625C240.488 304.674 233.57 300.734 226.661 296.779C224.798 295.712 222.993 295.751 221.144 296.833C218.393 298.442 204.62 306.266 200.516 308.623C198.826 309.593 198.003 311.078 198.003 313.008C198 320.954 198.003 328.901 198 336.848C198 337.799 198.201 338.642 198.607 339.369C199.024 340.116 199.657 340.741 200.513 341.233C204.618 343.59 218.393 351.413 221.143 353.023C222.992 354.105 224.798 354.143 226.662 353.077C233.571 349.121 240.489 345.182 247.402 341.23C248.258 340.739 248.891 340.114 249.308 339.367C249.713 338.64 249.915 337.797 249.915 336.846C249.915 336.846 249.915 320.957 249.912 313.01Z" fill="#646464"/>
<path d="M224.037 324.85L198.607 339.369C199.024 340.116 199.657 340.741 200.513 341.233C204.618 343.59 218.393 351.413 221.143 353.023C222.992 354.105 224.798 354.143 226.662 353.077C233.571 349.121 240.489 345.182 247.402 341.23C248.258 340.739 248.891 340.114 249.308 339.367L224.037 324.85Z" fill="#2E2E2E"/>
<path d="M249.912 313.01C249.912 312.037 249.702 311.177 249.278 310.439L224.037 324.85L249.308 339.367C249.713 338.64 249.915 337.797 249.915 336.846C249.915 336.846 249.915 320.957 249.912 313.01Z" fill="#464646"/>
<path d="M239.009 319.423V322.137H241.746V319.423H243.115V322.137H245.851V323.494H243.115V326.207H245.851V327.564H243.115V330.278H241.746V327.564H239.009V330.278H237.641V327.564H234.904V326.207H237.641V323.494H234.904V322.137H237.641V319.423H239.009ZM241.746 323.494H239.009V326.207H241.746V323.494Z" fill="white"/>
<path d="M224.093 305.794C231.231 305.794 237.464 309.638 240.802 315.352L240.77 315.297L232.371 320.092C230.716 317.314 227.682 315.439 224.202 315.401L224.093 315.4C218.786 315.4 214.484 319.666 214.484 324.928C214.484 326.648 214.946 328.262 215.751 329.655C217.407 332.522 220.521 334.456 224.093 334.456C227.687 334.456 230.818 332.497 232.466 329.599L232.426 329.669L240.812 334.486C237.51 340.152 231.363 343.984 224.308 344.061L224.093 344.062C216.932 344.062 210.681 340.194 207.352 334.45C205.726 331.646 204.796 328.395 204.796 324.928C204.796 314.36 213.435 305.794 224.093 305.794Z" fill="white"/>
</g>
<path d="M610.181 89.469H559.537C551.767 89.469 545.469 95.7674 545.469 103.537V154.181C545.469 161.95 551.767 168.249 559.537 168.249H610.181C617.95 168.249 624.249 161.95 624.249 154.181V103.537C624.249 95.7674 617.95 89.469 610.181 89.469Z" fill="white" fillOpacity="0.1"/>
<path d="M610.181 89H559.537C551.508 89 545 95.5083 545 103.537V154.181C545 162.209 551.508 168.717 559.537 168.717H610.181C618.209 168.717 624.717 162.209 624.717 154.181V103.537C624.717 95.5083 618.209 89 610.181 89Z" stroke="white" strokeOpacity="0.2" strokeWidth="0.937853"/>
<g clip-path="url(#clip2_3_97)">
<mask id="mask4_3_97" style="mask-type:luminance" maskUnits="userSpaceOnUse" x="560" y="104" width="51" height="51">
<path d="M611 104H560V155H611V104Z" fill="white"/>
</mask>
<g mask="url(#mask4_3_97)">
<path d="M583.83 104.014C583.72 104.024 583.371 104.059 583.057 104.084C575.813 104.737 569.028 108.645 564.731 114.652C562.338 117.993 560.808 121.781 560.229 125.795C560.025 127.196 560 127.609 560 129.509C560 131.408 560.025 131.822 560.229 133.223C561.615 142.8 568.43 150.846 577.673 153.827C579.328 154.361 581.073 154.725 583.057 154.944C583.83 155.029 587.17 155.029 587.943 154.944C591.368 154.565 594.269 153.718 597.131 152.257C597.57 152.032 597.654 151.973 597.594 151.923C597.554 151.893 595.685 149.385 593.442 146.354L589.364 140.845L584.254 133.283C581.442 129.125 579.129 125.725 579.109 125.725C579.089 125.72 579.069 129.08 579.059 133.183C579.044 140.367 579.039 140.656 578.949 140.825C578.82 141.07 578.72 141.169 578.511 141.279C578.351 141.359 578.211 141.374 577.459 141.374H576.596L576.367 141.229C576.217 141.135 576.108 141.01 576.033 140.865L575.928 140.641L575.938 130.645L575.953 120.645L576.108 120.45C576.187 120.346 576.357 120.211 576.477 120.146C576.681 120.047 576.761 120.037 577.623 120.037C578.64 120.037 578.81 120.076 579.074 120.366C579.149 120.445 581.916 124.613 585.226 129.633C588.536 134.654 593.063 141.508 595.286 144.874L599.324 150.991L599.529 150.856C601.338 149.679 603.253 148.004 604.768 146.259C607.994 142.555 610.073 138.039 610.771 133.223C610.975 131.822 611 131.408 611 129.509C611 127.609 610.975 127.196 610.771 125.795C609.385 116.218 602.57 108.172 593.327 105.19C591.697 104.662 589.962 104.298 588.018 104.079C587.539 104.029 584.244 103.974 583.83 104.014ZM594.269 119.438C594.509 119.558 594.703 119.787 594.773 120.027C594.813 120.156 594.823 122.928 594.813 129.175L594.798 138.138L593.217 135.715L591.632 133.293V126.777C591.632 122.564 591.652 120.196 591.682 120.081C591.762 119.802 591.936 119.583 592.175 119.453C592.38 119.349 592.454 119.339 593.237 119.339C593.975 119.339 594.105 119.349 594.269 119.438Z" fill="white"/>
</g>
</g>
</g>
</g>
<defs>
<radialGradient id="paint0_radial_3_97" cx="0" cy="0" r="1" gradientUnits="userSpaceOnUse" gradientTransform="translate(418.5 436.508) rotate(90) scale(406.036 369.249)">
<stop stopColor="white"/>
<stop offset="1" stopColor="white" stop-opacity="0"/>
</radialGradient>
<linearGradient id="paint1_linear_3_97" x1="147" y1="-665" x2="707.022" y2="979.061" gradientUnits="userSpaceOnUse">
<stop offset="0.416946"/>
<stop offset="0.880782" stop-opacity="0.02"/>
</linearGradient>
<linearGradient id="paint2_linear_3_97" x1="287.529" y1="553.199" x2="312.558" y2="587.19" gradientUnits="userSpaceOnUse">
<stop stopColor="white" stop-opacity="0"/>
<stop offset="1" stopColor="white"/>
</linearGradient>
<linearGradient id="paint3_linear_3_97" x1="314.81" y1="545.318" x2="319.958" y2="580.638" gradientUnits="userSpaceOnUse">
<stop offset="0.0001" stopColor="white"/>
</linearGradient>
<clipPath id="clip0_3_97">
<rect width="701" height="772" fill="white" transform="translate(68 50)"/>
</clipPath>
<clipPath id="clip1_3_97">
<rect width="52" height="58" fill="white" transform="translate(198 296)"/>
</clipPath>
<clipPath id="clip2_3_97">
<rect width="51" height="51" fill="white" transform="translate(560 104)"/>
</clipPath>
</defs>
</svg>
