<svg width="800" height="900" viewBox="0 0 800 900" fill="none" xmlns="http://www.w3.org/2000/svg">
<path d="M391.469 628.965C391.469 623.837 391.469 621.274 392.483 619.322C393.337 617.678 394.678 616.337 396.322 615.483C398.273 614.469 400.837 614.469 405.964 614.469H455.753C460.881 614.469 463.444 614.469 465.396 615.483C467.04 616.337 468.381 617.678 469.235 619.322C470.249 621.274 470.249 623.837 470.249 628.965V678.754C470.249 683.881 470.249 686.445 469.235 688.396C468.381 690.04 467.04 691.381 465.396 692.235C463.444 693.249 460.881 693.249 455.753 693.249H405.964C400.837 693.249 398.273 693.249 396.322 692.235C394.678 691.381 393.337 690.04 392.483 688.396C391.469 686.445 391.469 683.881 391.469 678.754V628.965Z" fill="white" fill-opacity="0.1"/>
<path d="M455.753 614H405.964H405.942C403.397 614 401.459 614 399.913 614.129C398.358 614.258 397.16 614.519 396.106 615.067C394.376 615.966 392.965 617.376 392.066 619.106C391.519 620.16 391.257 621.359 391.128 622.914C391 624.459 391 626.398 391 628.942V628.965V678.754V678.776C391 681.321 391 683.259 391.128 684.805C391.257 686.36 391.519 687.558 392.066 688.612C392.965 690.342 394.376 691.753 396.106 692.651C397.16 693.199 398.358 693.46 399.913 693.59C401.458 693.718 403.397 693.718 405.942 693.718H405.964H455.753H455.776C458.321 693.718 460.259 693.718 461.804 693.59C463.36 693.46 464.558 693.199 465.612 692.651C467.342 691.753 468.753 690.342 469.651 688.612C470.199 687.558 470.46 686.36 470.59 684.805C470.718 683.259 470.718 681.321 470.718 678.776V678.754V628.965V628.942C470.718 626.398 470.718 624.459 470.59 622.914C470.46 621.359 470.199 620.16 469.651 619.106C468.753 617.376 467.342 615.966 465.612 615.067C464.558 614.519 463.36 614.258 461.804 614.129C460.259 614 458.321 614 455.776 614H455.753Z" stroke="white" stroke-opacity="0.2" stroke-width="0.937853"/>
<mask id="mask0_3_97" style="mask-type:luminance" maskUnits="userSpaceOnUse" x="403" y="626" width="56" height="56">
<path d="M458.056 626.662H403.66V681.057H458.056V626.662Z" fill="white"/>
</mask>
<g mask="url(#mask0_3_97)">
<path d="M407.06 626.662H454.656L450.327 675.534L430.806 681.057L411.394 675.532L407.06 626.662ZM445.794 636.664L415.922 636.657L416.405 642.6L439.353 642.604L438.775 648.76H423.725L424.269 654.592H438.281L437.451 662.576L430.856 664.399L424.156 662.563L423.73 657.78H417.815L418.472 666.518L430.858 670.378L443.036 666.91L445.794 636.666V636.664Z" fill="white"/>
</g>
<path d="M411.243 380.469H361.537C353.767 380.469 347.469 386.767 347.469 394.537V444.243C347.469 452.013 353.767 458.311 361.537 458.311H411.243C419.013 458.311 425.311 452.013 425.311 444.243V394.537C425.311 386.767 419.013 380.469 411.243 380.469Z" fill="white" fill-opacity="0.1"/>
<path d="M411.243 380H361.537C353.509 380 347 386.508 347 394.537V444.243C347 452.272 353.509 458.78 361.537 458.78H411.243C419.272 458.78 425.78 452.272 425.78 444.243V394.537C425.78 386.508 419.272 380 411.243 380Z" stroke="white" stroke-opacity="0.2" stroke-width="0.937853"/>
<path d="M399.758 441.283C401.326 443.843 403.366 445.725 406.974 445.725C410.005 445.725 411.941 444.21 411.941 442.117C411.941 439.609 409.952 438.72 406.616 437.261L404.787 436.477C399.509 434.228 396.002 431.411 396.002 425.455C396.002 419.969 400.182 415.793 406.715 415.793C411.365 415.793 414.709 417.412 417.118 421.65L411.422 425.307C410.168 423.058 408.815 422.172 406.715 422.172C404.572 422.172 403.214 423.531 403.214 425.307C403.214 427.501 404.573 428.39 407.712 429.749L409.54 430.532C415.755 433.197 419.264 435.914 419.264 442.023C419.264 448.609 414.091 452.217 407.143 452.217C400.35 452.217 395.961 448.979 393.814 444.736L399.758 441.283ZM373.919 441.917C375.068 443.956 376.113 445.679 378.626 445.679C381.029 445.679 382.545 444.739 382.545 441.083V416.211H389.86V441.182C389.86 448.756 385.419 452.203 378.937 452.203C373.081 452.203 369.689 449.172 367.964 445.522L373.919 441.917Z" fill="white"/>
<path d="M301.243 293.469H252.475C244.187 293.469 237.469 300.187 237.469 308.475V357.243C237.469 365.53 244.187 372.249 252.475 372.249H301.243C309.53 372.249 316.249 365.53 316.249 357.243V308.475C316.249 300.187 309.53 293.469 301.243 293.469Z" fill="white" fill-opacity="0.1"/>
<path d="M301.243 293H252.475C243.928 293 237 299.928 237 308.475V357.243C237 365.789 243.928 372.717 252.475 372.717H301.243C309.789 372.717 316.717 365.789 316.717 357.243V308.475C316.717 299.928 309.789 293 301.243 293Z" stroke="white" stroke-opacity="0.2" stroke-width="0.937853"/>
<path d="M267.025 327.277C258.518 340.721 256.024 354.118 261.455 357.201C266.886 360.284 278.186 351.884 286.693 338.44C295.2 324.996 297.694 311.598 292.263 308.516C286.832 305.433 275.532 313.833 267.025 327.277Z" stroke="white" stroke-width="2.73905"/>
<path d="M266.847 338.117C274.912 351.831 285.932 360.594 291.461 357.69C296.989 354.786 294.933 341.314 286.868 327.6C278.803 313.886 267.783 305.123 262.254 308.027C256.726 310.931 258.782 324.403 266.847 338.117Z" stroke="white" stroke-width="2.73905"/>
<path d="M276.682 343.702C293.254 343.972 306.768 339.338 306.865 333.351C306.963 327.364 293.607 322.292 277.035 322.022C260.462 321.752 246.949 326.387 246.851 332.373C246.754 338.36 260.109 343.432 276.682 343.702Z" stroke="white" stroke-width="2.73905"/>
<path d="M276.796 338.15C279.885 338.201 282.427 335.873 282.475 332.95C282.522 330.028 280.057 327.619 276.969 327.568C273.88 327.518 271.338 329.846 271.29 332.768C271.243 335.69 273.708 338.1 276.796 338.15Z" fill="white"/>
<path d="M504.085 490.215L453.444 489.635C445.675 489.546 439.305 495.772 439.216 503.541L438.636 554.182C438.547 561.951 444.773 568.321 452.542 568.41L503.182 568.99C510.951 569.079 517.321 562.853 517.41 555.084L517.99 504.443C518.079 496.674 511.854 490.304 504.085 490.215Z" fill="white" fill-opacity="0.1"/>
<path d="M504.09 489.747L453.449 489.166C445.421 489.075 438.838 495.508 438.747 503.536L438.166 554.177C438.075 562.204 444.508 568.787 452.536 568.879L503.177 569.459C511.204 569.551 517.787 563.117 517.879 555.09L518.459 504.449C518.551 496.421 512.117 489.838 504.09 489.747Z" stroke="white" stroke-opacity="0.2" stroke-width="0.937853"/>
<path d="M502.445 540.237C495.822 545.012 486.251 547.478 478.047 547.384C466.549 547.252 456.237 542.882 448.493 535.726C447.881 535.16 448.449 534.407 449.182 534.855C457.59 539.863 467.995 542.956 478.795 543.08C486.081 543.164 494.103 541.738 501.504 538.709C502.608 538.222 503.532 539.45 502.445 540.237ZM505.215 537.154C504.389 536.066 499.672 536.571 497.533 536.806C496.893 536.879 496.8 536.319 497.384 535.906C501.167 533.314 507.326 534.144 508.034 535.03C508.743 535.937 507.754 542.094 504.207 545.008C503.663 545.461 503.146 545.216 503.393 544.62C504.214 542.653 506.041 538.221 505.215 537.154Z" fill="white"/>
<path d="M465.273 524.379C465.264 525.117 465.337 525.717 465.472 526.158C465.627 526.599 465.821 527.08 466.094 527.602C466.192 527.763 466.23 527.923 466.229 528.063C466.227 528.263 466.104 528.461 465.843 528.658L464.575 529.482C464.394 529.599 464.214 529.657 464.054 529.655C463.855 529.653 463.656 529.551 463.459 529.369C463.183 529.066 462.947 528.744 462.751 528.423C462.555 528.081 462.36 527.699 462.146 527.238C460.568 529.056 458.601 529.952 456.245 529.925C454.569 529.906 453.237 529.412 452.269 528.442C451.302 527.473 450.818 526.19 450.836 524.593C450.856 522.896 451.47 521.526 452.7 520.501C453.929 519.477 455.552 518.977 457.608 519C458.287 519.008 458.985 519.076 459.722 519.184C460.46 519.293 461.217 519.461 462.013 519.65L462.03 518.193C462.047 516.676 461.74 515.614 461.128 514.988C460.496 514.362 459.422 514.05 457.885 514.033C457.186 514.025 456.467 514.096 455.726 514.267C454.985 514.439 454.264 514.65 453.562 514.921C453.241 515.057 453.001 515.135 452.861 515.173C452.721 515.211 452.62 515.23 452.541 515.229C452.261 515.226 452.124 515.025 452.129 514.605L452.14 513.627C452.143 513.308 452.186 513.069 452.287 512.93C452.389 512.792 452.57 512.654 452.851 512.518C453.554 512.166 454.396 511.876 455.377 511.648C456.358 511.4 457.397 511.292 458.495 511.304C460.87 511.332 462.601 511.891 463.706 512.981C464.792 514.072 465.332 515.715 465.307 517.911L465.233 524.378L465.273 524.379ZM457.134 527.32C457.792 527.328 458.472 527.216 459.194 526.984C459.915 526.753 460.559 526.321 461.105 525.729C461.429 525.353 461.673 524.936 461.798 524.459C461.923 523.981 462.01 523.403 462.018 522.724L462.027 521.886C461.45 521.74 460.833 521.613 460.195 521.526C459.557 521.438 458.938 521.391 458.32 521.384C456.982 521.369 456.001 521.617 455.336 522.149C454.671 522.68 454.343 523.435 454.332 524.433C454.321 525.371 454.553 526.073 455.046 526.558C455.52 527.062 456.215 527.31 457.134 527.32ZM473.138 529.66C472.779 529.655 472.54 529.593 472.382 529.451C472.224 529.33 472.087 529.049 471.972 528.668L467.457 513.184C467.342 512.783 467.285 512.523 467.287 512.383C467.29 512.064 467.452 511.886 467.772 511.89L469.728 511.912C470.107 511.917 470.366 511.979 470.504 512.121C470.662 512.242 470.779 512.523 470.894 512.904L474.097 526.157L477.362 512.978C477.466 512.58 477.589 512.322 477.75 512.204C477.911 512.086 478.192 512.009 478.551 512.013L480.148 512.032C480.527 512.036 480.786 512.099 480.944 512.24C481.102 512.362 481.239 512.643 481.314 513.023L484.315 526.434L487.922 513.099C488.046 512.701 488.189 512.443 488.33 512.325C488.491 512.207 488.751 512.13 489.111 512.134L490.967 512.156C491.286 512.159 491.464 512.321 491.46 512.66C491.459 512.76 491.438 512.86 491.417 512.979C491.395 513.099 491.354 513.258 491.271 513.477L486.284 528.852C486.159 529.25 486.017 529.508 485.856 529.626C485.695 529.743 485.434 529.82 485.095 529.816L483.378 529.797C482.999 529.792 482.74 529.73 482.582 529.588C482.424 529.447 482.287 529.185 482.212 528.785L479.265 515.875L476.044 528.695C475.94 529.093 475.817 529.351 475.656 529.489C475.494 529.627 475.214 529.683 474.855 529.679L473.138 529.66ZM498.783 530.492C497.745 530.48 496.708 530.349 495.713 530.098C494.717 529.847 493.942 529.578 493.426 529.273C493.109 529.09 492.892 528.888 492.814 528.707C492.736 528.526 492.698 528.326 492.7 528.147L492.712 527.129C492.717 526.71 492.879 526.512 493.178 526.515C493.298 526.517 493.418 526.538 493.537 526.579C493.656 526.62 493.835 526.702 494.034 526.784C494.709 527.092 495.445 527.34 496.221 527.508C497.018 527.677 497.796 527.766 498.594 527.775C499.852 527.789 500.832 527.581 501.516 527.15C502.2 526.718 502.566 526.084 502.576 525.265C502.582 524.706 502.408 524.245 502.053 523.862C501.698 523.478 501.023 523.131 500.049 522.801L497.164 521.869C495.712 521.393 494.642 520.702 493.994 519.797C493.345 518.911 493.017 517.929 493.029 516.891C493.039 516.052 493.227 515.316 493.593 514.681C493.96 514.046 494.445 513.493 495.049 513.061C495.653 512.609 496.336 512.277 497.137 512.047C497.938 511.816 498.778 511.726 499.656 511.736C500.095 511.741 500.554 511.766 500.993 511.831C501.451 511.896 501.869 511.981 502.288 512.066C502.686 512.17 503.064 512.274 503.422 512.398C503.78 512.522 504.058 512.645 504.256 512.767C504.534 512.93 504.732 513.092 504.849 513.273C504.967 513.434 505.025 513.654 505.021 513.934L505.011 514.872C505.006 515.291 504.844 515.509 504.544 515.505C504.384 515.503 504.126 515.421 503.788 515.257C502.657 514.725 501.382 514.451 499.965 514.435C498.827 514.422 497.927 514.591 497.303 514.963C496.68 515.335 496.354 515.911 496.345 516.729C496.338 517.288 496.533 517.769 496.927 518.153C497.322 518.537 498.057 518.925 499.111 519.276L501.935 520.207C503.367 520.683 504.398 521.333 505.007 522.159C505.616 522.984 505.905 523.926 505.893 524.964C505.883 525.822 505.695 526.599 505.348 527.273C504.981 527.948 504.495 528.541 503.87 529.013C503.246 529.505 502.503 529.856 501.642 530.106C500.74 530.375 499.801 530.504 498.783 530.492Z" fill="white"/>
<path d="M352.181 148.469H301.537C293.767 148.469 287.469 154.767 287.469 162.537V213.181C287.469 220.95 293.767 227.249 301.537 227.249H352.181C359.95 227.249 366.249 220.95 366.249 213.181V162.537C366.249 154.767 359.95 148.469 352.181 148.469Z" fill="white" fill-opacity="0.1"/>
<path d="M352.181 148H301.537C293.508 148 287 154.508 287 162.537V213.181C287 221.209 293.508 227.717 301.537 227.717H352.181C360.209 227.717 366.717 221.209 366.717 213.181V162.537C366.717 154.508 360.209 148 352.181 148Z" stroke="white" stroke-opacity="0.2" stroke-width="0.937853"/>
<path d="M306.727 197.044L312.641 158.999C312.684 158.717 312.815 158.456 313.015 158.252C313.215 158.049 313.474 157.914 313.755 157.866C314.036 157.818 314.325 157.861 314.581 157.987C314.837 158.113 315.047 158.317 315.18 158.569L321.54 170.501L306.727 197.044ZM348.731 206.276L343.099 171.264C343.057 171.019 342.949 170.789 342.786 170.601C342.624 170.413 342.412 170.273 342.175 170.197C341.938 170.121 341.685 170.111 341.443 170.169C341.201 170.227 340.979 170.351 340.803 170.526L305.288 206.276L324.939 217.35C325.545 217.691 326.228 217.87 326.923 217.87C327.619 217.87 328.302 217.691 328.908 217.35L348.731 206.276ZM332.762 175.723L328.21 167.015C328.095 166.796 327.923 166.612 327.711 166.484C327.5 166.356 327.257 166.289 327.01 166.289C326.762 166.289 326.52 166.356 326.308 166.484C326.097 166.612 325.924 166.796 325.809 167.015L305.826 202.824L332.762 175.723Z" fill="white"/>
<path d="M523.181 358.469H472.537C464.767 358.469 458.469 364.767 458.469 372.537V423.181C458.469 430.95 464.767 437.249 472.537 437.249H523.181C530.95 437.249 537.249 430.95 537.249 423.181V372.537C537.249 364.767 530.95 358.469 523.181 358.469Z" fill="white" fill-opacity="0.1"/>
<path d="M523.181 358H472.537C464.508 358 458 364.508 458 372.537V423.181C458 431.209 464.508 437.717 472.537 437.717H523.181C531.209 437.717 537.717 431.209 537.717 423.181V372.537C537.717 364.508 531.209 358 523.181 358Z" stroke="white" stroke-opacity="0.2" stroke-width="0.937853"/>
<mask id="mask1_3_97" style="mask-type:luminance" maskUnits="userSpaceOnUse" x="467" y="367" width="61" height="61">
<path d="M527.927 367.905L467.904 367.79L467.789 427.812L527.811 427.928L527.927 367.905Z" fill="white"/>
</mask>
<g mask="url(#mask1_3_97)">
<path d="M467.808 418.019C467.913 419.345 468.378 420.679 469.595 422.469C471.042 424.595 473.53 425.766 475.352 423.898C476.58 422.638 489.89 399.477 496.299 390.701C496.475 390.45 496.709 390.245 496.981 390.104C497.253 389.963 497.555 389.89 497.861 389.89C498.167 389.891 498.469 389.965 498.741 390.107C499.012 390.25 499.245 390.455 499.42 390.707C505.796 399.507 519.016 422.719 520.239 423.984C522.054 425.859 524.547 424.698 526.001 422.577C527.431 420.492 527.829 419.03 527.832 417.464C527.834 416.399 507.25 377.915 505.175 374.709C503.181 371.629 502.572 370.958 499.188 370.841L496.607 370.836C493.223 370.94 492.612 371.607 490.602 374.681C488.561 377.811 468.64 414.704 467.81 417.234L467.808 418.019Z" fill="white"/>
</g>
<path d="M437.709 254.469H375.071C370.873 254.469 367.469 257.873 367.469 262.071V324.709C367.469 328.908 370.873 332.311 375.071 332.311H437.709C441.908 332.311 445.311 328.908 445.311 324.709V262.071C445.311 257.873 441.908 254.469 437.709 254.469Z" fill="white" fill-opacity="0.1"/>
<path d="M437.709 254H375.071C370.614 254 367 257.614 367 262.071V324.709C367 329.167 370.614 332.78 375.071 332.78H437.709C442.167 332.78 445.78 329.167 445.78 324.709V262.071C445.78 257.614 442.167 254 437.709 254Z" stroke="white" stroke-opacity="0.2" stroke-width="0.937853"/>
<path fill-rule="evenodd" clip-rule="evenodd" d="M415.371 316.457V324.059C416.602 324.698 418.107 325.169 419.78 325.488C421.452 325.807 423.276 325.959 425.101 325.959C426.925 325.959 428.598 325.792 430.27 325.443C431.942 325.093 433.311 324.515 434.527 323.77C435.758 322.964 436.808 321.946 437.416 320.577C438.024 319.209 438.495 317.689 438.495 315.712C438.495 314.329 438.282 313.128 437.872 312.063C437.461 310.999 436.868 310.087 436.047 309.327C435.272 308.521 434.375 307.806 433.311 307.198C432.246 306.59 431.03 305.952 429.662 305.374C428.658 304.963 427.837 304.568 426.925 304.173C426.135 303.778 425.451 303.382 424.949 302.987C424.386 302.576 423.961 302.151 423.657 301.71C423.352 301.254 423.2 300.752 423.2 300.19C423.2 299.673 423.336 299.201 423.611 298.776C423.886 298.35 424.265 298 424.751 297.696C425.238 297.392 425.846 297.164 426.576 296.997C427.29 296.83 428.081 296.754 429.008 296.754C429.647 296.754 430.316 296.801 430.985 296.896C431.684 296.992 432.399 297.14 433.113 297.337C433.828 297.535 434.527 297.778 435.242 298.082C435.911 298.386 436.534 298.736 437.066 299.131V291.986C435.911 291.545 434.633 291.21 433.265 290.998C431.897 290.785 430.376 290.678 428.552 290.678C426.728 290.678 425.055 290.876 423.383 291.256C421.71 291.636 420.342 292.244 419.126 293.08C417.894 293.901 416.997 294.905 416.237 296.273C415.523 297.55 415.173 299.01 415.173 300.834C415.173 303.115 415.827 305.091 417.149 306.611C418.457 308.284 420.494 309.5 423.079 310.716C424.128 311.142 425.055 311.568 425.967 311.978C426.88 312.389 427.64 312.815 428.248 313.255C428.902 313.696 429.419 314.183 429.768 314.7C430.148 315.217 430.346 315.825 430.346 316.524C430.346 317.011 430.227 317.467 429.996 317.892C429.765 318.318 429.403 318.683 428.917 318.987C428.43 319.291 427.837 319.534 427.093 319.717C426.378 319.884 425.572 319.975 424.508 319.975C422.836 319.975 421.163 319.686 419.643 319.109C417.97 318.531 416.45 317.664 415.082 316.524L415.371 316.457ZM402.6 297.757H412.33V291.524H385.116V297.757H394.846V325.579H402.6V297.757Z" fill="white"/>
<path d="M594.181 98.469H543.537C535.767 98.469 529.469 104.767 529.469 112.537V163.181C529.469 170.95 535.767 177.249 543.537 177.249H594.181C601.95 177.249 608.249 170.95 608.249 163.181V112.537C608.249 104.767 601.95 98.469 594.181 98.469Z" fill="white" fill-opacity="0.1"/>
<path d="M594.181 98H543.537C535.508 98 529 104.508 529 112.537V163.181C529 171.209 535.508 177.717 543.537 177.717H594.181C602.209 177.717 608.717 171.209 608.717 163.181V112.537C608.717 104.508 602.209 98 594.181 98Z" stroke="white" stroke-opacity="0.2" stroke-width="0.937853"/>
<mask id="mask2_3_97" style="mask-type:luminance" maskUnits="userSpaceOnUse" x="541" y="110" width="56" height="56">
<path d="M596.209 110.66H541.66V165.209H596.209V110.66Z" fill="white"/>
</mask>
<g mask="url(#mask2_3_97)">
<path d="M568.935 111.335C553.867 111.335 541.66 123.552 541.66 138.61C541.66 150.667 549.475 160.886 560.304 164.492C561.673 164.749 562.168 163.905 562.168 163.176C562.168 162.528 562.152 160.815 562.142 158.541C554.551 160.184 552.952 154.874 552.952 154.874C551.709 151.73 549.916 150.887 549.916 150.887C547.448 149.201 550.112 149.237 550.112 149.237C552.846 149.422 554.285 152.041 554.285 152.041C556.718 156.214 560.667 155.007 562.231 154.305C562.469 152.547 563.18 151.338 563.954 150.665C557.899 149.981 551.532 147.638 551.532 137.186C551.532 134.201 552.589 131.771 554.336 129.861C554.035 129.178 553.111 126.399 554.577 122.642C554.577 122.642 556.859 121.914 562.077 125.439C564.261 124.834 566.579 124.533 568.896 124.517C571.214 124.533 573.531 124.836 575.714 125.439C580.902 121.914 583.183 122.642 583.183 122.642C584.647 126.399 583.723 129.176 583.457 129.861C585.187 131.771 586.244 134.203 586.244 137.186C586.244 147.661 579.869 149.971 573.807 150.638C574.755 151.454 575.643 153.133 575.643 155.682C575.643 159.33 575.609 162.269 575.609 163.157C575.609 163.866 576.086 164.718 577.491 164.444C588.401 160.876 596.206 150.648 596.206 138.608C596.206 123.551 583.999 111.333 568.932 111.333L568.935 111.335Z" fill="white"/>
</g>
<path d="M324.181 627.469H273.537C265.767 627.469 259.469 633.767 259.469 641.537V692.181C259.469 699.95 265.767 706.249 273.537 706.249H324.181C331.95 706.249 338.249 699.95 338.249 692.181V641.537C338.249 633.767 331.95 627.469 324.181 627.469Z" fill="white" fill-opacity="0.1"/>
<path d="M324.181 627H273.537C265.508 627 259 633.508 259 641.537V692.181C259 700.209 265.508 706.717 273.537 706.717H324.181C332.209 706.717 338.717 700.209 338.717 692.181V641.537C338.717 633.508 332.209 627 324.181 627Z" stroke="white" stroke-opacity="0.2" stroke-width="0.937853"/>
<path d="M323.891 649.973L300.684 691.471C300.205 692.328 298.974 692.333 298.487 691.48L274.82 649.977C274.29 649.048 275.085 647.922 276.138 648.111L299.37 652.263C299.518 652.29 299.67 652.289 299.818 652.262L322.564 648.116C323.613 647.925 324.411 649.042 323.891 649.973Z" fill="url(#paint0_linear_3_97)"/>
<path d="M310.436 642.664L293.262 646.029C293.125 646.056 293.001 646.128 292.909 646.233C292.817 646.338 292.762 646.471 292.754 646.611L291.698 664.453C291.692 664.551 291.709 664.649 291.747 664.739C291.786 664.829 291.845 664.909 291.92 664.972C291.995 665.035 292.083 665.08 292.179 665.103C292.274 665.126 292.373 665.127 292.469 665.105L297.25 664.001C297.698 663.898 298.102 664.292 298.01 664.742L296.589 671.698C296.494 672.167 296.933 672.567 297.39 672.428L300.344 671.531C300.802 671.392 301.242 671.793 301.145 672.262L298.887 683.188C298.746 683.872 299.655 684.245 300.034 683.659L300.287 683.267L314.282 655.339C314.516 654.872 314.112 654.339 313.598 654.438L308.676 655.388C308.214 655.477 307.821 655.046 307.951 654.594L311.163 643.458C311.294 643.004 310.899 642.573 310.436 642.664Z" fill="url(#paint1_linear_3_97)"/>
<path d="M476.181 123.469H425.537C417.767 123.469 411.469 129.767 411.469 137.537V188.181C411.469 195.95 417.767 202.249 425.537 202.249H476.181C483.95 202.249 490.249 195.95 490.249 188.181V137.537C490.249 129.767 483.95 123.469 476.181 123.469Z" fill="white" fill-opacity="0.1"/>
<path d="M476.181 123H425.537C417.508 123 411 129.508 411 137.537V188.181C411 196.209 417.508 202.717 425.537 202.717H476.181C484.209 202.717 490.717 196.209 490.717 188.181V137.537C490.717 129.508 484.209 123 476.181 123Z" stroke="white" stroke-opacity="0.2" stroke-width="0.937853"/>
<path d="M463.787 163.106V163.158V163.228V163.281V163.334L463.805 163.404V163.456V163.509L463.822 163.579V163.632L463.84 163.684L463.857 163.755V163.807L463.875 163.877L463.892 163.93L463.91 164V164.07L463.927 164.123L463.945 164.193L463.963 164.263L463.98 164.316L464.015 164.386L464.033 164.456L464.05 164.526L464.068 164.596L464.085 164.667L464.12 164.737L464.138 164.824L464.155 164.895L464.191 164.965L464.208 165.035L464.243 165.123L464.261 165.193L464.296 165.281L464.313 165.368L464.348 165.456L464.384 165.526L464.401 165.614L464.436 165.702L464.471 165.789L464.489 165.894L464.524 165.982L464.541 166.07L464.576 166.175L464.612 166.263L464.629 166.368L464.664 166.473L464.699 166.561L464.717 166.666L464.752 166.771L464.787 166.877L464.804 167L464.84 167.105L464.857 167.21L464.892 167.333L464.91 167.438L464.945 167.561L464.962 167.684L464.98 167.806L465.015 167.929L465.033 168.052L465.05 168.175L465.068 168.315L465.103 168.438L465.12 168.578L465.138 168.701L465.155 168.841V168.982L465.173 169.122L465.19 169.262L465.208 169.403V169.543L465.225 169.683V169.841V169.981L465.243 170.139V170.297V170.437V170.595L465.225 170.753V170.911V171.069L465.208 171.244V171.402L465.19 171.56L465.173 171.735L465.155 171.911L465.138 172.069L465.12 172.244L465.103 172.42L465.068 172.595L465.033 172.753L465.015 172.928L464.98 173.121L464.945 173.297L464.91 173.472L464.857 173.647L464.822 173.823L464.769 174.016L464.717 174.191L464.664 174.384L464.612 174.559L464.559 174.752L464.489 174.928L464.436 175.121L464.366 175.314L464.296 175.489L464.226 175.682L464.155 175.875L464.068 176.05L463.998 176.243L463.91 176.436L463.822 176.629L463.735 176.805L463.629 176.998L463.542 177.191L463.436 177.383L463.331 177.576L463.226 177.752L463.121 177.945L462.998 178.138L462.893 178.331L462.77 178.506L462.647 178.699L462.524 178.892L462.384 179.067L462.261 179.26L462.121 179.436L461.98 179.629L461.84 179.804L461.682 179.997L461.542 180.172L461.384 180.348L461.226 180.523L461.068 180.699L460.911 180.892L460.735 181.049L460.577 181.225L460.402 181.4L460.226 181.576L460.033 181.734L459.858 181.909L459.665 182.067L459.472 182.242L459.279 182.4L459.086 182.558L458.893 182.716L458.683 182.874L458.472 183.014L458.279 183.172L458.051 183.312L457.841 183.47L457.63 183.61L457.402 183.751L457.174 183.891L456.946 184.031L456.718 184.154L456.49 184.294L456.245 184.417L456.017 184.54L455.771 184.663L455.526 184.786L455.28 184.891L455.034 185.014L454.789 185.119L454.526 185.224L454.263 185.329L454.017 185.417L453.754 185.522L453.491 185.61L453.21 185.698L452.947 185.785L452.684 185.856L452.403 185.943L452.123 186.013L451.86 186.084L451.579 186.154L451.298 186.206L451.018 186.276L450.737 186.329L450.439 186.382L450.158 186.417L449.86 186.469L449.579 186.505L449.281 186.54L449.001 186.575L448.702 186.592L448.404 186.61L448.106 186.627L447.808 186.645H447.51L447.211 186.662H446.913L446.615 186.645H446.317L446.001 186.627L445.703 186.61L445.405 186.592L445.089 186.557L444.791 186.522L444.493 186.487L444.177 186.452L443.879 186.399L443.581 186.347L443.265 186.294L442.967 186.241L442.668 186.171L442.37 186.101L442.054 186.031L441.756 185.961L441.458 185.873L441.16 185.785L440.862 185.698L440.564 185.592L440.265 185.505L439.967 185.399L439.669 185.277L439.371 185.171L439.073 185.049L438.792 184.926L438.494 184.803L438.213 184.663L437.915 184.522L437.634 184.382L437.354 184.242L437.073 184.084L436.792 183.926L436.512 183.768L436.231 183.61L435.95 183.435L435.687 183.26L435.407 183.084L435.144 182.909L434.88 182.716L434.617 182.54L434.354 182.347L434.109 182.137L433.846 181.944L433.6 181.734L433.354 181.523L433.109 181.313L432.863 181.102L432.618 180.874L432.39 180.646L432.144 180.418L431.916 180.19L431.688 179.962L431.478 179.716L431.25 179.471L431.039 179.225L430.829 178.98L430.618 178.734L430.408 178.471L430.215 178.225L430.004 177.962L429.811 177.699L429.618 177.419L429.443 177.155L429.267 176.875L429.075 176.612L428.899 176.331L428.741 176.05L428.566 175.77L428.408 175.472L428.25 175.191L428.11 174.893L427.952 174.612L427.812 174.314L427.671 174.016L427.531 173.718L427.408 173.419L427.285 173.121L427.163 172.805L427.04 172.507L426.935 172.191L426.829 171.893L426.724 171.578L426.619 171.262L426.531 170.946L426.443 170.63L426.356 170.315L426.286 169.999L426.198 169.683L426.145 169.367L426.075 169.052L426.005 168.736L425.952 168.42L425.9 168.087L425.865 167.771L425.83 167.456L425.794 167.122L425.759 166.807L425.724 166.491L425.707 166.158L425.689 165.842V165.526L425.672 165.193V164.877V164.561L425.689 164.228V163.912L425.707 163.597L425.742 163.281L425.759 162.965L425.794 162.649L425.83 162.334L425.865 162.018L425.917 161.702L425.97 161.387L426.023 161.071L426.075 160.773L426.145 160.457L426.215 160.159L426.286 159.843L426.356 159.545L426.443 159.247L426.531 158.948L426.619 158.65L426.707 158.352L426.812 158.054L426.9 157.756L427.005 157.475L427.128 157.194L427.233 156.896L427.356 156.616L427.478 156.335L427.601 156.054L427.724 155.791L427.864 155.51L428.005 155.247L428.145 154.967L428.285 154.704L428.443 154.441L428.583 154.195L428.741 153.932L428.899 153.686L429.057 153.423L429.215 153.178L429.39 152.932L429.566 152.704L429.741 152.458L429.916 152.23L430.092 152.002L430.267 151.774L430.46 151.546L430.653 151.318L430.829 151.108L431.022 150.897L431.232 150.687L431.425 150.476L431.618 150.266L431.828 150.073L432.021 149.88L432.232 149.687L432.442 149.494L432.653 149.301L432.863 149.126L433.074 148.95L433.302 148.775L433.512 148.6L433.74 148.442L433.951 148.284L434.179 148.126L434.407 147.968L434.635 147.81L434.845 147.67L435.073 147.53L435.301 147.389L435.547 147.249L435.775 147.126L436.003 146.986L436.231 146.863L436.459 146.758L436.705 146.635L436.933 146.53L437.161 146.407L437.406 146.302L437.634 146.214L437.88 146.109L438.108 146.021L438.353 145.933L438.581 145.846L438.827 145.758L439.055 145.688L439.283 145.618L439.529 145.548L439.757 145.477L440.002 145.407L440.23 145.355L440.458 145.302L440.704 145.249L440.932 145.197L441.16 145.144L441.405 145.109L441.634 145.074L441.862 145.039L442.09 145.004L442.318 144.969L442.546 144.951L442.774 144.934L443.002 144.916L443.23 144.899L443.44 144.881H443.668L443.896 144.863H444.107H444.335L444.545 144.881H444.756H444.966L445.177 144.899L445.387 144.916L445.598 144.934L445.808 144.951L446.019 144.969L446.212 145.004L446.422 145.021L446.615 145.056L446.826 145.091L447.018 145.127L447.211 145.162L447.404 145.197L447.597 145.249L447.773 145.284L447.966 145.337L448.141 145.372L448.334 145.425L448.509 145.477L448.685 145.53L448.86 145.583L449.036 145.653L449.211 145.705L449.369 145.758L449.544 145.828L449.702 145.881L449.86 145.951L450.018 146.021L450.176 146.091L450.334 146.161L450.491 146.232L450.649 146.302L450.79 146.372L450.93 146.442L451.088 146.512L451.228 146.582L451.368 146.67L451.491 146.74L451.632 146.81L451.772 146.898L451.895 146.968L452.017 147.056L452.158 147.126L452.281 147.214L452.386 147.302L452.509 147.372L452.631 147.459L452.737 147.53L452.859 147.617L452.965 147.705L453.07 147.775L453.175 147.863L453.28 147.951L453.386 148.021L453.491 148.108L453.579 148.196L453.684 148.266L453.772 148.354L453.877 148.442L453.964 148.512L454.052 148.6L454.14 148.687L454.228 148.757L454.298 148.845L454.385 148.915L454.473 149.003L454.543 149.073L454.613 149.143L454.701 149.231L454.771 149.301L454.841 149.371L454.912 149.459L454.982 149.529L455.052 149.599L455.122 149.67L455.175 149.74L455.245 149.81L455.298 149.88L455.368 149.95L455.42 150.02L455.49 150.073L455.543 150.143L455.596 150.213L455.648 150.266L455.719 150.336L455.771 150.406L455.824 150.459L455.876 150.511L455.929 150.582L455.982 150.634L456.034 150.687L456.069 150.739L456.122 150.792L456.175 150.845L456.227 150.897L456.28 150.95L456.315 151.003L456.368 151.055L456.42 151.09L456.473 151.143L456.508 151.178L456.56 151.231L456.613 151.266L456.648 151.318L456.701 151.353L456.753 151.388L456.788 151.424L456.841 151.459L456.894 151.494L456.929 151.529L456.981 151.564L457.034 151.599L457.087 151.634L457.122 151.669L457.174 151.687L457.227 151.722L457.28 151.757L457.332 151.774L457.385 151.809L457.437 151.827L457.49 151.862L457.543 151.88L457.595 151.897L457.648 151.932L457.701 151.95L457.771 151.967L457.823 151.985L457.876 152.002L457.946 152.037L457.999 152.055L458.069 152.073L458.122 152.09L458.192 152.108L458.262 152.125L458.332 152.143L458.385 152.16L458.455 152.178L458.525 152.195L458.595 152.213H458.665L458.753 152.23L458.823 152.248L458.893 152.266L458.981 152.283L459.051 152.301L459.139 152.318L459.209 152.336L459.297 152.353L459.384 152.371L459.472 152.388L459.56 152.406L459.648 152.423L459.735 152.441L459.823 152.458L459.911 152.476L460.016 152.494L460.104 152.529L460.209 152.546L460.297 152.564L460.402 152.599L460.49 152.616L460.595 152.634L460.7 152.669L460.805 152.704L460.911 152.722L461.016 152.757L461.139 152.792L461.244 152.809L461.349 152.844L461.472 152.879L461.577 152.915L461.7 152.967L461.805 153.002L461.928 153.037L462.051 153.09L462.173 153.125L462.279 153.178L462.401 153.213L462.524 153.265L462.647 153.318L462.787 153.371L462.91 153.423L463.033 153.476L463.156 153.546L463.296 153.599L463.419 153.669L463.542 153.721L463.682 153.792L463.805 153.862L463.945 153.932L464.085 154.002L464.208 154.072L464.348 154.16L464.471 154.23L464.612 154.318L464.752 154.405L464.892 154.493L465.015 154.581L465.155 154.669L465.296 154.774L465.436 154.862L465.576 154.967L465.699 155.072L465.839 155.177L465.98 155.282L466.12 155.388L466.26 155.493L466.383 155.616L466.523 155.739L466.664 155.861L466.804 155.984L466.927 156.107L467.067 156.23L467.208 156.37L467.33 156.51L467.471 156.633L467.593 156.773L467.734 156.931L467.857 157.072L467.997 157.212L468.12 157.37L468.242 157.528L468.365 157.686L468.488 157.843L468.611 158.001L468.734 158.177L468.856 158.335L468.979 158.51L469.102 158.685L469.225 158.861L469.33 159.036L469.453 159.229L469.558 159.404L469.663 159.597L469.768 159.79L469.874 159.983L469.979 160.176L470.084 160.369L470.189 160.58L470.277 160.79L470.382 160.983L470.47 161.194L470.558 161.404L470.645 161.632L470.733 161.843L470.821 162.053L470.891 162.281L470.979 162.509L471.049 162.737L471.119 162.965L471.189 163.193L471.259 163.421L471.33 163.649L471.382 163.895L471.435 164.14L471.487 164.368L471.54 164.614L471.593 164.86L471.645 165.105L471.68 165.351L471.715 165.614L471.751 165.859L471.786 166.105L471.821 166.368L471.838 166.631L471.856 166.877L471.873 167.14L471.891 167.403L471.908 167.666V167.929V168.192V168.455V168.736L471.891 168.999L471.873 169.262L471.856 169.543L471.838 169.806L471.821 170.087L471.786 170.35L471.751 170.63L471.715 170.893L471.68 171.174L471.628 171.455L471.575 171.718L471.522 171.999L471.47 172.279L471.4 172.542L471.33 172.823L471.259 173.104L471.189 173.367L471.119 173.647L471.031 173.928L470.944 174.191L470.856 174.472L470.751 174.735L470.645 175.016L470.54 175.279L470.435 175.559L470.33 175.822L470.207 176.103L470.084 176.366L469.961 176.629L469.821 176.892L469.681 177.155L469.558 177.419L469.4 177.682L469.26 177.945L469.102 178.208L468.944 178.471L468.786 178.717L468.628 178.98L468.453 179.225L468.278 179.471L468.102 179.734L467.927 179.979L467.734 180.207L467.558 180.453L467.365 180.699L467.155 180.927L466.962 181.172L466.751 181.4L466.541 181.628L466.331 181.856L466.12 182.084L465.892 182.312L465.664 182.523L465.453 182.733L465.208 182.944L464.98 183.154L464.734 183.365L464.506 183.575L464.261 183.768L464.015 183.961L463.752 184.154L463.506 184.347L463.243 184.54L462.98 184.715L462.717 184.891L462.454 185.066L462.173 185.242L461.91 185.417L461.63 185.575L461.349 185.733L461.068 185.891L460.788 186.048L460.507 186.189L460.209 186.329L459.928 186.469L459.63 186.61L459.332 186.733L459.034 186.873L458.735 186.978L458.437 187.101L458.122 187.224L457.823 187.329L457.508 187.434L457.209 187.539L456.894 187.627L456.578 187.715L456.262 187.803L455.947 187.89L455.631 187.96L455.315 188.031L454.999 188.101L454.666 188.171L454.35 188.223L454.035 188.276L453.701 188.329L453.386 188.364L453.052 188.399L452.719 188.434L452.403 188.469L452.07 188.487L451.754 188.504L451.421 188.522L451.088 188.539H450.755H450.439H450.106L449.772 188.522L449.457 188.504L449.123 188.487L448.79 188.469L448.474 188.434L448.141 188.399L447.825 188.364L447.492 188.311L447.176 188.259L446.843 188.206L446.527 188.153L446.212 188.083L445.878 188.013L445.563 187.943L445.247 187.873L444.931 187.785L444.615 187.697L444.3 187.61L444.001 187.504L443.686 187.417L443.388 187.311L443.072 187.189L442.774 187.083L442.475 186.961L442.16 186.838L441.879 186.715L441.581 186.575L441.283 186.452L440.985 186.312L440.704 186.154L440.423 186.013L440.125 185.856L439.844 185.698L439.581 185.54L439.301 185.382L439.02 185.207L438.757 185.031L438.494 184.856L438.231 184.68L437.968 184.505L437.704 184.312L437.459 184.119L437.213 183.926L436.95 183.733L436.722 183.523L436.477 183.33L436.231 183.119L436.003 182.909L435.775 182.698L435.547 182.47L435.319 182.26L435.108 182.032L434.88 181.804L434.67 181.593L434.459 181.348L434.267 181.12L434.056 180.892L433.863 180.646L433.67 180.4L433.495 180.172L433.302 179.927L433.126 179.681L432.951 179.418L432.776 179.173L432.6 178.927L432.442 178.664L432.284 178.418L432.127 178.155L431.969 177.892L431.828 177.629L431.688 177.366L431.548 177.103L431.407 176.84L431.285 176.577L431.162 176.313L431.039 176.033L430.916 175.77L430.811 175.507L430.688 175.226L430.601 174.963L430.495 174.682L430.39 174.419L430.302 174.138L430.215 173.858L430.127 173.595L430.057 173.314L429.987 173.033L429.916 172.77L429.846 172.49L429.794 172.209L429.724 171.946L429.671 171.665L429.618 171.385L429.583 171.122L429.548 170.841L429.496 170.578L429.478 170.297L429.443 170.034L429.425 169.753L429.39 169.49V169.21L429.373 168.947L429.355 168.683V168.403V168.14V167.877L429.373 167.613V167.35L429.39 167.087L429.408 166.824L429.425 166.579L429.46 166.315L429.478 166.07L429.513 165.807L429.548 165.561L429.583 165.298L429.636 165.053L429.671 164.807L429.724 164.561L429.776 164.316L429.829 164.088L429.899 163.842L429.952 163.614L430.022 163.369L430.092 163.141L430.162 162.913L430.232 162.685L430.302 162.457L430.39 162.228L430.46 162.018L430.548 161.79L430.636 161.58L430.723 161.369L430.811 161.159L430.899 160.948L431.004 160.738L431.092 160.545L431.197 160.334L431.302 160.141L431.407 159.948L431.513 159.755L431.618 159.562L431.723 159.369L431.846 159.194L431.951 159.001L432.074 158.826L432.197 158.65L432.302 158.475L432.425 158.299L432.548 158.142L432.67 157.966L432.793 157.808L432.916 157.65L433.039 157.493L433.179 157.335L433.302 157.194L433.425 157.037L433.565 156.896L433.688 156.756L433.828 156.616L433.951 156.475L434.091 156.335L434.231 156.212L434.354 156.072L434.495 155.949L434.635 155.826L434.758 155.703L434.898 155.598L435.038 155.475L435.179 155.37L435.319 155.265L435.442 155.142L435.582 155.037L435.722 154.949L435.863 154.844L436.003 154.756L436.126 154.651L436.266 154.563L436.406 154.476L436.547 154.388L436.67 154.3L436.81 154.213L436.95 154.142L437.073 154.072L437.213 153.984L437.354 153.914L437.476 153.844L437.617 153.774L437.74 153.704L437.88 153.651L438.003 153.581L438.125 153.528L438.266 153.476L438.389 153.406L438.511 153.353L438.634 153.3L438.757 153.265L438.88 153.213L439.002 153.16L439.125 153.125L439.248 153.072L439.353 153.037L439.476 152.985L439.599 152.95L439.704 152.915L439.827 152.879L439.932 152.844L440.037 152.809L440.16 152.774L440.265 152.757L440.371 152.722L440.476 152.686L440.581 152.669L440.686 152.634L440.792 152.616L440.879 152.581L440.985 152.564L441.09 152.546L441.177 152.511L441.283 152.494L441.37 152.476L441.458 152.458L441.546 152.441L441.634 152.423L441.721 152.406L441.809 152.388L441.897 152.371L441.984 152.353L442.072 152.336L442.142 152.318L442.23 152.301L442.3 152.283L442.388 152.266L442.458 152.248L442.528 152.23L442.598 152.213L442.668 152.195L442.756 152.178L442.809 152.16H442.879L442.949 152.143L443.019 152.125L443.089 152.108L443.142 152.09L443.212 152.073L443.265 152.037L443.335 152.02L443.388 152.002L443.458 151.985L443.51 151.967L443.563 151.95L443.616 151.915L443.686 151.897L443.738 151.88L443.791 151.845L443.844 151.827L443.896 151.809L443.949 151.774L444.001 151.739L444.037 151.722L444.089 151.687L444.142 151.652L444.194 151.634L444.247 151.599L444.282 151.564L444.335 151.529L444.387 151.494L444.44 151.459L444.475 151.424L444.528 151.388L444.58 151.336L444.615 151.301L444.668 151.266L444.721 151.213L444.756 151.178L444.808 151.125L444.861 151.09L444.896 151.038L444.949 150.985L445.001 150.932L445.054 150.897L445.089 150.845L445.142 150.792L445.194 150.739L445.247 150.669L445.299 150.617L445.352 150.564L445.405 150.511L445.457 150.441L445.51 150.389L445.563 150.319L445.615 150.266L445.668 150.196L445.738 150.126L445.791 150.073L445.843 150.003L445.913 149.933L445.966 149.862L446.036 149.792L446.106 149.722L446.159 149.652L446.229 149.582L446.299 149.512L446.369 149.441L446.44 149.354L446.51 149.284L446.58 149.213L446.668 149.126L446.738 149.056L446.808 148.985L446.896 148.898L446.983 148.828L447.054 148.74L447.141 148.67L447.229 148.582L447.317 148.494L447.404 148.424L447.51 148.336L447.597 148.266L447.703 148.179L447.79 148.091L447.895 148.021L448.001 147.933L448.106 147.845L448.211 147.775L448.316 147.687L448.422 147.6L448.544 147.53L448.65 147.442L448.772 147.354L448.895 147.284L449.018 147.196L449.141 147.109L449.264 147.038L449.386 146.951L449.527 146.881L449.65 146.81L449.79 146.723L449.93 146.653L450.07 146.565L450.211 146.495L450.351 146.425L450.509 146.354L450.649 146.284L450.807 146.214L450.965 146.144L451.105 146.074L451.263 146.004L451.439 145.933L451.597 145.881L451.754 145.811L451.93 145.758L452.088 145.688L452.263 145.635L452.438 145.583L452.614 145.53L452.789 145.477L452.965 145.425L453.158 145.372L453.333 145.319L453.526 145.284L453.719 145.232L453.912 145.197L454.087 145.162L454.298 145.109L454.491 145.074L454.684 145.056L454.877 145.021L455.087 144.986L455.298 144.969L455.49 144.951L455.701 144.934L455.911 144.916L456.122 144.899L456.332 144.881H456.543L456.771 144.863H456.981H457.192L457.42 144.881H457.648H457.858L458.086 144.899L458.315 144.916L458.543 144.934L458.771 144.951L458.999 144.986L459.227 145.004L459.455 145.039L459.683 145.074L459.911 145.109L460.139 145.162L460.384 145.197L460.612 145.249L460.84 145.302L461.086 145.372L461.314 145.425L461.542 145.495L461.788 145.548L462.016 145.618L462.261 145.705L462.489 145.776L462.735 145.863L462.963 145.951L463.208 146.039L463.436 146.126L463.682 146.232L463.91 146.337L464.138 146.442L464.384 146.547L464.612 146.653L464.84 146.775L465.085 146.898L465.313 147.021L465.541 147.144L465.769 147.284L465.997 147.407L466.225 147.547L466.453 147.705L466.681 147.845L466.909 148.003L467.137 148.161L467.348 148.319L467.576 148.477L467.786 148.635L468.014 148.81L468.225 148.985L468.435 149.161L468.646 149.354L468.856 149.529L469.067 149.722L469.277 149.915L469.488 150.108L469.681 150.319L469.874 150.511L470.084 150.722L470.277 150.932L470.47 151.143L470.663 151.371L470.838 151.581L471.031 151.809L471.207 152.037L471.382 152.266L471.558 152.511L471.733 152.739L471.908 152.985L472.066 153.23L472.242 153.476L472.4 153.739L472.557 153.984L472.715 154.248L472.856 154.493L473.013 154.756L473.154 155.037L473.294 155.3L473.417 155.563L473.557 155.844L473.68 156.124L473.82 156.388L473.926 156.668L474.048 156.966L474.171 157.247L474.276 157.528L474.382 157.826L474.487 158.124L474.575 158.405L474.662 158.703L474.75 159.001L474.838 159.299L474.925 159.615L474.995 159.913L475.066 160.211L475.136 160.527L475.206 160.825L475.259 161.141L475.311 161.457L475.364 161.772L475.399 162.071L475.434 162.386L475.469 162.702L475.504 163.018L475.539 163.351L475.557 163.667L475.574 163.983V164.298L475.592 164.614V164.947V165.263L475.574 165.579V165.912L475.557 166.228L475.522 166.543L475.504 166.877L475.469 167.192L475.434 167.508L475.399 167.841L475.346 168.157L475.294 168.473L475.241 168.806L475.171 169.122L475.118 169.438L475.048 169.753L474.96 170.069L474.89 170.385L474.803 170.701L474.715 171.016L474.627 171.332L474.522 171.648L474.417 171.946L474.311 172.262L474.189 172.56L474.083 172.876L473.961 173.174L473.838 173.472L473.698 173.788L473.557 174.086L473.417 174.367L473.277 174.665L473.136 174.963L472.978 175.244L472.82 175.542L472.663 175.822L472.487 176.103L472.329 176.384L472.154 176.664L471.961 176.945L471.786 177.208L471.593 177.489L471.4 177.752L471.207 178.015L471.014 178.278L470.821 178.524L470.61 178.787L470.4 179.032L470.189 179.278L469.961 179.523L469.751 179.769L469.523 180.015L469.295 180.243L469.067 180.471L468.839 180.699L468.593 180.927L468.348 181.137L468.102 181.365L467.857 181.576L467.611 181.786L467.365 181.979L467.102 182.19L466.857 182.383L466.594 182.575L466.331 182.768L466.067 182.944L465.787 183.119L465.524 183.295L465.243 183.47L464.98 183.645L464.699 183.803L464.419 183.961L464.138 184.119L463.857 184.259L463.577 184.417L463.278 184.558L462.998 184.68L462.717 184.821L462.419 184.943L462.121 185.066L461.84 185.189L461.542 185.312L461.244 185.417L460.946 185.522L460.647 185.61L460.349 185.715L460.051 185.803L459.753 185.891L459.437 185.978L459.139 186.048L458.841 186.119L458.543 186.189L458.227 186.259L457.929 186.312L457.63 186.364L457.315 186.417L457.017 186.452L456.718 186.505L456.403 186.54L456.104 186.575L455.806 186.592L455.49 186.61L455.192 186.627L454.894 186.645H454.596L454.298 186.662H454L453.684 186.645H453.386L453.105 186.627L452.807 186.61L452.509 186.592L452.21 186.557L451.912 186.54L451.632 186.505L451.333 186.452L451.053 186.417L450.755 186.364L450.474 186.312L450.193 186.259L449.913 186.206L449.632 186.136L449.351 186.066L449.071 185.996L448.808 185.926L448.527 185.856L448.264 185.768L447.983 185.68L447.72 185.592L447.457 185.505L447.194 185.399L446.948 185.294L446.685 185.207L446.44 185.101L446.177 184.978L445.931 184.873L445.685 184.75L445.44 184.628L445.194 184.505L444.966 184.382L444.721 184.259L444.493 184.137L444.265 183.996L444.037 183.856L443.809 183.716L443.598 183.575L443.37 183.435L443.16 183.295L442.949 183.137L442.739 182.996L442.528 182.839L442.335 182.681L442.142 182.523L441.932 182.365L441.739 182.207L441.563 182.032L441.37 181.874L441.195 181.716L441.002 181.541L440.827 181.365L440.651 181.19L440.493 181.014L440.318 180.839L440.16 180.664L440.002 180.488L439.844 180.313L439.687 180.137L439.546 179.962L439.388 179.769L439.248 179.594L439.108 179.401L438.985 179.225L438.845 179.032L438.722 178.857L438.599 178.664L438.476 178.471L438.353 178.278L438.231 178.103L438.125 177.91L438.02 177.717L437.897 177.524L437.81 177.348L437.704 177.155L437.599 176.962L437.512 176.77L437.424 176.577L437.336 176.401L437.248 176.208L437.178 176.015L437.091 175.822L437.02 175.647L436.95 175.454L436.88 175.261L436.81 175.086L436.757 174.893L436.687 174.717L436.634 174.524L436.582 174.349L436.529 174.156L436.477 173.981L436.442 173.788L436.389 173.612L436.354 173.437L436.319 173.261L436.284 173.086L436.249 172.893L436.214 172.718L436.196 172.56L436.161 172.384L436.143 172.209L436.126 172.034L436.108 171.876L436.091 171.7L436.073 171.542L436.056 171.367V171.209L436.038 171.051V170.876L436.021 170.718V170.56V170.42V170.262V170.104L436.038 169.964V169.806V169.666L436.056 169.508L436.073 169.367V169.227L436.091 169.087L436.108 168.947L436.126 168.806L436.143 168.683L436.161 168.543L436.178 168.403L436.196 168.28L436.214 168.157L436.231 168.034L436.266 167.912L436.284 167.789L436.301 167.666L436.336 167.543L436.354 167.42L436.389 167.315L436.406 167.192L436.442 167.087L436.459 166.964L436.494 166.859L436.512 166.754L436.547 166.649L436.582 166.543L436.599 166.438L436.634 166.351L436.67 166.245L436.687 166.158L436.722 166.052L436.757 165.965L436.775 165.877L436.81 165.772L436.827 165.684L436.863 165.596L436.898 165.509L436.915 165.438L436.95 165.351L436.968 165.263L437.003 165.193L437.02 165.105L437.055 165.035L437.073 164.947L437.108 164.877L437.126 164.807L437.161 164.719L437.178 164.649L437.196 164.579L437.213 164.509L437.248 164.439L437.266 164.386L437.283 164.316L437.301 164.246L437.319 164.175L437.336 164.105L437.354 164.053L437.371 163.983V163.93L437.389 163.86L437.406 163.807L437.424 163.737V163.684L437.441 163.614V163.562L437.459 163.509V163.439V163.386L437.476 163.334V163.263V163.211V163.158V163.088V163.035V162.983V162.913L437.459 162.86V162.807V162.737L437.441 162.685V162.632V162.562L437.424 162.509L437.406 162.439V162.386L437.389 162.316L437.371 162.264L437.354 162.193L437.336 162.141L437.319 162.071L437.301 162L437.283 161.948L437.266 161.878L437.248 161.808L437.231 161.737L437.213 161.667L437.196 161.597L437.161 161.527L437.143 161.457L437.126 161.387L437.091 161.299L437.073 161.229L437.038 161.159L437.02 161.071L436.985 161.001L436.968 160.913L436.933 160.825L436.915 160.738L436.88 160.667L436.845 160.58L436.827 160.492L436.792 160.404L436.757 160.299L436.74 160.211L436.705 160.124L436.687 160.018L436.652 159.931L436.617 159.825L436.599 159.72L436.564 159.615L436.529 159.51L436.512 159.404L436.477 159.299L436.459 159.194L436.424 159.089L436.389 158.966L436.371 158.861L436.336 158.738L436.319 158.615L436.301 158.51L436.266 158.387L436.249 158.264L436.231 158.124L436.214 158.001L436.178 157.878L436.161 157.738L436.143 157.615L436.126 157.475L436.108 157.352L436.091 157.212V157.072L436.073 156.931L436.056 156.791V156.633L436.038 156.493V156.335V156.195L436.021 156.037V155.896V155.739V155.581L436.038 155.423V155.265V155.107L436.056 154.932V154.774L436.073 154.616L436.091 154.441L436.108 154.283L436.126 154.107L436.143 153.932L436.178 153.756L436.196 153.581L436.231 153.406L436.266 153.23L436.301 153.055L436.336 152.879L436.371 152.704L436.406 152.529L436.459 152.336L436.512 152.16L436.547 151.985L436.599 151.792L436.652 151.617L436.722 151.424L436.775 151.248L436.845 151.055L436.915 150.862L436.985 150.687L437.055 150.494L437.126 150.301L437.213 150.108L437.283 149.933L437.371 149.74L437.459 149.547L437.547 149.354L437.652 149.178L437.74 148.985L437.845 148.792L437.95 148.6L438.055 148.407L438.161 148.231L438.283 148.038L438.406 147.845L438.511 147.652L438.634 147.477L438.774 147.284L438.897 147.109L439.038 146.916L439.178 146.723L439.318 146.547L439.459 146.372L439.599 146.179L439.757 146.004L439.915 145.828L440.072 145.653L440.23 145.46L440.388 145.284L440.564 145.109L440.721 144.951L440.897 144.776L441.09 144.6L441.265 144.442L441.441 144.267L441.634 144.109L441.826 143.934L442.019 143.776L442.212 143.618L442.423 143.46L442.616 143.32L442.826 143.162L443.037 143.004L443.247 142.864L443.458 142.723L443.686 142.566L443.914 142.425L444.124 142.303L444.352 142.162L444.58 142.022L444.826 141.899L445.054 141.776L445.299 141.654L445.545 141.531L445.791 141.408L446.036 141.303L446.282 141.18L446.527 141.075L446.79 140.969L447.054 140.864L447.299 140.777L447.562 140.671L447.825 140.584L448.106 140.496L448.369 140.408L448.632 140.338L448.913 140.25L449.193 140.18L449.474 140.11L449.737 140.04L450.018 139.987L450.316 139.935L450.597 139.882L450.877 139.829L451.158 139.777L451.456 139.742L451.754 139.707L452.035 139.671L452.333 139.636L452.631 139.619L452.93 139.584H453.21L453.508 139.566L453.807 139.549H454.122H454.421L454.719 139.566H455.017L455.315 139.584L455.613 139.601L455.929 139.636L456.227 139.654L456.525 139.689L456.841 139.724L457.139 139.777L457.437 139.812L457.753 139.864L458.051 139.917L458.35 139.987L458.665 140.04L458.964 140.11L459.262 140.198L459.56 140.268L459.876 140.356L460.174 140.443L460.472 140.531L460.77 140.636L461.068 140.741L461.367 140.847L461.665 140.952L461.945 141.075L462.244 141.197L462.542 141.32L462.822 141.443L463.121 141.583L463.401 141.724L463.682 141.864L463.98 142.004L464.261 142.162L464.541 142.32L464.804 142.478L465.085 142.636L465.366 142.811L465.629 142.987L465.91 143.162L466.173 143.337L466.436 143.53L466.699 143.723L466.962 143.916L467.208 144.109L467.471 144.302L467.716 144.513L467.962 144.723L468.207 144.934L468.453 145.162L468.698 145.372L468.926 145.6L469.155 145.828L469.383 146.056L469.611 146.302L469.839 146.547L470.049 146.775L470.277 147.021L470.488 147.284L470.698 147.53L470.891 147.793L471.102 148.038L471.294 148.301L471.487 148.564L471.68 148.845L471.856 149.108L472.049 149.389L472.224 149.652L472.4 149.933L472.557 150.213L472.715 150.511L472.891 150.792L473.049 151.073L473.189 151.371L473.347 151.669L473.487 151.95L473.627 152.248L473.75 152.546L473.89 152.862L474.013 153.16L474.136 153.458L474.241 153.774L474.347 154.072L474.452 154.388L474.557 154.704L474.662 155.002L474.75 155.318L474.838 155.633L474.925 155.949L474.995 156.265L475.066 156.58L475.136 156.896L475.206 157.229L475.259 157.545L475.311 157.861L475.364 158.177L475.416 158.51L475.452 158.826L475.487 159.141L475.504 159.475L475.539 159.79L475.557 160.106L475.574 160.439L475.592 160.755V161.071V161.404V161.72L475.574 162.036L475.557 162.369L475.539 162.685L475.522 163L475.487 163.316L475.469 163.632L475.434 163.947L475.381 164.263L475.346 164.579L475.294 164.877L475.241 165.193L475.171 165.509L475.101 165.807L475.048 166.122L474.96 166.421L474.89 166.719L474.803 167.035L474.715 167.333L474.627 167.631L474.539 167.929L474.434 168.21L474.329 168.508L474.224 168.789L474.118 169.087L473.996 169.367L473.89 169.648L473.768 169.929L473.627 170.209L473.505 170.49L473.364 170.753L473.241 171.016L473.084 171.297L472.943 171.56L472.803 171.823L472.645 172.069L472.487 172.332L472.329 172.577L472.171 172.84L472.014 173.086L471.838 173.314L471.663 173.56L471.487 173.805L471.312 174.033L471.137 174.261L470.961 174.489L470.768 174.717L470.575 174.928L470.382 175.156L470.189 175.366L469.996 175.577L469.804 175.787L469.593 175.98L469.4 176.173L469.19 176.384L468.979 176.559L468.769 176.752L468.558 176.945L468.348 177.12L468.137 177.296L467.927 177.471L467.699 177.629L467.488 177.804L467.26 177.962L467.032 178.12L466.822 178.278L466.594 178.418L466.366 178.576L466.138 178.717L465.91 178.857L465.682 178.98L465.453 179.12L465.208 179.243L464.98 179.366L464.752 179.488L464.524 179.594L464.278 179.716L464.05 179.822L463.805 179.927L463.577 180.015L463.349 180.12L463.103 180.207L462.875 180.295L462.629 180.383L462.401 180.471L462.156 180.541L461.928 180.611L461.682 180.681L461.454 180.751L461.226 180.804L460.981 180.874L460.753 180.927L460.507 180.979L460.279 181.032L460.051 181.067L459.823 181.102L459.577 181.155L459.349 181.19L459.121 181.207L458.893 181.242L458.665 181.26L458.437 181.277L458.227 181.295L457.999 181.313L457.771 181.33H457.543L457.332 181.348H457.104H456.894L456.683 181.33H456.455L456.245 181.313H456.034L455.824 181.295L455.613 181.277L455.42 181.26L455.21 181.225L454.999 181.207L454.806 181.172L454.596 181.155L454.403 181.12L454.21 181.085L454.017 181.049L453.824 180.997L453.631 180.962L453.456 180.909L453.263 180.874L453.087 180.821L452.895 180.769L452.719 180.716L452.544 180.664L452.368 180.611L452.193 180.558L452.017 180.488L451.86 180.436L451.684 180.365L451.526 180.313L451.368 180.243L451.211 180.172L451.053 180.12L450.895 180.05L450.737 179.979L450.597 179.909L450.439 179.822L450.299 179.751L450.158 179.681L450.018 179.611L449.878 179.523L449.737 179.453L449.597 179.383L449.474 179.295L449.334 179.225L449.211 179.138L449.088 179.067L448.965 178.98L448.843 178.909L448.72 178.822L448.615 178.734L448.492 178.664L448.387 178.576L448.281 178.489L448.159 178.418L448.053 178.331L447.948 178.243L447.86 178.173L447.755 178.085L447.65 177.997L447.562 177.927L447.475 177.84L447.369 177.752L447.282 177.682L447.194 177.594L447.106 177.524L447.018 177.436L446.948 177.348L446.861 177.278L446.79 177.208L446.703 177.12L446.633 177.05L446.562 176.962L446.475 176.892L446.405 176.822L446.334 176.752L446.264 176.664L446.212 176.594L446.141 176.524L446.071 176.454L446.001 176.384L445.948 176.313L445.878 176.243L445.826 176.191L445.773 176.121L445.703 176.05L445.65 175.98L445.598 175.928L445.545 175.857L445.492 175.805L445.44 175.735L445.387 175.682L445.335 175.629L445.282 175.559L445.229 175.507L445.177 175.454L445.124 175.401L445.071 175.349L445.036 175.296L444.984 175.244L444.931 175.208L444.879 175.156L444.843 175.103L444.791 175.068L444.738 175.016L444.703 174.98L444.65 174.928L444.598 174.893L444.563 174.858L444.51 174.805L444.458 174.77L444.405 174.735L444.37 174.7L444.317 174.665L444.265 174.63L444.23 174.595L444.177 174.577L444.124 174.542L444.072 174.507L444.019 174.489L443.966 174.454L443.914 174.419L443.861 174.402L443.809 174.367L443.756 174.349L443.703 174.331L443.651 174.296L443.598 174.279L443.545 174.261L443.493 174.244L443.423 174.209L443.37 174.191L443.3 174.174L443.247 174.156L443.177 174.138L443.124 174.121L443.054 174.103L442.984 174.086L442.932 174.068L442.861 174.051L442.791 174.033L442.721 174.016L442.651 173.998L442.581 173.981L442.493 173.963H442.423L442.353 173.946L442.265 173.928L442.195 173.91L442.107 173.893L442.037 173.875L441.949 173.858L441.862 173.84L441.774 173.823L441.686 173.805L441.598 173.788L441.511 173.77L441.423 173.753L441.335 173.718L441.23 173.7L441.142 173.682L441.037 173.665L440.949 173.63L440.844 173.612L440.739 173.595L440.651 173.56L440.546 173.542L440.441 173.507L440.336 173.472L440.213 173.454L440.108 173.419L440.002 173.384L439.897 173.349L439.774 173.314L439.669 173.279L439.546 173.244L439.423 173.209L439.318 173.156L439.195 173.121L439.073 173.069L438.95 173.033L438.827 172.981L438.704 172.928L438.581 172.876L438.459 172.823L438.336 172.77L438.213 172.718L438.073 172.665L437.95 172.595L437.827 172.542L437.687 172.472L437.564 172.402L437.424 172.332L437.301 172.262L437.161 172.191L437.02 172.121L436.898 172.034L436.757 171.963L436.617 171.876L436.494 171.788L436.354 171.7L436.214 171.613L436.073 171.525L435.933 171.42L435.81 171.332L435.67 171.227L435.529 171.122L435.389 171.016L435.249 170.911L435.126 170.806L434.986 170.683L434.845 170.578L434.705 170.455L434.582 170.332L434.442 170.209L434.302 170.087L434.179 169.946L434.039 169.824L433.898 169.683L433.775 169.543L433.635 169.403L433.512 169.262L433.372 169.104L433.249 168.964L433.126 168.806L432.986 168.648L432.863 168.49L432.741 168.333L432.618 168.175L432.495 167.999L432.372 167.841L432.249 167.666L432.144 167.491L432.021 167.315L431.916 167.14L431.793 166.947L431.688 166.754L431.583 166.579L431.478 166.386L431.355 166.193L431.267 166L431.162 165.789L431.057 165.596L430.969 165.386L430.864 165.175L430.776 164.965L430.688 164.754L430.601 164.544L430.513 164.333L430.425 164.105L430.355 163.877L430.267 163.667L430.197 163.439L430.127 163.211L430.057 162.983L429.987 162.737L429.934 162.509L429.864 162.264L429.811 162.036L429.759 161.79L429.706 161.544L429.653 161.299L429.618 161.053L429.566 160.808L429.531 160.545L429.496 160.299L429.478 160.053L429.443 159.79L429.425 159.527L429.408 159.282L429.39 159.019L429.373 158.755L429.355 158.492V158.229V157.966V157.686V157.422L429.373 157.159L429.39 156.896L429.408 156.616L429.425 156.352L429.46 156.072L429.478 155.809L429.513 155.528L429.548 155.247L429.601 154.984L429.653 154.704L429.688 154.441L429.759 154.16L429.811 153.879L429.881 153.616L429.934 153.335L430.004 153.055L430.092 152.792L430.162 152.511L430.25 152.23L430.337 151.967L430.443 151.687L430.53 151.406L430.636 151.143L430.741 150.862L430.846 150.599L430.969 150.336L431.092 150.055L431.214 149.792L431.337 149.529L431.46 149.266L431.6 149.003L431.741 148.74L431.881 148.477L432.039 148.214L432.197 147.951L432.355 147.687L432.512 147.442L432.67 147.179L432.846 146.933L433.021 146.688L433.197 146.442L433.372 146.197L433.565 145.951L433.758 145.705L433.951 145.46L434.144 145.232L434.354 144.986L434.547 144.758L434.758 144.53L434.968 144.302L435.196 144.092L435.407 143.864L435.635 143.653L435.863 143.425L436.091 143.215L436.336 143.004L436.564 142.811L436.81 142.601L437.055 142.408L437.301 142.197L437.564 142.022L437.81 141.829L438.073 141.636L438.336 141.461L438.599 141.285L438.862 141.11L439.143 140.934L439.406 140.759L439.687 140.601L439.967 140.443L440.248 140.285L440.528 140.145L440.827 139.987L441.107 139.847L441.405 139.707L441.704 139.584L441.984 139.443L442.283 139.321L442.598 139.198L442.896 139.075L443.195 138.97L443.51 138.865L443.809 138.759L444.124 138.654L444.44 138.566L444.756 138.479L445.071 138.391L445.387 138.303L445.703 138.233L446.019 138.163L446.334 138.093L446.65 138.04L446.983 137.97L447.299 137.917L447.632 137.882L447.948 137.83L448.281 137.795L448.597 137.76L448.93 137.742L449.264 137.707L449.579 137.689H449.913L450.246 137.672H450.562H450.895H451.228L451.544 137.689L451.877 137.707L452.21 137.724L452.526 137.76L452.859 137.777L453.193 137.812L453.508 137.865L453.842 137.9L454.157 137.952L454.473 138.005L454.806 138.075L455.122 138.128L455.438 138.198L455.754 138.286L456.069 138.356L456.385 138.444L456.701 138.531L457.017 138.619L457.332 138.724L457.648 138.83L457.946 138.935L458.244 139.04L458.56 139.163L458.858 139.268L459.156 139.391L459.455 139.531L459.753 139.654L460.033 139.794L460.332 139.935L460.612 140.075L460.911 140.233L461.191 140.391L461.472 140.548L461.752 140.706L462.016 140.864L462.296 141.04L462.559 141.215L462.822 141.39L463.086 141.566L463.349 141.759L463.612 141.934L463.857 142.127L464.103 142.32L464.348 142.531L464.594 142.723L464.84 142.934L465.068 143.144L465.313 143.355L465.541 143.565L465.769 143.776L465.98 144.004L466.208 144.214L466.418 144.442L466.629 144.67L466.839 144.899L467.032 145.144L467.243 145.372L467.436 145.618L467.629 145.846L467.821 146.091L467.997 146.337L468.172 146.582L468.348 146.828L468.523 147.091L468.698 147.337L468.856 147.6L469.014 147.845L469.172 148.108L469.312 148.372L469.47 148.635L469.611 148.898L469.751 149.161L469.874 149.424L470.014 149.687L470.137 149.95L470.26 150.231L470.365 150.494L470.488 150.757L470.593 151.038L470.698 151.301L470.786 151.581L470.891 151.862L470.979 152.125L471.066 152.406L471.137 152.669L471.224 152.95L471.294 153.23L471.365 153.493L471.435 153.774L471.487 154.055L471.54 154.318L471.593 154.598L471.645 154.879L471.698 155.142L471.733 155.423L471.768 155.703L471.803 155.967L471.821 156.247L471.856 156.51L471.873 156.791L471.891 157.054V157.317L471.908 157.598V157.861V158.124V158.387L471.891 158.65V158.913L471.873 159.176L471.856 159.44L471.821 159.685L471.803 159.948L471.768 160.194L471.733 160.457L471.698 160.702L471.663 160.948L471.628 161.211L471.575 161.457L471.522 161.685L471.47 161.93L471.417 162.176L471.365 162.421L471.294 162.649L471.224 162.877L471.172 163.123L471.102 163.351L471.014 163.579L470.944 163.79L470.873 164.018L470.786 164.246L470.698 164.456L470.61 164.667L470.523 164.895L470.435 165.105L470.33 165.298L470.242 165.509L470.137 165.719L470.049 165.912L469.944 166.105L469.839 166.315L469.733 166.508L469.628 166.684L469.505 166.877L469.4 167.052L469.277 167.245L469.172 167.42L469.049 167.596L468.926 167.771L468.821 167.947L468.698 168.105L468.576 168.28L468.435 168.438L468.313 168.596L468.19 168.754L468.067 168.911L467.944 169.052L467.804 169.21L467.681 169.35L467.541 169.49L467.418 169.631L467.278 169.771L467.137 169.894L467.015 170.034L466.874 170.157L466.734 170.28L466.611 170.402L466.471 170.525L466.331 170.648L466.19 170.753L466.067 170.876L465.927 170.981L465.787 171.086L465.646 171.192L465.506 171.279L465.383 171.385L465.243 171.49L465.103 171.578L464.962 171.665L464.822 171.753L464.699 171.841L464.559 171.928L464.419 171.999L464.296 172.086L464.155 172.156L464.015 172.244L463.892 172.314L463.752 172.384L463.629 172.455L463.489 172.507L463.366 172.577L463.243 172.63L463.103 172.7L462.98 172.753L462.857 172.805L462.735 172.858L462.612 172.911L462.489 172.963L462.366 173.016L462.244 173.051L462.121 173.104L461.998 173.139L461.875 173.191L461.77 173.226L461.647 173.261L461.524 173.297L461.419 173.332L461.314 173.367L461.191 173.402L461.086 173.437L460.981 173.472L460.875 173.489L460.77 173.525L460.665 173.56L460.56 173.577L460.454 173.612L460.349 173.63L460.262 173.647L460.156 173.682L460.069 173.7L459.963 173.718L459.876 173.735L459.788 173.753L459.7 173.77L459.613 173.788L459.525 173.823L459.437 173.84L459.349 173.858H459.262L459.174 173.875L459.104 173.893L459.016 173.91L458.946 173.928L458.858 173.946L458.788 173.963L458.718 173.981L458.648 173.998L458.578 174.016L458.507 174.033L458.437 174.051L458.367 174.068L458.297 174.086L458.227 174.103L458.174 174.121L458.104 174.138L458.034 174.156L457.981 174.174L457.911 174.191L457.858 174.209L457.806 174.226L457.736 174.244L457.683 174.279L457.63 174.296L457.578 174.314L457.525 174.349L457.473 174.367L457.42 174.384L457.367 174.419L457.315 174.437L457.262 174.472L457.209 174.507L457.157 174.524L457.104 174.559L457.069 174.595L457.017 174.63L456.964 174.647L456.911 174.682L456.876 174.717L456.824 174.752L456.771 174.805L456.718 174.84L456.683 174.875L456.631 174.91L456.578 174.963L456.543 174.998L456.49 175.051L456.438 175.086L456.403 175.138L456.35 175.191L456.297 175.226L456.262 175.279L456.21 175.331L456.157 175.384L456.104 175.436L456.052 175.489L455.999 175.542L455.964 175.594L455.911 175.665L455.859 175.717L455.806 175.77L455.736 175.84L455.683 175.893L455.631 175.963L455.578 176.033L455.526 176.085L455.455 176.156L455.403 176.226L455.333 176.296L455.28 176.366L455.21 176.436L455.157 176.506L455.087 176.577L455.017 176.647L454.947 176.717L454.877 176.787L454.806 176.857L454.736 176.945L454.666 177.015L454.596 177.085L454.508 177.173L454.438 177.243L454.35 177.331L454.263 177.401L454.193 177.489L454.105 177.559L454.017 177.647L453.929 177.734L453.824 177.804L453.736 177.892L453.649 177.962L453.544 178.05L453.456 178.138L453.351 178.208L453.245 178.296L453.14 178.383L453.035 178.453L452.93 178.541L452.807 178.629L452.702 178.699L452.579 178.787L452.456 178.874L452.351 178.945L452.228 179.032L452.105 179.102L451.965 179.19L451.842 179.26L451.719 179.348L451.579 179.418L451.439 179.506L451.298 179.576L451.158 179.646L451.018 179.734L450.877 179.804L450.737 179.874L450.579 179.944L450.421 180.015L450.281 180.085L450.123 180.155L449.965 180.225L449.807 180.278L449.632 180.348L449.474 180.418L449.299 180.471L449.141 180.523L448.965 180.593L448.79 180.646L448.615 180.699L448.439 180.751L448.246 180.804L448.071 180.856L447.895 180.892L447.703 180.944L447.51 180.979L447.317 181.032L447.124 181.067L446.931 181.102L446.738 181.137L446.545 181.172L446.334 181.19L446.141 181.225L445.931 181.242L445.72 181.26L445.51 181.295H445.317L445.107 181.313L444.879 181.33H444.668L444.458 181.348H444.247H444.019L443.809 181.33H443.581L443.352 181.313H443.124L442.914 181.295L442.686 181.277L442.458 181.242L442.23 181.225L442.002 181.19L441.774 181.155L441.528 181.12L441.3 181.085L441.072 181.049L440.844 180.997L440.599 180.944L440.371 180.892L440.143 180.839L439.897 180.769L439.669 180.716L439.423 180.646L439.195 180.576L438.95 180.488L438.722 180.418L438.494 180.33L438.248 180.243L438.02 180.155L437.775 180.067L437.547 179.962L437.301 179.857L437.073 179.751L436.845 179.646L436.599 179.523L436.371 179.418L436.143 179.295L435.898 179.173L435.67 179.032L435.442 178.909L435.214 178.769L434.986 178.629L434.758 178.489L434.53 178.331L434.302 178.19L434.091 178.032L433.863 177.875L433.653 177.699L433.425 177.541L433.214 177.366L432.986 177.191L432.776 177.015L432.565 176.822L432.355 176.647L432.144 176.454L431.951 176.261L431.741 176.05L431.548 175.857L431.337 175.647L431.144 175.436L430.951 175.226L430.758 175.016L430.565 174.805L430.39 174.577L430.197 174.349L430.022 174.121L429.846 173.893L429.671 173.647L429.496 173.419L429.32 173.174L429.162 172.928L428.987 172.683L428.829 172.437L428.671 172.174L428.531 171.911L428.373 171.665L428.233 171.402L428.092 171.122L427.952 170.858L427.812 170.595L427.671 170.315L427.549 170.034L427.426 169.753L427.303 169.473L427.198 169.192L427.075 168.911L426.97 168.613L426.864 168.333L426.759 168.034L426.672 167.736L426.584 167.438L426.496 167.14L426.408 166.842L426.321 166.543L426.251 166.245L426.18 165.93L426.11 165.631L426.058 165.316L426.005 165L425.952 164.702L425.9 164.386L425.847 164.07L425.812 163.755L425.777 163.439L425.759 163.123L425.724 162.807L425.707 162.492L425.689 162.158V161.843L425.672 161.527V161.211V160.878L425.689 160.562L425.707 160.246L425.724 159.913L425.742 159.597L425.777 159.282L425.794 158.948L425.847 158.633L425.882 158.317L425.935 157.984L425.987 157.668L426.04 157.352L426.093 157.037L426.163 156.703L426.233 156.388L426.321 156.072L426.391 155.756L426.479 155.44L426.566 155.125L426.672 154.826L426.759 154.511L426.864 154.195L426.97 153.897L427.092 153.581L427.215 153.283L427.338 152.967L427.461 152.669L427.584 152.371L427.724 152.073L427.864 151.774L428.022 151.476L428.162 151.196L428.32 150.897L428.478 150.617L428.636 150.336L428.811 150.055L428.969 149.775L429.145 149.494L429.338 149.213L429.513 148.95L429.706 148.67L429.899 148.407L430.092 148.144L430.285 147.88L430.495 147.635L430.706 147.372L430.916 147.126L431.127 146.881L431.337 146.635L431.565 146.389L431.793 146.161L432.021 145.916L432.249 145.688L432.477 145.46L432.723 145.249L432.951 145.021L433.197 144.811L433.442 144.6L433.705 144.39L433.951 144.179L434.214 143.986L434.459 143.793L434.723 143.601L434.986 143.408L435.249 143.232L435.529 143.057L435.793 142.881L436.073 142.706L436.336 142.531L436.617 142.373L436.898 142.215L437.178 142.057L437.459 141.917L437.757 141.776L438.038 141.636L438.318 141.496L438.617 141.355L438.897 141.233L439.195 141.11L439.494 141.005L439.792 140.882L440.09 140.777L440.388 140.671L440.686 140.566L440.985 140.478L441.283 140.391L441.581 140.303L441.879 140.215L442.177 140.145L442.493 140.075L442.791 140.005L443.089 139.952L443.405 139.882L443.703 139.829L444.001 139.794L444.317 139.742L444.615 139.707L444.914 139.671L445.212 139.636L445.528 139.619L445.826 139.584H446.124L446.44 139.566L446.738 139.549H447.036H447.334L447.632 139.566H447.931L448.229 139.584L448.527 139.601L448.825 139.619L449.106 139.654L449.404 139.689L449.702 139.724L449.983 139.759L450.281 139.812L450.562 139.847L450.842 139.899L451.123 139.97L451.404 140.022L451.684 140.092L451.965 140.145L452.246 140.233L452.526 140.303L452.789 140.373L453.052 140.461L453.333 140.548L453.596 140.636L453.859 140.724L454.122 140.829L454.368 140.934L454.631 141.04L454.877 141.145L455.14 141.25L455.385 141.373L455.631 141.478L455.876 141.601L456.104 141.724L456.35 141.846L456.578 141.969L456.824 142.11L457.052 142.25L457.28 142.373L457.49 142.513L457.718 142.653L457.929 142.811L458.139 142.952L458.35 143.092L458.56 143.25L458.771 143.408L458.964 143.565L459.174 143.723L459.367 143.881L459.56 144.039L459.753 144.197L459.928 144.372L460.121 144.53L460.297 144.706L460.472 144.881L460.647 145.056L460.805 145.232L460.981 145.407L461.139 145.583L461.296 145.758L461.454 145.933L461.595 146.109L461.752 146.302L461.893 146.477L462.033 146.653L462.173 146.846L462.314 147.021L462.437 147.214L462.577 147.407L462.7 147.582L462.822 147.775L462.945 147.968L463.05 148.144L463.173 148.336L463.278 148.529L463.384 148.722L463.489 148.915L463.577 149.091L463.682 149.284L463.77 149.477L463.857 149.67L463.945 149.845L464.033 150.038L464.103 150.231L464.191 150.424L464.261 150.599L464.331 150.792L464.401 150.985L464.454 151.16L464.524 151.353L464.576 151.546L464.629 151.722L464.699 151.915L464.734 152.09L464.787 152.266L464.84 152.458L464.875 152.634L464.91 152.809L464.962 152.985L464.997 153.178L465.015 153.353L465.05 153.528L465.085 153.686L465.103 153.862L465.12 154.037L465.155 154.213L465.173 154.37L465.19 154.546V154.704L465.208 154.879L465.225 155.037V155.195V155.353L465.243 155.51V155.668V155.826V155.984L465.225 156.142V156.282V156.44L465.208 156.58V156.721L465.19 156.879V157.019L465.173 157.159L465.155 157.282L465.138 157.422L465.12 157.563L465.103 157.703L465.085 157.826L465.068 157.949L465.05 158.089L465.015 158.212L464.997 158.335L464.98 158.457L464.945 158.58L464.927 158.703L464.91 158.808L464.875 158.931L464.857 159.036L464.822 159.159L464.804 159.264L464.769 159.369L464.734 159.475L464.717 159.58L464.682 159.685L464.647 159.79L464.629 159.878L464.594 159.983L464.559 160.089L464.541 160.176L464.506 160.264L464.471 160.369L464.454 160.457L464.419 160.545L464.401 160.632L464.366 160.72L464.331 160.79L464.313 160.878L464.278 160.966L464.261 161.036L464.226 161.123L464.208 161.194L464.173 161.281L464.155 161.351L464.138 161.422L464.103 161.492L464.085 161.562L464.068 161.632L464.033 161.702L464.015 161.772L463.998 161.843L463.98 161.913L463.963 161.983L463.945 162.053L463.927 162.106L463.91 162.176L463.892 162.228L463.875 162.299V162.369L463.857 162.421L463.84 162.492V162.544L463.822 162.597V162.667L463.805 162.72V162.772V162.842L463.787 162.895V162.948V163.018V163.07" stroke="white" stroke-width="1.57864"/>
<path d="M423.181 739.468H372.537C364.767 739.468 358.469 745.766 358.469 753.536V804.18C358.469 811.949 364.767 818.248 372.537 818.248H423.181C430.95 818.248 437.249 811.949 437.249 804.18V753.536C437.249 745.766 430.95 739.468 423.181 739.468Z" fill="white" fill-opacity="0.1"/>
<path d="M423.181 739H372.537C364.508 739 358 745.508 358 753.537V804.181C358 812.209 364.508 818.718 372.537 818.718H423.181C431.209 818.718 437.717 812.209 437.717 804.181V753.537C437.717 745.508 431.209 739 423.181 739Z" stroke="white" stroke-opacity="0.2" stroke-width="0.937853"/>
<path d="M371.604 747.909C371.037 747.909 370.614 748.371 370.665 748.936L375.447 802.584C375.498 803.149 375.986 803.736 376.533 803.888L396.829 809.523C397.376 809.675 398.27 809.675 398.817 809.523L419.175 803.879C419.722 803.727 420.211 803.141 420.261 802.576L425.052 748.936C425.103 748.371 424.679 747.909 424.112 747.909H371.604ZM414.866 760.213C414.821 760.717 414.743 761.592 414.692 762.157L414.566 763.564C414.516 764.129 414.443 764.937 414.405 765.36C414.367 765.782 414.331 766.128 414.325 766.128C414.318 766.128 413.849 766.128 413.281 766.128H398.89C398.322 766.128 397.853 766.128 397.847 766.128C397.841 766.128 397.372 766.128 396.804 766.128H389.225C388.658 766.128 388.235 766.59 388.285 767.155L388.727 772.097C388.778 772.662 389.283 773.124 389.851 773.124H396.805C397.372 773.124 397.841 773.124 397.847 773.124C397.854 773.124 398.323 773.124 398.89 773.124H410.843C411.41 773.124 412.288 773.124 412.794 773.124C413.299 773.124 413.675 773.537 413.63 774.041C413.584 774.545 413.505 775.42 413.455 775.985L412.033 791.917C411.982 792.482 411.918 793.204 411.89 793.521C411.862 793.838 411.392 794.222 410.845 794.373L398.852 797.699C398.306 797.85 397.851 797.976 397.843 797.977C397.834 797.979 397.38 797.857 396.833 797.705L384.828 794.374C384.281 794.222 383.793 793.635 383.742 793.07L382.969 784.396C382.919 783.831 383.342 783.369 383.91 783.369H385.005C385.573 783.369 386.501 783.369 387.068 783.369H388.702C389.269 783.369 389.775 783.831 389.825 784.396L390.128 787.792C390.179 788.357 390.668 788.94 391.216 789.088L396.832 790.605C397.379 790.753 397.829 790.874 397.832 790.874C397.834 790.874 398.284 790.752 398.832 790.604L404.458 789.084C405.005 788.936 405.495 788.353 405.546 787.788L406.156 780.985C406.206 780.42 405.784 779.958 405.216 779.958H398.89C398.323 779.958 397.854 779.958 397.847 779.958C397.841 779.958 397.372 779.958 396.805 779.958H383.604C383.036 779.958 382.531 779.495 382.481 778.93L380.984 762.157C380.933 761.592 380.855 760.717 380.81 760.213C380.765 759.709 381.193 759.296 381.76 759.296H396.805C397.372 759.296 397.841 759.296 397.847 759.296C397.854 759.296 398.323 759.296 398.89 759.296H413.916C414.484 759.296 414.911 759.709 414.866 760.213Z" fill="white"/>
<path d="M554.243 226.469H504.537C496.767 226.469 490.469 232.767 490.469 240.537V290.243C490.469 298.013 496.767 304.311 504.537 304.311H554.243C562.013 304.311 568.311 298.013 568.311 290.243V240.537C568.311 232.767 562.013 226.469 554.243 226.469Z" fill="white" fill-opacity="0.1"/>
<path d="M554.243 226H504.537C496.509 226 490 232.508 490 240.537V290.243C490 298.272 496.509 304.78 504.537 304.78H554.243C562.272 304.78 568.78 298.272 568.78 290.243V240.537C568.78 232.508 562.272 226 554.243 226Z" stroke="white" stroke-opacity="0.2" stroke-width="0.937853"/>
<path d="M513.688 259.969C515.729 251.802 520.833 247.719 529 247.719C541.25 247.719 542.781 256.906 548.906 258.437C552.99 259.458 556.562 257.927 559.625 253.844C557.583 262.01 552.479 266.094 544.312 266.094C532.062 266.094 530.531 256.906 524.406 255.375C520.323 254.354 516.75 255.885 513.688 259.969ZM498.375 278.344C500.417 270.177 505.521 266.094 513.688 266.094C525.938 266.094 527.469 275.281 533.594 276.812C537.677 277.833 541.25 276.302 544.312 272.219C542.271 280.385 537.167 284.469 529 284.469C516.75 284.469 515.219 275.281 509.094 273.75C505.01 272.729 501.438 274.26 498.375 278.344Z" fill="white"/>
<path d="M239.243 169.469H189.537C181.767 169.469 175.469 175.767 175.469 183.537V233.243C175.469 241.013 181.767 247.311 189.537 247.311H239.243C247.013 247.311 253.311 241.013 253.311 233.243V183.537C253.311 175.767 247.013 169.469 239.243 169.469Z" fill="white" fill-opacity="0.1"/>
<path d="M239.243 169H189.537C181.509 169 175 175.508 175 183.537V233.243C175 241.272 181.509 247.78 189.537 247.78H239.243C247.272 247.78 253.78 241.272 253.78 233.243V183.537C253.78 175.508 247.272 169 239.243 169Z" stroke="white" stroke-opacity="0.2" stroke-width="0.937853"/>
<path d="M189.152 217.015C189.15 217.575 188.913 218.079 188.535 218.435H188.534C188.146 218.8 187.623 219.022 187.047 219.022C186.472 219.022 185.947 218.798 185.558 218.433L185.559 218.435C185.182 218.079 184.945 217.575 184.945 217.017C184.945 216.459 185.182 215.953 185.561 215.599C185.949 215.235 186.474 215.012 187.049 215.012C187.625 215.012 188.148 215.235 188.537 215.601L188.535 215.599C188.913 215.955 189.15 216.459 189.152 217.019V217.015ZM210.224 218.693H206.452L196.52 203.023C196.291 202.67 196.08 202.263 195.912 201.835L195.894 201.788H195.807C195.886 202.496 195.931 203.313 195.931 204.142C195.931 204.344 195.929 204.545 195.923 204.747V204.718V218.693H192.589V197.375H196.605L206.205 212.677C206.61 213.309 206.872 213.747 206.988 213.985H207.046C206.949 213.26 206.895 212.423 206.895 211.573C206.895 211.412 206.897 211.253 206.901 211.092V211.115V197.373H210.224V218.693ZM226.464 218.693H214.791V197.375H226.001V200.378H218.241V206.417H225.391V209.405H218.241V215.709H226.464V218.693ZM243.055 200.378H237.08V218.695H233.629V200.378H227.667V197.375H243.053L243.055 200.378Z" fill="white"/>
<path d="M163.243 285.469H113.537C105.767 285.469 99.469 291.767 99.469 299.537V349.243C99.469 357.013 105.767 363.311 113.537 363.311H163.243C171.013 363.311 177.311 357.013 177.311 349.243V299.537C177.311 291.767 171.013 285.469 163.243 285.469Z" fill="white" fill-opacity="0.1"/>
<path d="M163.243 285H113.537C105.509 285 99 291.508 99 299.537V349.243C99 357.272 105.509 363.78 113.537 363.78H163.243C171.272 363.78 177.78 357.272 177.78 349.243V299.537C177.78 291.508 171.272 285 163.243 285Z" stroke="white" stroke-opacity="0.2" stroke-width="0.937853"/>
<g clip-path="url(#clip0_3_97)">
<path d="M163.912 312.207C163.912 311.234 163.702 310.375 163.278 309.637C162.861 308.912 162.237 308.303 161.4 307.823C154.488 303.871 147.57 299.932 140.661 295.976C138.798 294.91 136.993 294.949 135.144 296.031C132.393 297.639 118.62 305.463 114.516 307.821C112.826 308.791 112.003 310.276 112.003 312.205C112 320.152 112.003 328.099 112 336.045C112 336.997 112.201 337.84 112.607 338.566C113.024 339.314 113.657 339.939 114.513 340.43C118.618 342.787 132.393 350.611 135.143 352.22C136.993 353.302 138.798 353.341 140.662 352.274C147.571 348.319 154.489 344.379 161.402 340.428C162.258 339.936 162.891 339.311 163.308 338.564C163.713 337.838 163.915 336.995 163.915 336.043C163.915 336.043 163.915 320.154 163.912 312.207Z" fill="#646464"/>
<path d="M138.037 324.048L112.607 338.566C113.024 339.314 113.657 339.939 114.513 340.43C118.618 342.787 132.393 350.611 135.143 352.22C136.992 353.302 138.798 353.341 140.662 352.274C147.571 348.319 154.489 344.379 161.402 340.428C162.258 339.936 162.891 339.311 163.308 338.564L138.037 324.048Z" fill="#2E2E2E"/>
<path d="M163.912 312.207C163.912 311.234 163.702 310.375 163.278 309.637L138.037 324.048L163.308 338.564C163.713 337.838 163.915 336.995 163.915 336.043C163.915 336.043 163.915 320.154 163.912 312.207Z" fill="#464646"/>
<path d="M153.009 318.62V321.334H155.746V318.62H157.115V321.334H159.851V322.691H157.115V325.405H159.851V326.762H157.115V329.475H155.746V326.762H153.009V329.475H151.641V326.762H148.904V325.405H151.641V322.691H148.904V321.334H151.641V318.62H153.009ZM155.746 322.691H153.009V325.405H155.746V322.691Z" fill="white"/>
<path d="M138.093 304.991C145.231 304.991 151.464 308.836 154.802 314.55L154.77 314.495L146.371 319.29C144.716 316.512 141.682 314.637 138.202 314.598L138.093 314.598C132.786 314.598 128.484 318.863 128.484 324.125C128.484 325.846 128.946 327.459 129.751 328.852C131.407 331.719 134.521 333.653 138.093 333.653C141.687 333.653 144.818 331.695 146.466 328.797L146.426 328.867L154.812 333.684C151.51 339.35 145.363 343.182 138.308 343.258L138.093 343.259C130.932 343.259 124.681 339.392 121.352 333.647C119.726 330.843 118.796 327.592 118.796 324.125C118.796 313.558 127.435 304.991 138.093 304.991Z" fill="white"/>
</g>
<path d="M372.181 504.469H321.537C313.767 504.469 307.469 510.767 307.469 518.537V569.181C307.469 576.95 313.767 583.249 321.537 583.249H372.181C379.95 583.249 386.249 576.95 386.249 569.181V518.537C386.249 510.767 379.95 504.469 372.181 504.469Z" fill="white" fill-opacity="0.1"/>
<path d="M372.181 504H321.537C313.508 504 307 510.508 307 518.537V569.181C307 577.209 313.508 583.717 321.537 583.717H372.181C380.209 583.717 386.717 577.209 386.717 569.181V518.537C386.717 510.508 380.209 504 372.181 504Z" stroke="white" stroke-opacity="0.2" stroke-width="0.937853"/>
<g clip-path="url(#clip1_3_97)">
<mask id="mask3_3_97" style="mask-type:luminance" maskUnits="userSpaceOnUse" x="322" y="519" width="51" height="51">
<path d="M373 519H322V570H373V519Z" fill="white"/>
</mask>
<g mask="url(#mask3_3_97)">
<path d="M345.83 519.014C345.72 519.024 345.371 519.059 345.057 519.084C337.813 519.737 331.028 523.645 326.731 529.652C324.338 532.993 322.808 536.781 322.229 540.795C322.025 542.196 322 542.609 322 544.509C322 546.408 322.025 546.822 322.229 548.223C323.615 557.8 330.43 565.846 339.673 568.827C341.328 569.361 343.073 569.725 345.057 569.944C345.83 570.029 349.17 570.029 349.943 569.944C353.368 569.565 356.269 568.718 359.131 567.257C359.57 567.032 359.654 566.973 359.594 566.923C359.554 566.893 357.685 564.385 355.442 561.354L351.364 555.845L346.254 548.283C343.442 544.125 341.129 540.725 341.109 540.725C341.089 540.72 341.069 544.08 341.059 548.183C341.044 555.367 341.039 555.656 340.949 555.825C340.82 556.07 340.72 556.169 340.511 556.279C340.351 556.359 340.211 556.374 339.459 556.374H338.596L338.367 556.229C338.217 556.135 338.108 556.01 338.033 555.865L337.928 555.641L337.938 545.645L337.953 535.645L338.108 535.45C338.187 535.346 338.357 535.211 338.477 535.146C338.681 535.047 338.761 535.037 339.623 535.037C340.64 535.037 340.81 535.076 341.074 535.366C341.149 535.445 343.916 539.613 347.226 544.633C350.536 549.654 355.063 556.508 357.286 559.874L361.324 565.991L361.529 565.856C363.338 564.679 365.253 563.004 366.768 561.259C369.994 557.555 372.073 553.039 372.771 548.223C372.975 546.822 373 546.408 373 544.509C373 542.609 372.975 542.196 372.771 540.795C371.385 531.218 364.57 523.172 355.327 520.19C353.697 519.662 351.962 519.298 350.018 519.079C349.539 519.029 346.244 518.974 345.83 519.014ZM356.269 534.438C356.509 534.558 356.703 534.787 356.773 535.027C356.813 535.156 356.823 537.928 356.813 544.175L356.798 553.138L355.217 550.715L353.632 548.293V541.777C353.632 537.564 353.652 535.196 353.682 535.081C353.762 534.802 353.936 534.583 354.175 534.453C354.38 534.349 354.454 534.339 355.237 534.339C355.975 534.339 356.105 534.349 356.269 534.438Z" fill="white"/>
</g>
</g>
<path d="M133.243 411.469H83.537C75.767 411.469 69.469 417.767 69.469 425.537V475.243C69.469 483.013 75.767 489.311 83.537 489.311H133.243C141.013 489.311 147.311 483.013 147.311 475.243V425.537C147.311 417.767 141.013 411.469 133.243 411.469Z" fill="white" fill-opacity="0.1"/>
<path d="M133.243 411H83.537C75.509 411 69 417.508 69 425.537V475.243C69 483.272 75.509 489.78 83.537 489.78H133.243C141.272 489.78 147.78 483.272 147.78 475.243V425.537C147.78 417.508 141.272 411 133.243 411Z" stroke="white" stroke-opacity="0.2" stroke-width="0.937853"/>
<path d="M97.4874 444.744C96.03 443.076 93.7113 442.242 90.5327 442.242H79.9674L75.0654 467.464H80.5594L81.8628 460.758H86.5689C88.6455 460.758 90.3537 460.541 91.695 460.103C93.036 459.668 94.2549 458.936 95.3519 457.909C96.2728 457.063 97.0171 456.13 97.5879 455.109C98.1577 454.089 98.5625 452.963 98.802 451.731C99.3834 448.741 98.9446 446.413 97.4874 444.744ZM93.1231 451.346C92.7432 453.298 92.0118 454.691 90.9279 455.526C89.8434 456.361 88.1934 456.778 85.9786 456.778H82.6362L84.6878 446.222H88.4523C90.5398 446.222 91.9308 446.607 92.6262 447.378C93.3211 448.149 93.4872 449.471 93.1231 451.346ZM119.208 449.021L116.927 460.758H111.39L113.558 449.599C113.805 448.329 113.714 447.463 113.286 447.002C112.857 446.54 111.945 446.309 110.551 446.309H106.194L103.386 460.758H97.9353L102.837 435.536H108.288L106.985 442.242H111.841C114.897 442.242 117.004 442.775 118.164 443.841C119.324 444.907 119.672 446.634 119.208 449.021ZM140.371 444.744C138.914 443.076 136.595 442.242 133.417 442.242H122.852L117.95 467.464H123.444L124.747 460.758H129.453C131.53 460.758 133.238 460.541 134.579 460.103C135.92 459.668 137.139 458.936 138.236 457.909C139.157 457.063 139.902 456.13 140.472 455.109C141.042 454.089 141.446 452.963 141.686 451.731C142.267 448.741 141.829 446.413 140.371 444.744ZM136.007 451.346C135.628 453.298 134.896 454.691 133.812 455.526C132.728 456.361 131.077 456.778 128.862 456.778H125.521L127.572 446.222H131.336C133.424 446.222 134.815 446.607 135.511 447.378C136.206 448.149 136.371 449.471 136.007 451.346Z" fill="white"/>
<path d="M208.243 551.469H158.537C150.767 551.469 144.469 557.767 144.469 565.537V615.243C144.469 623.013 150.767 629.311 158.537 629.311H208.243C216.013 629.311 222.311 623.013 222.311 615.243V565.537C222.311 557.767 216.013 551.469 208.243 551.469Z" fill="white" fill-opacity="0.1"/>
<path d="M208.243 551H158.537C150.509 551 144 557.508 144 565.537V615.243C144 623.272 150.509 629.78 158.537 629.78H208.243C216.272 629.78 222.78 623.272 222.78 615.243V565.537C222.78 557.508 216.272 551 208.243 551Z" stroke="white" stroke-opacity="0.2" stroke-width="0.937853"/>
<g clip-path="url(#clip2_3_97)">
<path fill-rule="evenodd" clip-rule="evenodd" d="M191.046 613.76C189.72 613.76 188.648 612.682 188.648 611.349C188.648 610.017 189.72 608.942 191.046 608.942C192.371 608.942 193.444 610.017 193.444 611.349C193.444 612.682 192.371 613.76 191.046 613.76ZM183.698 618C197.662 618 196.791 611.913 196.791 611.913L196.774 605.608H183.451V603.714H202.065C202.065 603.714 211 604.734 211 590.573C211 576.411 203.204 576.91 203.204 576.91H198.548V583.484C198.548 583.484 198.798 591.32 190.876 591.32H177.659C177.659 591.32 170.234 591.203 170.234 598.536V610.66C170.234 610.66 169.106 618 183.698 618Z" fill="#0075D1"/>
<path fill-rule="evenodd" clip-rule="evenodd" d="M175.957 567.24C177.282 567.24 178.352 568.318 178.352 569.651C178.352 570.983 177.282 572.058 175.957 572.058C174.631 572.058 173.559 570.983 173.559 569.651C173.559 568.318 174.631 567.24 175.957 567.24ZM183.302 563C169.34 563 170.212 569.087 170.212 569.087L170.229 575.392H183.552V577.286H164.935C164.935 577.286 156 576.266 156 590.427C156 604.589 163.799 604.09 163.799 604.09H168.452V597.516C168.452 597.516 168.202 589.68 176.127 589.68H189.341C189.341 589.68 196.766 589.797 196.766 582.464V570.34C196.766 570.34 197.894 563 183.302 563Z" fill="#FFD83A"/>
</g>
<path d="M268.243 418.469H218.537C210.767 418.469 204.469 424.767 204.469 432.537V482.243C204.469 490.013 210.767 496.311 218.537 496.311H268.243C276.013 496.311 282.311 490.013 282.311 482.243V432.537C282.311 424.767 276.013 418.469 268.243 418.469Z" fill="white" fill-opacity="0.1"/>
<path d="M268.243 418H218.537C210.509 418 204 424.508 204 432.537V482.243C204 490.272 210.509 496.78 218.537 496.78H268.243C276.272 496.78 282.78 490.272 282.78 482.243V432.537C282.78 424.508 276.272 418 268.243 418Z" stroke="white" stroke-opacity="0.2" stroke-width="0.937853"/>
<g clip-path="url(#clip3_3_97)">
<path d="M255.196 436.25H250.854C250.025 436.25 249.252 436.672 248.804 437.369L243 446.398L237.196 437.369C236.748 436.672 235.975 436.25 235.146 436.25H219.437C218.564 436.25 217.756 436.718 217.322 437.476C216.888 438.235 216.893 439.168 217.335 439.921L240.898 480.065C241.336 480.811 242.135 481.269 243 481.269C243.865 481.269 244.664 480.811 245.102 480.065L268.665 439.921C269.107 439.168 269.112 438.235 268.678 437.476C268.243 436.718 267.436 436.25 266.562 436.25H255.242C255.227 436.25 255.212 436.25 255.196 436.25ZM229.382 441.125L243 464.47L256.617 441.125H262.305L243 474.016L223.695 441.125H229.382Z" fill="white"/>
</g>
<defs>
<linearGradient id="paint0_linear_3_97" x1="274.242" y1="651.459" x2="299.271" y2="685.45" gradientUnits="userSpaceOnUse">
<stop stop-color="white" stop-opacity="0"/>
<stop offset="1" stop-color="white"/>
</linearGradient>
<linearGradient id="paint1_linear_3_97" x1="301.523" y1="643.578" x2="306.671" y2="678.898" gradientUnits="userSpaceOnUse">
<stop offset="0.0001" stop-color="white"/>
</linearGradient>
<clipPath id="clip0_3_97">
<rect width="52" height="58" fill="white" transform="translate(112 295.198)"/>
</clipPath>
<clipPath id="clip1_3_97">
<rect width="51" height="51" fill="white" transform="translate(322 519)"/>
</clipPath>
<clipPath id="clip2_3_97">
<rect width="55" height="55" fill="white" transform="translate(156 563)"/>
</clipPath>
<clipPath id="clip3_3_97">
<rect width="52" height="52" fill="white" transform="translate(217 433)"/>
</clipPath>
</defs>
</svg>
